<svg width="2623" height="385" viewBox="0 0 2623 385" fill="none" xmlns="http://www.w3.org/2000/svg">
<path d="M166.237 13.7958C178.474 13.7958 191.081 15.8352 204.06 19.9142C217.038 23.9931 228.904 29.9261 239.658 37.7131C250.782 45.5002 259.682 55.3267 266.356 67.1927C273.031 78.6878 276.368 92.2225 276.368 107.797C276.368 120.775 272.66 133.383 265.244 145.619C258.198 157.856 248.928 168.61 237.433 177.88C226.309 187.15 214.628 193.825 202.391 197.904C212.032 213.849 221.303 228.496 230.202 241.845C239.102 255.194 248.372 268.544 258.013 281.893C267.654 294.871 278.408 309.333 290.274 325.278C298.061 335.66 306.404 343.447 315.303 348.639C324.574 353.83 336.625 356.982 351.458 358.095C352.941 359.578 353.312 362.359 352.57 366.438C351.828 370.517 351.272 372.927 350.901 373.669C332.732 373.669 317.528 373.112 305.292 372C293.426 370.517 284.711 368.848 279.149 366.994C275.441 365.511 270.25 363.286 263.575 360.319C256.901 356.982 250.411 351.235 244.108 343.077C241.883 340.11 237.804 334.363 231.871 325.834C225.938 317.305 218.892 306.923 210.735 294.686C202.577 282.449 193.863 269.471 184.592 255.75C175.322 241.66 166.423 227.94 157.894 214.59C154.927 210.141 149.365 207.916 141.207 207.916H112.84V309.147C112.84 310.26 112.84 311.372 112.84 312.485C112.84 313.597 112.84 314.71 112.84 315.822C112.84 322.867 112.84 329.357 112.84 335.29C113.211 340.852 113.953 345.487 115.065 349.195C115.807 351.049 118.773 352.718 123.965 354.201C129.156 355.684 134.718 356.797 140.651 357.538C146.584 357.909 150.663 358.095 152.888 358.095C154 359.578 154.557 362.173 154.557 365.882C154.927 369.59 154.371 372.185 152.888 373.669C141.764 372.927 131.01 372.371 120.627 372C110.615 371.258 100.233 370.888 89.479 370.888C79.0963 370.888 68.5282 371.258 57.7746 372C47.0211 372.371 36.0821 372.927 24.9578 373.669C23.4745 372.185 22.7329 369.59 22.7329 365.882C23.1037 362.173 23.8453 359.578 24.9578 358.095C27.1827 358.095 31.2616 357.909 37.1946 357.538C43.1276 356.797 48.6897 355.684 53.8811 354.201C59.4433 352.718 62.4098 351.049 62.7806 349.195C64.2638 344.745 65.0055 338.998 65.0055 331.952C65.3763 324.907 65.5617 317.305 65.5617 309.147L65.0055 77.2046C65.0055 69.0467 64.8201 61.4451 64.4492 54.3997C64.4492 46.9834 63.7076 41.0504 62.2244 36.6007C61.8536 34.3758 58.8871 32.7072 53.3249 31.5947C48.1335 30.4823 42.5713 29.7407 36.6384 29.3699C31.0762 28.6282 27.1827 28.2574 24.9578 28.2574C23.8453 26.7742 23.1037 24.1785 22.7329 20.4704C22.7329 16.7623 23.4745 14.1666 24.9578 12.6833C36.0821 13.0541 46.8357 13.6104 57.2184 14.352C67.972 14.7228 78.5401 14.9082 88.9228 14.9082C99.6764 14.9082 111.172 14.7228 123.408 14.352C136.016 13.9812 150.292 13.7958 166.237 13.7958ZM225.752 112.803C225.752 89.0706 219.263 69.6029 206.285 54.3997C193.677 39.1964 172.355 31.5947 142.32 31.5947C138.982 31.5947 133.791 31.7801 126.746 32.151C120.071 32.5218 116.177 34.005 115.065 36.6007C113.582 39.938 112.655 45.6856 112.284 53.8434C112.284 61.6305 112.284 69.603 112.284 77.7608L112.84 191.229H141.764C155.854 191.229 169.204 188.077 181.811 181.774C194.79 175.099 205.358 166.014 213.516 154.519C221.673 142.653 225.752 128.747 225.752 112.803Z" fill="black"/>
<path d="M398.984 14.9082C424.57 14.9082 452.751 14.352 483.529 13.2395C514.306 12.1271 544.342 11.5709 573.636 11.5709C575.49 25.291 577.9 37.8985 580.867 49.3937C583.833 60.8889 586.615 72.7549 589.21 84.9916C587.356 86.8457 584.204 87.7727 579.755 87.7727C574.934 87.7727 572.338 86.4749 571.967 83.8792C566.034 62.0013 557.691 48.0959 546.938 42.1629C536.184 36.2299 523.577 33.2634 509.115 33.2634H462.393C460.168 33.2634 456.089 33.4488 450.156 33.8196C444.223 33.8196 438.661 34.1904 433.469 34.9321C428.278 35.6737 425.311 36.9715 424.57 38.8256C423.457 42.5337 422.716 47.3542 422.345 53.2872C422.345 59.2202 422.345 65.3386 422.345 71.6424C422.345 74.2381 422.345 76.2776 422.345 77.7608V178.992C422.345 180.476 424.755 181.403 429.576 181.774C434.396 182.144 439.773 182.33 445.706 182.33H474.073C487.052 182.33 497.063 181.959 504.109 181.217C511.525 180.476 516.902 178.807 520.239 176.211C523.577 173.616 526.172 169.722 528.026 164.531C529.88 159.339 531.92 152.294 534.145 143.395C534.515 140.799 537.111 139.501 541.932 139.501C546.381 139.501 549.533 140.428 551.387 142.282V244.626C549.904 246.109 546.938 246.851 542.488 246.851C538.038 246.851 535.257 245.553 534.145 242.957C531.549 232.575 529.324 225.159 527.47 220.709C525.987 215.888 524.504 212.736 523.02 211.253C521.908 209.399 520.425 207.916 518.571 206.803C516.717 205.32 512.452 204.393 505.778 204.022C499.103 203.281 491.687 202.91 483.529 202.91C475.742 202.539 468.326 202.354 461.28 202.354C456.46 202.354 450.897 202.539 444.594 202.91C438.661 202.91 433.469 203.281 429.02 204.022C424.57 204.393 422.345 205.505 422.345 207.36V310.816C422.345 311.558 422.345 312.67 422.345 314.153C422.345 319.345 422.345 326.019 422.345 334.177C422.716 342.335 423.643 346.97 425.126 348.083C428.834 350.678 433.284 352.347 438.475 353.089C444.037 353.459 452.566 353.645 464.061 353.645H490.203C503.182 353.645 515.975 352.347 528.582 349.751C541.19 347.156 551.202 343.447 558.618 338.627C567.147 333.436 573.822 326.019 578.642 316.378C583.463 306.366 588.098 295.613 592.548 284.118C593.289 281.893 595.885 280.78 600.335 280.78C607.009 280.78 611.459 281.893 613.684 284.118C608.492 298.95 602.745 314.71 596.441 331.396C590.508 348.083 586.615 362.359 584.76 374.225C555.466 374.225 526.358 373.854 497.434 373.112C468.511 372.371 435.88 372 399.54 372C386.932 372 375.623 372.185 365.611 372.556C355.599 373.298 345.216 373.669 334.463 373.669C332.979 372.185 332.238 369.59 332.238 365.882C332.608 362.173 333.35 359.578 334.463 358.095C336.687 358.095 340.766 357.909 346.699 357.538C352.632 356.797 358.194 355.684 363.386 354.201C368.948 352.718 371.914 351.049 372.285 349.195C373.769 344.745 374.51 338.998 374.51 331.952C374.881 324.907 375.066 317.305 375.066 309.147V77.2046C375.066 69.0467 374.881 61.4451 374.51 54.3997C374.51 46.9834 373.769 41.0504 372.285 36.6007C371.914 34.3758 368.948 32.7072 363.386 31.5947C358.194 30.4823 352.632 29.7407 346.699 29.3699C340.766 28.6282 336.687 28.2574 334.463 28.2574C333.35 26.7742 332.608 24.1785 332.238 20.4704C332.238 16.7623 332.979 14.1666 334.463 12.6833C345.587 13.0541 356.526 13.6104 367.279 14.352C378.033 14.7228 388.601 14.9082 398.984 14.9082Z" fill="black"/>
<path d="M678.896 13.2395C687.054 13.2395 695.026 13.2395 702.813 13.2395C710.6 13.2395 716.348 13.0541 720.056 12.6833C725.618 21.212 734.518 33.2634 746.755 48.8375C758.991 64.4116 773.268 82.2106 789.583 102.234C805.899 121.887 822.771 142.282 840.199 163.418C857.627 184.555 874.499 205.505 890.815 226.271C907.131 246.666 921.222 265.206 933.088 281.893V76.0922C933.088 66.4511 932.902 58.8494 932.531 53.2872C932.161 47.7251 930.492 42.7191 927.525 38.2694C926.413 36.4153 923.076 34.7466 917.513 33.2634C911.951 31.4093 906.018 30.1115 899.714 29.3699C893.781 28.2574 889.332 27.7012 886.365 27.7012C884.882 25.8472 884.14 23.2515 884.14 19.9142C884.511 16.2061 884.882 13.6104 885.253 12.1271C896.006 12.4979 906.018 13.0541 915.289 13.7958C924.93 14.1666 935.683 14.352 947.549 14.352C956.078 14.352 962.938 14.352 968.129 14.352C973.691 13.9812 979.254 13.6104 984.816 13.2395C990.749 12.8687 997.794 12.4979 1005.95 12.1271C1006.69 13.6104 1007.25 15.8352 1007.62 18.8017C1007.99 21.7682 1007.44 24.7347 1005.95 27.7012C1003.73 27.7012 999.277 28.072 992.603 28.8136C986.299 29.5553 980.181 30.8531 974.248 32.7072C968.315 34.1904 964.607 36.0445 963.123 38.2694C960.528 42.3483 959.044 46.9834 958.674 52.1748C958.303 57.3662 958.117 65.1532 958.117 75.5359V296.354C958.117 306.737 958.117 315.822 958.117 323.609C958.117 331.396 958.117 338.998 958.117 346.414C958.488 353.459 958.859 361.803 959.23 371.444C958.859 372.927 957.747 373.854 955.892 374.225C954.038 374.596 952.741 374.781 951.999 374.781C950.516 374.781 947.92 373.854 944.212 372C940.875 370.146 937.166 366.809 933.088 361.988L696.139 62.7429V309.704C696.139 319.345 696.324 326.946 696.695 332.509C697.437 337.7 699.105 342.52 701.701 346.97C702.813 348.824 705.965 350.678 711.157 352.532C716.719 354.016 722.466 355.313 728.399 356.426C734.703 357.538 739.338 358.095 742.305 358.095C743.788 359.949 744.53 362.544 744.53 365.882C744.53 369.219 744.159 371.815 743.417 373.669C732.664 372.927 722.652 372.371 713.382 372C704.111 371.258 693.543 370.888 681.677 370.888C673.519 370.888 666.474 371.073 660.541 371.444C654.979 371.815 649.416 372.185 643.854 372.556C638.663 372.927 631.803 373.298 623.274 373.669C622.533 372.185 621.976 369.961 621.606 366.994C621.235 364.028 621.791 361.061 623.274 358.095C625.499 358.095 629.763 357.724 636.067 356.982C642.371 355.87 648.489 354.572 654.422 353.089C660.726 351.235 664.434 349.195 665.547 346.97C668.142 342.891 669.626 338.442 669.997 333.621C670.738 328.43 671.109 320.643 671.109 310.26V74.4235C671.109 64.0408 670.738 56.2537 669.997 51.0624C669.626 45.871 668.142 41.2358 665.547 37.1569C664.434 34.932 660.726 33.078 654.422 31.5947C648.489 29.7407 642.371 28.4428 636.067 27.7012C629.763 26.9596 625.499 26.5888 623.274 26.5888C621.791 23.6223 621.235 20.6558 621.606 17.6893C621.976 14.7228 622.533 12.4979 623.274 11.0147C635.882 11.3855 646.079 11.9417 653.866 12.6833C661.653 13.0541 669.997 13.2395 678.896 13.2395Z" fill="black"/>
<path d="M1083.18 14.9082C1108.76 14.9082 1136.94 14.352 1167.72 13.2395C1198.5 12.1271 1228.53 11.5709 1257.83 11.5709C1259.68 25.291 1262.09 37.8985 1265.06 49.3937C1268.02 60.8889 1270.81 72.7549 1273.4 84.9916C1271.55 86.8457 1268.4 87.7727 1263.95 87.7727C1259.13 87.7727 1256.53 86.4749 1256.16 83.8792C1250.23 62.0013 1241.88 48.0959 1231.13 42.1629C1220.38 36.2299 1207.77 33.2634 1193.31 33.2634H1146.58C1144.36 33.2634 1140.28 33.4488 1134.35 33.8196C1128.41 33.8196 1122.85 34.1904 1117.66 34.9321C1112.47 35.6737 1109.5 36.9715 1108.76 38.8256C1107.65 42.5337 1106.91 47.3542 1106.54 53.2872C1106.54 59.2202 1106.54 65.3386 1106.54 71.6424C1106.54 74.2381 1106.54 76.2776 1106.54 77.7608V178.992C1106.54 180.476 1108.95 181.403 1113.77 181.774C1118.59 182.144 1123.96 182.33 1129.9 182.33H1158.26C1171.24 182.33 1181.25 181.959 1188.3 181.217C1195.72 180.476 1201.09 178.807 1204.43 176.211C1207.77 173.616 1210.36 169.722 1212.22 164.531C1214.07 159.339 1216.11 152.294 1218.34 143.395C1218.71 140.799 1221.3 139.501 1226.12 139.501C1230.57 139.501 1233.72 140.428 1235.58 142.282V244.626C1234.1 246.109 1231.13 246.851 1226.68 246.851C1222.23 246.851 1219.45 245.553 1218.34 242.957C1215.74 232.575 1213.52 225.159 1211.66 220.709C1210.18 215.888 1208.69 212.736 1207.21 211.253C1206.1 209.399 1204.62 207.916 1202.76 206.803C1200.91 205.32 1196.64 204.393 1189.97 204.022C1183.29 203.281 1175.88 202.91 1167.72 202.91C1159.93 202.539 1152.52 202.354 1145.47 202.354C1140.65 202.354 1135.09 202.539 1128.78 202.91C1122.85 202.91 1117.66 203.281 1113.21 204.022C1108.76 204.393 1106.54 205.505 1106.54 207.36V310.816C1106.54 311.558 1106.54 312.67 1106.54 314.153C1106.54 319.345 1106.54 326.019 1106.54 334.177C1106.91 342.335 1107.83 346.97 1109.32 348.083C1113.03 350.678 1117.48 352.347 1122.67 353.089C1128.23 353.459 1136.76 353.645 1148.25 353.645H1174.39C1187.37 353.645 1200.17 352.347 1212.77 349.751C1225.38 347.156 1235.39 343.447 1242.81 338.627C1251.34 333.436 1258.01 326.019 1262.83 316.378C1267.65 306.366 1272.29 295.613 1276.74 284.118C1277.48 281.893 1280.08 280.78 1284.53 280.78C1291.2 280.78 1295.65 281.893 1297.88 284.118C1292.68 298.95 1286.94 314.71 1280.63 331.396C1274.7 348.083 1270.81 362.359 1268.95 374.225C1239.66 374.225 1210.55 373.854 1181.63 373.112C1152.7 372.371 1120.07 372 1083.73 372C1071.12 372 1059.81 372.185 1049.8 372.556C1039.79 373.298 1029.41 373.669 1018.65 373.669C1017.17 372.185 1016.43 369.59 1016.43 365.882C1016.8 362.173 1017.54 359.578 1018.65 358.095C1020.88 358.095 1024.96 357.909 1030.89 357.538C1036.82 356.797 1042.39 355.684 1047.58 354.201C1053.14 352.718 1056.11 351.049 1056.48 349.195C1057.96 344.745 1058.7 338.998 1058.7 331.952C1059.07 324.907 1059.26 317.305 1059.26 309.147V77.2046C1059.26 69.0467 1059.07 61.4451 1058.7 54.3997C1058.7 46.9834 1057.96 41.0504 1056.48 36.6007C1056.11 34.3758 1053.14 32.7072 1047.58 31.5947C1042.39 30.4823 1036.82 29.7407 1030.89 29.3699C1024.96 28.6282 1020.88 28.2574 1018.65 28.2574C1017.54 26.7742 1016.8 24.1785 1016.43 20.4704C1016.43 16.7623 1017.17 14.1666 1018.65 12.6833C1029.78 13.0541 1040.72 13.6104 1051.47 14.352C1062.22 14.7228 1072.79 14.9082 1083.18 14.9082Z" fill="black"/>
<path d="M1575.56 276.887C1575.56 275.774 1575.56 274.662 1575.56 273.549C1575.56 272.437 1575.56 271.325 1575.56 270.212C1575.56 263.167 1575.38 256.863 1575.01 251.301C1575.01 245.368 1574.45 240.547 1573.34 236.839C1572.97 234.614 1570 232.946 1564.44 231.833C1559.25 230.35 1553.68 229.423 1547.75 229.052C1542.19 228.31 1538.3 227.94 1536.07 227.94C1534.96 226.456 1534.22 223.861 1533.85 220.153C1533.85 216.444 1534.59 213.849 1536.07 212.366C1547.2 212.736 1557.95 213.293 1568.33 214.034C1578.71 214.776 1589.1 215.147 1599.48 215.147C1610.23 215.147 1620.25 214.776 1629.52 214.034C1639.16 213.293 1649.54 212.736 1660.66 212.366C1662.15 213.849 1662.7 216.444 1662.33 220.153C1662.33 223.861 1661.78 226.456 1660.66 227.94C1658.44 227.94 1654.55 228.31 1648.98 229.052C1643.42 229.423 1638.23 230.35 1633.41 231.833C1628.59 232.946 1625.81 234.614 1625.07 236.839C1623.58 241.289 1622.66 247.036 1622.28 254.082C1622.28 261.127 1622.28 268.729 1622.28 276.887V315.266C1622.28 321.199 1623.21 325.649 1625.07 328.615C1626.92 331.582 1627.85 334.548 1627.85 337.514C1627.85 338.998 1627.29 340.296 1626.18 341.408C1625.07 342.52 1622.1 344.375 1617.28 346.97C1609.49 351.049 1600.41 355.313 1590.02 359.763C1580.01 364.213 1567.22 367.921 1551.65 370.888C1536.44 373.854 1516.79 375.337 1492.69 375.337C1465.99 375.337 1441.51 370.702 1419.27 361.432C1397.02 351.791 1377.73 338.812 1361.42 322.497C1345.47 305.81 1333.05 286.899 1324.15 265.762C1315.62 244.255 1311.36 221.45 1311.36 197.348C1311.36 171.762 1315.81 147.844 1324.71 125.596C1333.98 102.976 1346.77 82.9522 1363.09 65.524C1379.4 48.0959 1398.69 34.5612 1420.93 24.9201C1443.55 14.9082 1468.21 9.90225 1494.91 9.90225C1512.71 9.90225 1531.25 10.6439 1550.53 12.1271C1570.19 13.6104 1590.02 16.5769 1610.05 21.0266C1610.05 21.0266 1610.6 24.9201 1611.72 32.7072C1613.2 40.1234 1614.68 49.0229 1616.17 59.4056C1617.65 69.4175 1618.95 78.6878 1620.06 87.2165C1621.54 95.3744 1622.28 100.195 1622.28 101.678C1622.66 103.161 1621.54 104.645 1618.95 106.128C1616.35 107.611 1613.57 108.353 1610.6 108.353C1608.01 108.353 1605.78 107.797 1603.93 106.684C1603.19 102.605 1601.33 96.3014 1598.37 87.7727C1595.77 79.244 1590.77 70.3446 1583.35 61.0743C1576.3 51.804 1565.92 44.0169 1552.2 37.7131C1538.48 31.0385 1520.31 27.7012 1497.69 27.7012C1477.67 27.7012 1459.5 32.3364 1443.18 41.6067C1426.87 50.5061 1412.78 62.7429 1400.91 78.317C1389.41 93.5203 1380.52 110.578 1374.21 129.489C1368.28 148.03 1365.31 166.756 1365.31 185.667C1365.31 206.803 1368.09 227.569 1373.66 247.963C1379.59 268.358 1388.3 286.899 1399.8 303.585C1411.66 319.901 1426.31 333.065 1443.74 343.077C1461.54 352.718 1482.3 357.538 1506.04 357.538C1520.13 357.538 1532.55 355.684 1543.3 351.976C1554.43 347.897 1564.07 343.818 1572.23 339.739C1574.08 338.998 1575.01 338.071 1575.01 336.958C1575.38 335.475 1575.56 333.806 1575.56 331.952V276.887Z" fill="black"/>
<path d="M1696.97 296.354C1696.97 296.354 1698.63 291.905 1701.97 283.005C1705.68 273.735 1710.5 261.313 1716.43 245.739C1722.37 230.164 1729.04 212.922 1736.46 194.01C1744.24 174.728 1752.03 155.075 1759.82 135.051C1767.61 114.657 1775.02 95.189 1782.07 76.6484C1789.48 58.1078 1795.97 41.7921 1801.53 27.7012C1803.02 24.7347 1806.17 21.3974 1810.99 17.6893C1816.18 13.9812 1820.08 12.1271 1822.67 12.1271C1823.41 12.1271 1823.78 12.3125 1823.78 12.6833C1824.15 12.6833 1824.71 12.8687 1825.45 13.2395L1936.14 303.585C1944.3 325.092 1948.93 336.958 1950.04 339.183C1951.9 343.262 1955.42 346.785 1960.61 349.751C1966.17 352.718 1971.55 354.943 1976.74 356.426C1982.31 357.538 1985.83 358.095 1987.31 358.095C1988.79 359.949 1989.35 362.915 1988.98 366.994C1988.61 370.702 1988.24 372.927 1987.87 373.669C1977.11 372.927 1967.47 372.371 1958.94 372C1950.42 371.258 1940.22 370.888 1928.35 370.888C1915.74 370.888 1905.18 371.258 1896.65 372C1888.49 372.371 1878.11 372.927 1865.5 373.669C1864.02 372.185 1863.27 369.59 1863.27 365.882C1863.65 362.173 1864.57 359.578 1866.06 358.095C1869.39 358.095 1874.58 357.538 1881.63 356.426C1888.68 354.943 1893.5 353.089 1896.09 350.864C1897.57 349.38 1898.32 346.785 1898.32 343.077C1898.32 339.739 1897.02 334.177 1894.42 326.39C1892.2 318.232 1889.23 309.147 1885.52 299.135C1881.82 289.124 1878.11 279.482 1874.4 270.212C1870.69 260.571 1867.54 252.784 1864.94 246.851C1862.72 240.547 1861.61 237.395 1861.61 237.395C1861.61 237.395 1861.24 237.024 1860.49 236.283C1859.75 235.541 1859.01 235.17 1858.27 235.17C1852.71 234.8 1845.85 234.614 1837.69 234.614C1829.53 234.614 1821.93 234.614 1814.88 234.614C1813.03 234.614 1811.18 234.614 1809.32 234.614C1807.47 234.614 1805.8 234.614 1804.32 234.614C1793.19 234.614 1783.74 234.8 1775.95 235.17C1768.16 235.17 1758.15 235.541 1745.91 236.283C1745.54 236.283 1744.99 236.654 1744.24 237.395C1743.5 237.766 1743.13 237.952 1743.13 237.952C1743.13 237.952 1741.65 241.66 1738.68 249.076C1736.09 256.492 1732.75 265.392 1728.67 275.774C1724.96 285.786 1721.62 295.242 1718.66 304.141C1715.32 313.412 1713.1 321.199 1711.98 327.503C1711.24 333.806 1710.87 338.812 1710.87 342.52C1710.87 346.599 1713.65 349.937 1719.21 352.532C1725.15 354.757 1731.08 356.24 1737.01 356.982C1743.32 357.724 1747.21 358.095 1748.69 358.095C1749.44 358.836 1749.99 361.246 1750.36 365.325C1750.73 369.033 1750.55 371.815 1749.81 373.669C1742.76 373.298 1736.64 372.927 1731.45 372.556C1726.63 372.185 1721.62 371.815 1716.43 371.444C1711.61 371.073 1705.12 370.888 1696.97 370.888C1688.81 370.888 1681.95 371.073 1676.39 371.444C1670.82 371.815 1665.26 372.185 1659.7 372.556C1654.14 372.927 1647.09 373.298 1638.56 373.669C1637.82 372.927 1637.45 370.702 1637.45 366.994C1637.45 362.915 1637.82 359.949 1638.56 358.095C1641.9 358.095 1647.46 357.353 1655.25 355.87C1663.41 354.016 1668.78 351.235 1671.38 347.526C1676.94 340.481 1681.58 332.694 1685.29 324.165C1689.36 315.266 1693.26 305.995 1696.97 296.354ZM1803.2 77.7608L1753.7 210.141C1753.7 210.141 1753.7 210.511 1753.7 211.253C1754.07 211.995 1754.44 212.366 1754.81 212.366C1761.86 212.736 1770.2 213.107 1779.84 213.478C1789.85 213.478 1797.83 213.478 1803.76 213.478C1812.29 213.478 1819.89 213.293 1826.56 212.922C1833.61 212.551 1841.21 212.18 1849.37 211.809C1850.11 211.809 1850.48 211.438 1850.48 210.697C1850.85 209.584 1851.04 209.028 1851.04 209.028L1803.2 77.7608Z" fill="black"/>
<path d="M2125.42 14.352C2165.1 14.352 2199.21 22.139 2227.77 37.7131C2256.32 52.9164 2278.2 73.8673 2293.4 100.566C2308.6 126.893 2316.21 156.929 2316.21 190.673C2316.21 213.663 2313.05 236.097 2306.75 257.975C2300.45 279.853 2289.69 299.506 2274.49 316.934C2259.66 334.363 2239.45 348.268 2213.86 358.651C2188.28 368.663 2156.39 373.669 2118.19 373.669H1982.47C1980.99 372.185 1980.25 369.59 1980.25 365.882C1980.62 362.173 1981.36 359.578 1982.47 358.095C1984.7 358.095 1988.78 357.909 1994.71 357.538C2000.64 356.797 2006.21 355.684 2011.4 354.201C2016.96 352.718 2019.93 351.049 2020.3 349.195C2021.78 344.745 2022.52 338.998 2022.52 331.952C2022.89 324.907 2023.08 317.305 2023.08 309.147V77.2046C2023.08 69.0467 2022.89 61.4451 2022.52 54.3997C2022.52 46.9834 2021.78 41.0504 2020.3 36.6007C2019.93 34.3758 2016.96 32.7072 2011.4 31.5947C2006.21 30.4823 2000.64 29.7407 1994.71 29.3699C1988.78 28.6282 1984.7 28.2574 1982.47 28.2574C1981.36 26.7742 1980.62 24.1785 1980.25 20.4704C1980.25 16.7623 1980.99 14.1666 1982.47 12.6833C1993.6 13.0541 2004.54 13.6104 2015.29 14.352C2026.05 14.7228 2036.61 14.9082 2047 14.9082C2057.75 14.9082 2070.54 14.9082 2085.38 14.9082C2100.21 14.5374 2113.56 14.352 2125.42 14.352ZM2070.91 78.317V309.704C2070.91 312.299 2070.91 316.564 2070.91 322.497C2070.91 328.059 2071.1 333.621 2071.47 339.183C2072.21 344.375 2072.95 347.526 2073.69 348.639C2075.92 351.605 2081.3 353.645 2089.82 354.757C2098.72 355.87 2108.18 356.426 2118.19 356.426C2144.15 356.426 2167.88 350.864 2189.39 339.739C2211.27 328.615 2228.88 311.743 2242.23 289.124C2255.58 266.133 2262.25 237.024 2262.25 201.797C2262.25 171.02 2257.99 144.878 2249.46 123.371C2241.3 101.864 2229.99 84.4354 2215.53 71.0862C2201.44 57.3662 2185.31 47.5397 2167.14 41.6067C2149.34 35.3029 2130.61 32.151 2110.96 32.151C2108.74 32.151 2104.66 32.3364 2098.72 32.7072C2092.79 32.7072 2087.23 33.078 2082.04 33.8196C2076.85 34.5612 2073.88 35.8591 2073.14 37.7131C2072.03 41.4213 2071.28 46.4272 2070.91 52.731C2070.91 58.664 2070.91 64.9678 2070.91 71.6424C2070.91 72.7549 2070.91 73.8673 2070.91 74.9797C2070.91 76.0922 2070.91 77.2046 2070.91 78.317Z" fill="black"/>
<path d="M2399.96 14.9082C2425.54 14.9082 2453.72 14.352 2484.5 13.2395C2515.28 12.1271 2545.31 11.5709 2574.61 11.5709C2576.46 25.291 2578.87 37.8985 2581.84 49.3937C2584.81 60.8889 2587.59 72.7549 2590.18 84.9916C2588.33 86.8457 2585.18 87.7727 2580.73 87.7727C2575.91 87.7727 2573.31 86.4749 2572.94 83.8792C2567.01 62.0013 2558.66 48.0959 2547.91 42.1629C2537.16 36.2299 2524.55 33.2634 2510.09 33.2634H2463.36C2461.14 33.2634 2457.06 33.4488 2451.13 33.8196C2445.19 33.8196 2439.63 34.1904 2434.44 34.9321C2429.25 35.6737 2426.28 36.9715 2425.54 38.8256C2424.43 42.5337 2423.69 47.3542 2423.32 53.2872V71.6424V77.7608V178.992V207.36V310.816V314.153V334.177C2423.69 342.335 2424.61 346.97 2426.1 348.083C2429.81 350.678 2434.26 352.347 2439.45 353.089C2445.01 353.459 2453.54 353.645 2465.03 353.645H2491.18C2504.15 353.645 2516.95 352.347 2529.55 349.751C2542.16 347.156 2552.17 343.447 2559.59 338.627C2568.12 333.436 2574.79 326.019 2579.61 316.378C2584.43 306.366 2589.07 295.613 2593.52 284.118C2594.26 281.893 2596.86 280.78 2601.31 280.78C2607.98 280.78 2612.43 281.893 2614.66 284.118C2609.46 298.95 2603.72 314.71 2597.41 331.396C2591.48 348.083 2587.59 362.359 2585.73 374.225C2556.44 374.225 2527.33 373.854 2498.41 373.112C2469.48 372.371 2436.85 372 2400.51 372C2387.9 372 2376.59 372.185 2366.58 372.556C2356.57 373.298 2346.19 373.669 2335.43 373.669C2333.95 372.185 2333.21 369.59 2333.21 365.882C2333.58 362.173 2334.32 359.578 2335.43 358.095C2337.66 358.095 2341.74 357.909 2347.67 357.538C2353.6 356.797 2359.17 355.684 2364.36 354.201C2369.92 352.718 2372.89 351.049 2373.26 349.195C2374.74 344.745 2375.48 338.998 2375.48 331.952C2375.85 324.907 2376.04 317.305 2376.04 309.147V77.2046C2376.04 69.0467 2375.85 61.4451 2375.48 54.3997C2375.48 46.9834 2374.74 41.0504 2373.26 36.6007C2372.89 34.3758 2369.92 32.7072 2364.36 31.5947C2359.17 30.4823 2353.6 29.7407 2347.67 29.3699C2341.74 28.6282 2337.66 28.2574 2335.43 28.2574C2334.32 26.7742 2333.58 24.1785 2333.21 20.4704C2333.21 16.7623 2333.95 14.1666 2335.43 12.6833C2346.56 13.0541 2357.5 13.6104 2368.25 14.352C2379 14.7228 2389.57 14.9082 2399.96 14.9082Z" fill="black"/>
<path d="M139.268 63.6646H2539.82V332.648H139.268V63.6646Z" fill="black"/>
</svg>
