<svg width="966" height="384" viewBox="0 0 966 384" fill="none" xmlns="http://www.w3.org/2000/svg">
<path d="M118.092 22.9082C173.168 22.9082 201.768 57.3245 201.768 103.398C201.768 111.566 200.554 119.228 198.708 126.586H258.538C260.662 119.025 262.129 111.187 262.129 102.867C262.129 46.7292 222.959 5.96582 132.911 5.96582H0.000228882V6.49676C18.0048 33.5037 20.6604 48.8533 20.6604 103.398V279.221C20.6604 333.766 18.0048 349.115 0.000228882 376.122V376.653H98.4944V376.122C80.4898 349.115 77.8348 333.766 77.8348 279.221V22.9082H118.092Z" fill="black"/>
<path d="M260.03 317.329L230.368 261.722C226.65 254.844 222.908 248.826 219.14 243.161H154.379C159.563 251.026 164.772 259.75 169.981 270.193L225.588 376.628H304.485V376.097C283.825 359.154 277.478 349.621 260.004 317.303L260.03 317.329Z" fill="black"/>
<path d="M578.967 6.53094C596.441 33.5378 599.627 48.8874 599.627 103.432V126.697H618.694V103.432C618.694 48.8874 621.349 33.5378 638.822 6.53094V6H578.993V6.53094H578.967Z" fill="black"/>
<path d="M320 6V6.53094C338.005 33.5378 340.66 48.8874 340.66 103.432V126.671H359.727V75.894L400.136 126.671H476.731L379.855 6H320V6Z" fill="black"/>
<path d="M359.727 243.271H340.66V279.255C340.66 333.8 338.005 349.149 320 376.156V376.687H379.855V376.156C362.382 349.149 359.727 333.8 359.727 279.255V243.271Z" fill="black"/>
<path d="M599.629 279.786L570.321 243.271H492.916L599.072 376.687H618.67V243.296L599.629 243.271V279.786Z" fill="black"/>
<path d="M837.173 17.4733C883.778 17.4733 918.725 38.6646 949.449 80.4899H951.042L945.757 16.4115C914.502 6.37239 884.865 0 836.642 0C744.015 0 678.167 53.5333 653.334 127.069H714.706C731.219 62.4092 773.626 17.448 837.199 17.448L837.173 17.4733Z" fill="black"/>
<path d="M908.89 243.846L890.632 243.719V244.251C908.106 271.258 911.292 286.076 911.292 341.152V351.09C893.287 361.154 872.122 365.933 844.053 365.933C775.676 365.933 727.503 316.395 712.154 243.669H648C666.688 324.082 732.055 383.407 836.113 383.407C901.784 383.407 940.423 364.871 965.331 350.558V243.694H908.89C908.89 243.694 908.89 243.795 908.89 243.821V243.846Z" fill="black"/>
</svg>
