<svg width="1000" height="545" viewBox="0 0 1000 545" fill="none" xmlns="http://www.w3.org/2000/svg">
<g clip-path="url(#clip0_171_8)">
<path d="M197.461 106.048C205.944 106.048 213.98 108.057 221.57 112.075C229.159 115.647 234.517 120.112 237.642 125.469C238.535 127.255 239.204 129.71 239.651 132.835C240.097 135.961 240.321 139.309 240.321 142.881C240.321 154.935 237.419 163.64 231.615 168.998C226.257 174.355 221.793 177.034 218.221 177.034C213.757 177.034 209.516 175.471 205.497 172.346C201.479 169.221 197.685 166.542 194.113 164.31C190.988 162.078 187.639 160.292 184.068 158.953C180.943 157.167 176.255 156.274 170.005 156.274C160.629 156.274 151.923 160.292 143.887 168.328C136.298 175.918 130.047 184.4 125.136 193.776C120.225 203.151 117.77 210.295 117.77 215.206V316.327C117.77 326.149 117.77 335.301 117.77 343.783C118.216 352.266 119.332 359.186 121.118 364.543C122.011 366.776 126.476 368.785 134.512 370.57C142.548 372.356 151.03 373.696 159.959 374.588C168.889 375.035 174.692 375.258 177.371 375.258C178.71 377.044 179.38 380.169 179.38 384.634C179.827 389.098 179.157 392.223 177.371 394.009C163.978 393.116 150.361 392.446 136.521 392C122.681 391.107 109.287 390.661 96.3403 390.661C83.8397 390.661 71.7855 391.107 60.1778 392C48.57 392.446 36.0694 393.116 22.6759 394.009C20.8901 392.223 19.9972 389.098 19.9972 384.634C20.4437 380.169 21.3366 377.044 22.6759 375.258C25.3546 375.258 29.8191 375.035 36.0694 374.588C42.7662 373.696 49.0165 372.356 54.8204 370.57C60.6242 368.785 63.7494 366.776 64.1958 364.543C65.9816 359.186 66.8745 352.266 66.8745 343.783C67.321 335.301 67.5442 326.149 67.5442 316.327V194.446C67.5442 189.981 67.321 184.177 66.8745 177.034C66.8745 169.891 65.9816 164.31 64.1958 160.292C62.8565 156.274 59.0616 153.595 52.8113 152.256C46.561 150.47 40.3107 149.577 34.0604 149.577C27.8101 149.131 23.792 148.908 22.0062 148.908C21.5598 148.015 21.1133 145.336 20.6669 140.871C20.2204 136.407 20.6669 133.282 22.0062 131.496C38.9714 129.264 55.49 125.915 71.5623 121.451C87.6345 116.986 102.144 111.183 115.091 104.039C116.877 104.039 118.44 105.379 119.779 108.057C121.565 110.736 122.458 112.968 122.458 114.754C122.458 116.093 122.011 121.228 121.118 130.157C120.225 139.086 119.332 148.238 118.44 157.613C117.993 166.542 117.77 172.346 117.77 175.025C117.77 176.364 117.993 177.034 118.44 177.034C119.332 177.034 120.002 176.811 120.449 176.364C124.913 166.989 131.163 156.944 139.2 146.229C147.682 135.068 157.058 125.692 167.326 118.102C177.594 110.066 187.639 106.048 197.461 106.048ZM427.176 105.379C450.838 105.379 468.696 110.29 480.75 120.112C492.804 129.933 500.84 145.113 504.858 165.649C509.323 186.186 511.555 212.304 511.555 244.002V316.327C511.555 326.149 511.555 335.301 511.555 343.783C512.002 352.266 513.118 359.186 514.903 364.543C515.796 366.776 518.922 368.785 524.279 370.57C530.083 372.356 536.11 373.696 542.36 374.588C548.611 375.035 553.075 375.258 555.754 375.258C557.093 377.044 557.763 380.169 557.763 384.634C558.209 389.098 557.54 392.223 555.754 394.009C542.36 393.116 530.529 392.446 520.261 392C510.439 391.107 499.054 390.661 486.107 390.661C473.607 390.661 462.222 391.107 451.954 392C441.686 392.446 429.855 393.116 416.461 394.009C414.675 392.223 413.782 389.098 413.782 384.634C414.229 380.169 415.122 377.044 416.461 375.258C419.14 375.258 423.604 375.035 429.855 374.588C436.551 373.696 442.802 372.356 448.606 370.57C454.409 368.785 457.535 366.776 457.981 364.543C459.767 359.186 460.66 352.266 460.66 343.783C461.106 335.301 461.329 326.149 461.329 316.327L461.329 250.698C461.329 223.465 459.544 202.258 455.972 187.079C452.4 171.453 445.927 160.292 436.551 153.595C427.176 146.899 414.006 143.55 397.041 143.55C389.004 143.55 380.075 146.229 370.253 151.586C360.878 156.497 352.619 161.855 345.475 167.659C338.332 173.462 334.761 177.48 334.761 179.713L334.761 316.327C334.761 326.149 334.761 335.301 334.761 343.783C335.207 352.266 336.323 359.186 338.109 364.543C339.002 366.776 342.127 368.785 347.484 370.57C353.288 372.356 359.315 373.696 365.566 374.588C371.816 375.035 376.281 375.258 378.959 375.258C380.299 377.044 380.968 380.169 380.968 384.634C381.415 389.098 380.745 392.223 378.959 394.009C365.566 393.116 353.735 392.446 343.466 392C333.645 391.107 322.26 390.661 309.313 390.661C296.812 390.661 285.428 391.107 275.159 392C264.891 392.446 253.06 393.116 239.667 394.009C237.881 392.223 236.988 389.098 236.988 384.634C237.434 380.169 238.327 377.044 239.667 375.258C242.345 375.258 246.81 375.035 253.06 374.588C259.757 373.696 266.007 372.356 271.811 370.57C277.615 368.785 280.74 366.776 281.187 364.543C282.972 359.186 283.865 352.266 283.865 343.783C284.312 335.301 284.535 326.149 284.535 316.327L284.535 197.124C284.535 192.66 284.312 186.409 283.865 178.373C283.865 170.337 282.972 164.31 281.187 160.292C279.847 156.274 276.052 153.595 269.802 152.256C263.552 150.47 257.301 149.577 251.051 149.577C244.801 149.131 240.783 148.908 238.997 148.908C238.551 148.015 238.104 145.336 237.658 140.871C237.211 136.407 237.658 133.282 238.997 131.496C255.962 129.264 272.481 125.915 288.553 121.451C304.625 116.986 319.135 111.183 332.082 104.039C333.868 104.039 335.43 105.379 336.77 108.057C338.555 110.736 339.448 112.968 339.448 114.754C339.448 116.093 339.002 119.665 338.109 125.469C337.663 130.826 336.993 136.184 336.1 141.541C335.654 146.899 335.43 150.47 335.43 152.256C335.43 154.042 335.877 154.935 336.77 154.935C337.216 154.935 337.886 154.488 338.779 153.595C343.243 148.684 350.386 142.434 360.208 134.844C370.477 127.255 381.638 120.558 393.692 114.754C405.746 108.504 416.908 105.379 427.176 105.379ZM726.893 348.471C744.304 348.471 760.6 351.596 775.779 357.847C791.405 364.097 803.905 372.356 813.281 382.625C823.103 392.893 828.014 404.277 828.014 416.778C828.014 430.172 823.326 444.012 813.95 458.298C805.021 472.584 792.744 485.978 777.118 498.478C761.493 510.979 743.411 521.024 722.875 528.614C702.338 536.65 680.685 540.668 657.916 540.668C640.504 540.668 623.093 537.766 605.681 531.962C588.27 526.158 573.76 517.229 562.152 505.175C550.545 493.568 544.741 478.835 544.741 460.977C544.741 451.155 548.982 441.779 557.465 432.85C565.947 423.921 575.769 415.885 586.93 408.742C598.092 401.599 607.244 396.241 614.387 392.67C606.797 389.991 598.761 385.973 590.279 380.616C582.243 375.258 575.323 368.561 569.519 360.525C563.715 352.043 560.813 342.444 560.813 331.729C564.831 327.265 570.412 322.13 577.555 316.327C585.144 310.076 592.511 304.272 599.654 298.915C607.244 293.558 613.048 289.763 617.066 287.531C600.993 278.602 587.823 266.547 577.555 251.368C567.733 235.742 562.822 219.893 562.822 203.821C562.822 186.409 567.51 170.337 576.885 155.604C586.707 140.425 599.877 128.148 616.396 118.772C633.361 109.397 652.335 104.709 673.318 104.709C687.605 104.709 699.659 106.718 709.481 110.736C719.303 114.308 727.116 117.21 732.92 119.442C739.17 121.674 742.295 122.79 742.295 122.79C742.742 122.79 744.527 123.237 747.653 124.13L817.969 114.084C821.987 115.424 823.996 117.656 823.996 120.781C823.996 123.46 822.433 128.148 819.308 134.844C816.183 141.095 812.834 145.336 809.263 147.568C803.905 147.122 797.878 146.899 791.181 146.899C784.485 146.452 778.681 146.006 773.77 145.559C768.859 145.113 766.403 144.89 766.403 144.89C764.618 144.89 763.725 145.559 763.725 146.899C765.511 148.684 768.859 155.381 773.77 166.989C779.127 178.15 781.806 191.32 781.806 206.5C781.806 221.679 776.895 236.635 767.073 251.368C757.698 266.101 744.527 278.378 727.562 288.2C711.044 297.576 692.293 302.263 671.309 302.263C665.506 302.263 658.809 301.594 651.219 300.254C643.63 298.915 638.049 297.576 634.477 296.236C628.673 299.361 623.093 303.603 617.735 308.96C612.824 314.318 610.369 319.675 610.369 325.032C610.369 328.158 613.717 332.845 620.414 339.096C627.111 345.346 636.933 348.471 649.88 348.471H726.893ZM696.757 394.679C692.739 394.679 686.042 394.679 676.667 394.679C667.738 395.125 659.032 395.572 650.55 396.018C642.513 396.465 637.602 397.134 635.817 398.027C628.673 402.492 620.414 408.742 611.039 416.778C601.663 424.814 596.975 433.073 596.975 441.556C596.975 462.539 604.565 479.951 619.744 493.791C634.924 508.077 656.353 515.22 684.033 515.22C699.213 515.22 714.392 511.872 729.571 505.175C744.751 498.478 757.474 489.773 767.743 479.058C778.011 468.343 783.145 456.959 783.145 444.904C783.145 438.654 780.243 431.511 774.44 423.475C768.636 415.885 759.483 409.188 746.983 403.384C734.482 397.581 717.74 394.679 696.757 394.679ZM670.64 124.799C658.139 124.799 647.648 128.594 639.165 136.184C630.682 143.773 624.209 153.372 619.744 164.98C615.28 176.588 613.048 188.642 613.048 201.142C613.048 214.536 615.503 227.483 620.414 239.984C625.325 252.484 632.468 262.753 641.844 270.789C651.219 278.825 662.604 282.843 675.997 282.843C688.051 282.843 698.096 279.271 706.133 272.128C714.615 264.538 720.865 255.163 724.884 244.002C729.348 232.394 731.58 220.563 731.58 208.509C731.58 194.669 729.348 181.498 724.884 168.998C720.419 156.051 713.722 145.559 704.793 137.523C695.864 129.041 684.48 124.799 670.64 124.799Z" fill="white"/>
<path d="M866.064 391.854H1000V525.79H866.064V391.854Z" fill="white"/>
</g>
<defs>
<clipPath id="clip0_171_8">
<rect width="1000" height="545" fill="white"/>
</clipPath>
</defs>
</svg>
