<svg width="3101" height="2406" viewBox="0 0 3101 2406" fill="none" xmlns="http://www.w3.org/2000/svg">
<rect x="645.828" y="127.431" width="1809.89" height="968.266" rx="25.9388" fill="#9C3737" stroke="white" stroke-width="19.0563"/>
<path d="M1485.33 442.492H1464.2V354.021H1421.04V335.347H1528.49V354.021H1485.33V442.492ZM1526.9 442.492V365.96H1546.49V380.501C1548.23 375.501 1550.68 371.827 1553.84 369.481C1557 367.134 1561.39 365.96 1567 365.96H1580.32V384.175H1565.93C1559.91 384.175 1555.27 385.858 1552 389.226C1548.84 392.593 1547.26 397.542 1547.26 404.073V442.492H1526.9ZM1625.54 444.023C1615.03 444.023 1607.07 441.37 1601.66 436.063C1596.35 430.655 1593.7 423.206 1593.7 413.716V365.96H1614.06V410.196C1614.06 416.012 1615.23 420.4 1617.58 423.359C1620.03 426.216 1623.8 427.645 1628.9 427.645H1631.05C1634.82 427.645 1638.29 426.727 1641.46 424.89C1644.72 423.053 1647.32 420.451 1649.26 417.084C1651.2 413.716 1652.17 409.787 1652.17 405.298V365.96H1672.53V442.492H1652.17V430.094C1650.03 434.176 1646.56 437.543 1641.76 440.196C1637.07 442.747 1631.66 444.023 1625.54 444.023ZM1726.92 444.023C1714.98 444.023 1705.69 441.676 1699.06 436.982C1692.53 432.186 1689.01 425.604 1688.5 417.237H1709.16C1709.47 420.706 1711.15 423.308 1714.21 425.043C1717.38 426.778 1721.25 427.645 1725.85 427.645H1727.99C1738.19 427.645 1743.3 425.553 1743.3 421.369C1743.3 419.737 1742.48 418.41 1740.85 417.39C1739.21 416.369 1736.31 415.451 1732.12 414.634L1719.42 412.185C1710.44 410.349 1703.65 407.645 1699.06 404.073C1694.47 400.4 1692.17 395.144 1692.17 388.307C1692.17 380.858 1695.44 375.042 1701.97 370.858C1708.6 366.572 1716.92 364.429 1726.92 364.429C1739.16 364.429 1748.45 366.827 1754.78 371.623C1761.2 376.317 1764.73 382.848 1765.34 391.216H1744.67C1744.37 388.154 1742.73 385.654 1739.78 383.715C1736.92 381.777 1732.99 380.807 1727.99 380.807H1725.85C1721.66 380.807 1718.4 381.369 1716.05 382.491C1713.81 383.511 1712.68 384.94 1712.68 386.777C1712.68 388.409 1713.45 389.685 1714.98 390.603C1716.51 391.522 1719.52 392.44 1724.01 393.359L1735.95 395.655C1745.03 397.389 1751.92 400.195 1756.61 404.073C1761.41 407.849 1763.81 413.257 1763.81 420.298C1763.81 427.645 1760.64 433.461 1754.32 437.747C1747.99 441.931 1738.86 444.023 1726.92 444.023ZM1810.85 442.492C1804.11 442.492 1799.17 441.064 1796 438.206C1792.84 435.349 1791.26 431.165 1791.26 425.655V382.338H1772.74V365.96H1791.26V341.164H1811.61V365.96H1835.19V382.338H1811.61V419.533C1811.61 421.777 1812.07 423.359 1812.99 424.278C1813.91 425.196 1815.49 425.655 1817.74 425.655H1838.55V442.492H1810.85ZM1931.29 410.655H1869.3C1870.52 416.165 1873.07 420.4 1876.95 423.359C1880.93 426.216 1885.47 427.645 1890.57 427.645H1892.71C1897 427.645 1900.62 426.829 1903.58 425.196C1906.64 423.563 1908.68 421.267 1909.7 418.308H1930.37C1928.94 426.165 1924.7 432.441 1917.66 437.135C1910.62 441.727 1902.05 444.023 1891.95 444.023C1883.48 444.023 1875.93 442.492 1869.3 439.431C1862.76 436.37 1857.56 431.829 1853.68 425.808C1849.91 419.686 1848.02 412.287 1848.02 403.614C1848.02 395.348 1850.06 388.256 1854.14 382.338C1858.22 376.419 1863.58 371.981 1870.21 369.021C1876.85 365.96 1883.84 364.429 1891.18 364.429C1899.45 364.429 1906.59 366.011 1912.61 369.174C1918.63 372.236 1923.23 376.675 1926.39 382.491C1929.65 388.205 1931.29 394.889 1931.29 402.542V410.655ZM1910.01 395.042C1909.7 390.144 1907.87 386.573 1904.5 384.328C1901.24 381.981 1897.1 380.807 1892.1 380.807H1889.96C1884.65 380.807 1880.27 382.083 1876.8 384.634C1873.33 387.083 1870.93 390.552 1869.6 395.042H1910.01ZM1984.24 444.023C1976.79 444.023 1970 442.441 1963.88 439.278C1957.76 436.012 1952.91 431.37 1949.34 425.349C1945.87 419.328 1944.13 412.287 1944.13 404.226C1944.13 395.757 1945.87 388.563 1949.34 382.644C1952.91 376.624 1957.7 372.083 1963.73 369.021C1969.75 365.96 1976.48 364.429 1983.93 364.429C1990.77 364.429 1996.58 365.501 2001.38 367.644C2006.28 369.787 2010.05 372.593 2012.71 376.062V335.347H2033.06V442.492H2012.71V432.849C2009.95 436.319 2006.07 439.074 2001.07 441.115C1996.18 443.053 1990.56 444.023 1984.24 444.023ZM1989.13 427.645C1996.07 427.645 2001.74 425.604 2006.12 421.522C2010.51 417.339 2012.71 411.573 2012.71 404.226C2012.71 396.879 2010.51 391.165 2006.12 387.083C2001.74 382.899 1996.07 380.807 1989.13 380.807H1986.99C1980.36 380.807 1974.95 382.848 1970.77 386.93C1966.68 391.012 1964.64 396.777 1964.64 404.226C1964.64 411.573 1966.68 417.339 1970.77 421.522C1974.95 425.604 1980.36 427.645 1986.99 427.645H1989.13ZM1378.43 549.726V576.818H1453.59V595.492H1357.31V488.347H1452.06V507.021H1378.43V531.052H1442.87V549.726H1378.43ZM1505.02 572.379L1529.2 518.96H1550.63L1515.43 595.492H1494.3L1459.4 518.96H1481.29L1505.02 572.379ZM1586.72 597.023C1576.72 597.023 1568.92 594.931 1563.3 590.747C1557.69 586.563 1554.88 581.104 1554.88 574.369C1554.88 566.104 1557.74 559.93 1563.46 555.849C1569.27 551.767 1577.03 549.42 1586.72 548.808L1612.74 546.971V545.134C1612.74 541.46 1611.21 538.654 1608.15 536.715C1605.09 534.777 1600.8 533.807 1595.29 533.807H1592.84C1588.66 533.807 1585.19 534.624 1582.44 536.256C1579.68 537.787 1578.1 539.93 1577.69 542.685H1557.03C1557.54 537.889 1559.37 533.603 1562.54 529.828C1565.8 525.95 1570.14 522.94 1575.55 520.797C1580.96 518.552 1587.08 517.429 1593.92 517.429C1606.16 517.429 1615.6 520.083 1622.23 525.389C1628.97 530.695 1632.34 537.736 1632.34 546.512V578.655C1632.34 583.655 1632.69 589.268 1633.41 595.492H1614.58C1614.27 593.86 1614.02 591.717 1613.81 589.063C1613.61 586.41 1613.51 584.523 1613.51 583.4C1611.57 587.176 1608.2 590.39 1603.41 593.043C1598.71 595.696 1593.15 597.023 1586.72 597.023ZM1590.4 580.645C1596.31 580.645 1601.52 579.42 1606.01 576.971C1610.5 574.522 1612.74 571.002 1612.74 566.41V561.665L1591.62 563.196C1585.91 563.604 1581.77 564.624 1579.22 566.257C1576.67 567.788 1575.4 569.828 1575.4 572.379C1575.4 577.89 1579.68 580.645 1588.25 580.645H1590.4ZM1673.87 595.492H1653.51V488.347H1673.87V595.492ZM1726.73 597.023C1716.22 597.023 1708.26 594.37 1702.85 589.063C1697.55 583.655 1694.9 576.206 1694.9 566.716V518.96H1715.25V563.196C1715.25 569.012 1716.43 573.4 1718.77 576.359C1721.22 579.216 1725 580.645 1730.1 580.645H1732.24C1736.02 580.645 1739.49 579.727 1742.65 577.89C1745.92 576.053 1748.52 573.451 1750.46 570.084C1752.4 566.716 1753.37 562.787 1753.37 558.298V518.96H1773.72V595.492H1753.37V583.094C1751.22 587.176 1747.75 590.543 1742.96 593.196C1738.26 595.747 1732.86 597.023 1726.73 597.023ZM1822.3 597.023C1812.3 597.023 1804.49 594.931 1798.88 590.747C1793.27 586.563 1790.46 581.104 1790.46 574.369C1790.46 566.104 1793.32 559.93 1799.03 555.849C1804.85 551.767 1812.6 549.42 1822.3 548.808L1848.32 546.971V545.134C1848.32 541.46 1846.79 538.654 1843.73 536.715C1840.67 534.777 1836.38 533.807 1830.87 533.807H1828.42C1824.24 533.807 1820.77 534.624 1818.01 536.256C1815.26 537.787 1813.68 539.93 1813.27 542.685H1792.6C1793.11 537.889 1794.95 533.603 1798.11 529.828C1801.38 525.95 1805.72 522.94 1811.12 520.797C1816.53 518.552 1822.65 517.429 1829.49 517.429C1841.74 517.429 1851.18 520.083 1857.81 525.389C1864.54 530.695 1867.91 537.736 1867.91 546.512V578.655C1867.91 583.655 1868.27 589.268 1868.98 595.492H1850.16C1849.85 593.86 1849.59 591.717 1849.39 589.063C1849.19 586.41 1849.08 584.523 1849.08 583.4C1847.15 587.176 1843.78 590.39 1838.98 593.043C1834.29 595.696 1828.73 597.023 1822.3 597.023ZM1825.97 580.645C1831.89 580.645 1837.09 579.42 1841.58 576.971C1846.07 574.522 1848.32 571.002 1848.32 566.41V561.665L1827.2 563.196C1821.48 563.604 1817.35 564.624 1814.8 566.257C1812.25 567.788 1810.97 569.828 1810.97 572.379C1810.97 577.89 1815.26 580.645 1823.83 580.645H1825.97ZM1917.58 595.492C1910.84 595.492 1905.89 594.064 1902.73 591.206C1899.56 588.349 1897.98 584.165 1897.98 578.655V535.338H1879.46V518.96H1897.98V494.164H1918.34V518.96H1941.91V535.338H1918.34V572.533C1918.34 574.777 1918.8 576.359 1919.72 577.278C1920.64 578.196 1922.22 578.655 1924.46 578.655H1945.28V595.492H1917.58ZM1999.59 597.023C1990.82 597.023 1983.01 595.39 1976.18 592.125C1969.34 588.859 1964.03 584.216 1960.26 578.196C1956.48 572.175 1954.59 565.185 1954.59 557.226C1954.59 549.267 1956.48 542.277 1960.26 536.256C1964.03 530.236 1969.34 525.593 1976.18 522.327C1983.01 519.062 1990.82 517.429 1999.59 517.429C2008.37 517.429 2016.18 519.062 2023.01 522.327C2029.85 525.593 2035.16 530.236 2038.93 536.256C2042.71 542.277 2044.59 549.267 2044.59 557.226C2044.59 565.185 2042.71 572.175 2038.93 578.196C2035.16 584.216 2029.85 588.859 2023.01 592.125C2016.18 595.39 2008.37 597.023 1999.59 597.023ZM2000.67 580.645C2007.5 580.645 2013.11 578.553 2017.5 574.369C2021.89 570.084 2024.08 564.369 2024.08 557.226C2024.08 550.083 2021.89 544.42 2017.5 540.236C2013.11 535.95 2007.5 533.807 2000.67 533.807H1998.52C1991.69 533.807 1986.07 535.95 1981.69 540.236C1977.3 544.42 1975.1 550.083 1975.1 557.226C1975.1 564.369 1977.3 570.084 1981.69 574.369C1986.07 578.553 1991.69 580.645 1998.52 580.645H2000.67ZM2061.58 595.492V518.96H2081.17V533.501C2082.91 528.501 2085.36 524.827 2088.52 522.481C2091.68 520.134 2096.07 518.96 2101.68 518.96H2115V537.175H2100.61C2094.59 537.175 2089.95 538.858 2086.68 542.226C2083.52 545.593 2081.94 550.542 2081.94 557.073V595.492H2061.58Z" fill="white"/>
<path d="M802.852 909.709C803.131 909.709 803.549 909.848 804.107 910.127C804.665 910.406 805.432 910.615 806.408 910.755C807.385 910.894 808.221 910.964 808.919 910.964C810.732 910.964 812.405 910.057 813.939 908.244C815.473 906.431 816.589 904.409 817.286 902.178C818.681 898.412 821.052 887.743 824.399 870.171C827.746 852.599 830.954 835.863 834.022 819.965C837.09 804.066 838.624 796.047 838.624 795.907V795.28H828.792C822.237 795.28 818.751 795.14 818.332 794.861C817.775 794.443 817.496 793.746 817.496 792.769L818.96 786.912C819.239 786.215 819.797 785.866 820.634 785.866C821.47 785.866 824.748 785.796 830.466 785.657C837.16 785.657 840.507 785.587 840.507 785.448C840.507 785.169 841.135 781.682 842.39 774.988C843.645 768.294 844.482 764.249 844.9 762.855C850.06 739.843 860.241 728.338 875.442 728.338C880.603 728.617 884.856 730.151 888.203 732.94C891.55 735.729 893.224 739.425 893.224 744.027C893.224 749.048 891.76 752.674 888.831 754.905C885.902 757.137 882.973 758.322 880.045 758.462C873.908 758.462 870.84 755.533 870.84 749.675C870.84 747.026 871.607 744.724 873.141 742.772C874.675 740.819 876.349 739.355 878.162 738.379L880.045 737.333C877.813 736.496 875.721 736.078 873.769 736.078C872.095 736.078 870.491 736.775 868.957 738.17C867.423 739.564 866.377 741.517 865.819 744.027C864.843 748.072 863.728 753.511 862.472 760.344C861.217 767.178 860.101 772.966 859.125 777.707C858.149 782.449 857.661 784.959 857.661 785.238C857.661 785.517 861.496 785.657 869.167 785.657C875.442 785.657 879.068 785.726 880.045 785.866C881.021 786.005 881.788 786.424 882.346 787.121C882.485 787.679 882.346 788.864 881.927 790.677C881.509 792.49 881.16 793.606 880.881 794.024C880.603 794.722 879.975 795.07 878.999 795.07C878.022 795.07 874.257 795.14 867.702 795.28H855.987L851.176 820.801C844.482 855.388 839.81 877.005 837.16 885.651C833.394 897.506 828.513 906.292 822.516 912.01C817.356 916.473 812.266 918.704 807.245 918.704C802.782 918.704 798.738 917.379 795.112 914.729C791.486 912.08 789.673 908.314 789.673 903.433C789.673 898.273 791.137 894.507 794.066 892.136C796.995 889.766 799.923 888.58 802.852 888.58C808.988 888.58 812.057 891.509 812.057 897.366C812.057 900.016 811.29 902.317 809.755 904.27C808.221 906.222 806.548 907.687 804.735 908.663L802.852 909.709Z" fill="white"/>
<path d="M912.89 823.521C912.89 813.898 913.587 804.763 914.982 796.117C916.376 787.47 917.98 780.009 919.793 773.733C921.606 767.457 924.186 761.321 927.533 755.324C930.88 749.327 933.53 744.655 935.483 741.308C937.435 737.961 940.364 734.335 944.269 730.43C948.174 726.525 950.475 724.154 951.172 723.317C951.869 722.48 953.613 721.016 956.402 718.924H959.122H959.958C961.911 718.924 962.887 719.552 962.887 720.807C962.887 721.225 961.702 722.69 959.331 725.2C956.96 727.71 954.101 731.406 950.754 736.287C947.407 741.168 943.99 747.165 940.503 754.278C937.017 761.391 934.088 771.013 931.717 783.147C929.346 795.28 928.161 808.738 928.161 823.521C928.161 838.304 929.346 851.693 931.717 863.686C934.088 875.68 936.947 885.373 940.294 892.764C943.641 900.156 947.058 906.153 950.545 910.755C954.031 915.357 956.96 919.053 959.331 921.842C961.702 924.632 962.887 926.096 962.887 926.235C962.887 927.491 961.841 928.118 959.749 928.118H959.122H956.402L950.545 923.098C937.435 911.243 927.882 896.46 921.885 878.748C915.888 861.037 912.89 842.628 912.89 823.521Z" fill="white"/>
<path d="M1095.93 795.279C1095.93 792.351 1097.26 789.631 1099.91 787.121C1102.56 784.61 1105.48 783.286 1108.69 783.146C1111.2 783.146 1113.5 784.401 1115.6 786.912C1117.69 789.422 1118.8 793.397 1118.94 798.836C1118.94 802.88 1117.62 810.899 1114.97 822.893C1112.88 830.703 1110.99 837.118 1109.32 842.139C1107.65 847.159 1105.21 852.808 1102 859.083C1098.79 865.359 1094.96 870.101 1090.49 873.309C1086.03 876.516 1081.01 878.12 1075.43 878.12C1069.29 878.12 1063.86 877.004 1059.11 874.773C1054.37 872.542 1050.95 869.543 1048.86 865.778C1048.72 865.917 1048.51 866.196 1048.24 866.614C1042.52 874.285 1035.54 878.12 1027.32 878.12C1023.69 878.12 1020.2 877.702 1016.86 876.865C1013.51 876.028 1010.23 874.703 1007.02 872.89C1003.82 871.077 1001.24 868.358 999.284 864.732C997.332 861.106 996.355 856.713 996.355 851.552C996.355 844.022 998.726 833.841 1003.47 821.01C1008.21 808.18 1010.65 800.021 1010.79 796.534C1010.79 796.395 1010.79 796.256 1010.79 796.116C1010.79 794.861 1010.79 794.024 1010.79 793.606C1010.79 793.187 1010.51 792.699 1009.95 792.141C1009.4 791.584 1008.63 791.305 1007.65 791.305H1006.81C1003.61 791.305 1000.68 792.63 998.029 795.279C995.379 797.929 993.287 800.788 991.753 803.856C990.219 806.924 989.033 809.853 988.197 812.642C987.36 815.432 986.802 816.966 986.523 817.245C986.244 817.524 985.129 817.663 983.176 817.663H980.247C979.411 816.826 978.992 816.199 978.992 815.78C978.992 814.944 979.55 812.991 980.666 809.923C981.781 806.855 983.385 803.298 985.477 799.254C987.569 795.21 990.637 791.584 994.682 788.376C998.726 785.168 1003.26 783.564 1008.28 783.564C1014.28 783.564 1018.88 785.308 1022.09 788.794C1025.29 792.281 1026.9 796.325 1026.9 800.928C1026.9 803.438 1024.6 810.969 1019.99 823.52C1015.39 836.072 1013.09 845.765 1013.09 852.598C1013.09 859.014 1014.56 863.546 1017.48 866.196C1020.41 868.846 1024.11 870.24 1028.57 870.38C1034.57 870.38 1039.87 866.126 1044.47 857.619L1045.52 855.736V850.925C1045.52 850.507 1045.52 849.879 1045.52 849.042C1045.52 848.205 1045.59 847.648 1045.73 847.369C1045.86 847.09 1045.93 846.602 1045.93 845.904C1045.93 845.207 1046 844.579 1046.14 844.022C1046.28 843.464 1046.49 842.557 1046.77 841.302C1047.05 840.047 1047.26 838.861 1047.4 837.746C1047.54 836.63 1047.96 834.956 1048.65 832.725C1049.35 830.494 1049.91 828.262 1050.33 826.031C1050.75 823.799 1051.51 820.801 1052.63 817.035C1056.67 801.137 1058.97 792.56 1059.53 791.305C1061.34 787.539 1064.34 785.656 1068.53 785.656C1071.18 785.656 1072.99 786.354 1073.97 787.748C1074.94 789.143 1075.5 790.468 1075.64 791.723C1075.64 793.536 1073.62 802.462 1069.57 818.5C1065.53 834.538 1063.3 843.743 1062.88 846.113C1062.6 847.648 1062.46 850.088 1062.46 853.435V854.9C1062.46 856.992 1062.67 859.014 1063.09 860.966C1063.51 862.919 1064.83 864.941 1067.06 867.033C1069.29 869.125 1072.43 870.24 1076.48 870.38C1086.38 870.38 1094.26 861.873 1100.12 844.858C1101.37 841.651 1102.77 837.118 1104.3 831.261C1105.83 825.403 1106.67 821.219 1106.81 818.709C1106.81 814.107 1105.9 810.481 1104.09 807.831C1102.28 805.181 1100.46 802.95 1098.65 801.137C1096.84 799.324 1095.93 797.371 1095.93 795.279Z" fill="white"/>
<path d="M1155.89 821.712L1153.96 822.451C1152.58 822.944 1150.61 823.437 1148.05 823.93C1145.48 824.423 1142.63 824.769 1139.47 824.966H1136.66V818.162H1139.47C1144.1 817.965 1148.39 817.226 1152.34 815.944C1156.28 814.662 1159.04 813.479 1160.62 812.394C1162.2 811.31 1163.58 810.225 1164.76 809.14C1164.96 808.845 1165.55 808.697 1166.54 808.697C1167.42 808.697 1168.26 808.993 1169.05 809.584V853.806L1169.2 898.176C1169.89 898.867 1170.48 899.31 1170.97 899.507C1171.47 899.705 1172.65 899.902 1174.52 900.099C1176.4 900.296 1179.45 900.395 1183.69 900.395H1187.54V907.198H1185.91C1183.84 906.902 1176 906.755 1162.39 906.755C1148.99 906.755 1141.25 906.902 1139.17 907.198H1137.4V900.395H1141.25C1143.41 900.395 1145.29 900.395 1146.87 900.395C1148.44 900.395 1149.68 900.346 1150.56 900.247C1151.45 900.148 1152.24 900 1152.93 899.803C1153.62 899.606 1154.01 899.507 1154.11 899.507C1154.21 899.507 1154.51 899.261 1155 898.768C1155.49 898.275 1155.79 898.078 1155.89 898.176V821.712Z" fill="white"/>
<path d="M1225.13 868.497C1225.13 868.497 1225.13 866.754 1225.13 863.268C1225.13 859.781 1226.24 856.783 1228.48 854.272C1230.71 851.762 1233.71 850.507 1237.47 850.507C1241.38 850.507 1244.86 852.25 1247.93 855.737C1251 859.223 1252.6 865.36 1252.74 874.146C1252.74 879.027 1252.11 883.769 1250.86 888.371C1249.6 892.973 1248.14 896.948 1246.47 900.295C1244.79 903.642 1242.98 906.501 1241.03 908.872C1239.07 911.243 1237.4 913.125 1236.01 914.52C1234.61 915.915 1233.71 916.542 1233.29 916.403C1232.73 916.403 1231.82 915.775 1230.57 914.52C1229.31 913.265 1228.68 912.358 1228.68 911.801C1228.68 911.243 1229.45 910.127 1230.99 908.453C1232.52 906.78 1234.26 904.688 1236.22 902.178C1238.17 899.667 1239.98 896.181 1241.65 891.718C1243.33 887.255 1244.44 882.165 1245 876.447V873.936L1244.79 874.146C1244.51 874.285 1244.17 874.425 1243.75 874.564C1243.33 874.704 1242.91 874.913 1242.49 875.192C1242.07 875.471 1241.45 875.61 1240.61 875.61C1239.77 875.61 1238.94 875.68 1238.1 875.819C1234.33 875.819 1231.26 874.634 1228.89 872.263L1225.13 868.497Z" fill="white"/>
<path d="M1423.15 795.279C1423.15 792.351 1424.47 789.631 1427.12 787.121C1429.77 784.61 1432.7 783.286 1435.91 783.146C1438.42 783.146 1440.72 784.401 1442.81 786.912C1444.91 789.422 1446.02 793.397 1446.16 798.836C1446.16 802.88 1444.84 810.899 1442.19 822.893C1440.09 830.703 1438.21 837.118 1436.54 842.139C1434.86 847.159 1432.42 852.808 1429.22 859.083C1426.01 865.359 1422.17 870.101 1417.71 873.309C1413.25 876.516 1408.23 878.12 1402.65 878.12C1396.51 878.12 1391.07 877.004 1386.33 874.773C1381.59 872.542 1378.17 869.543 1376.08 865.778C1375.94 865.917 1375.73 866.196 1375.45 866.614C1369.73 874.285 1362.76 878.12 1354.53 878.12C1350.91 878.12 1347.42 877.702 1344.07 876.865C1340.73 876.028 1337.45 874.703 1334.24 872.89C1331.03 871.077 1328.45 868.358 1326.5 864.732C1324.55 861.106 1323.57 856.713 1323.57 851.552C1323.57 844.022 1325.94 833.841 1330.69 821.01C1335.43 808.18 1337.87 800.021 1338.01 796.534C1338.01 796.395 1338.01 796.256 1338.01 796.116C1338.01 794.861 1338.01 794.024 1338.01 793.606C1338.01 793.187 1337.73 792.699 1337.17 792.141C1336.61 791.584 1335.85 791.305 1334.87 791.305H1334.03C1330.82 791.305 1327.9 792.63 1325.25 795.279C1322.6 797.929 1320.5 800.788 1318.97 803.856C1317.44 806.924 1316.25 809.853 1315.41 812.642C1314.58 815.432 1314.02 816.966 1313.74 817.245C1313.46 817.524 1312.35 817.663 1310.39 817.663H1307.46C1306.63 816.826 1306.21 816.199 1306.21 815.78C1306.21 814.944 1306.77 812.991 1307.88 809.923C1309 806.855 1310.6 803.298 1312.69 799.254C1314.79 795.21 1317.85 791.584 1321.9 788.376C1325.94 785.168 1330.48 783.564 1335.5 783.564C1341.49 783.564 1346.1 785.308 1349.3 788.794C1352.51 792.281 1354.11 796.325 1354.11 800.928C1354.11 803.438 1351.81 810.969 1347.21 823.52C1342.61 836.072 1340.31 845.765 1340.31 852.598C1340.31 859.014 1341.77 863.546 1344.7 866.196C1347.63 868.846 1351.33 870.24 1355.79 870.38C1361.79 870.38 1367.08 866.126 1371.69 857.619L1372.73 855.736V850.925C1372.73 850.507 1372.73 849.879 1372.73 849.042C1372.73 848.205 1372.8 847.648 1372.94 847.369C1373.08 847.09 1373.15 846.602 1373.15 845.904C1373.15 845.207 1373.22 844.579 1373.36 844.022C1373.5 843.464 1373.71 842.557 1373.99 841.302C1374.27 840.047 1374.48 838.861 1374.62 837.746C1374.76 836.63 1375.17 834.956 1375.87 832.725C1376.57 830.494 1377.13 828.262 1377.54 826.031C1377.96 823.799 1378.73 820.801 1379.85 817.035C1383.89 801.137 1386.19 792.56 1386.75 791.305C1388.56 787.539 1391.56 785.656 1395.74 785.656C1398.39 785.656 1400.21 786.354 1401.18 787.748C1402.16 789.143 1402.72 790.468 1402.86 791.723C1402.86 793.536 1400.83 802.462 1396.79 818.5C1392.75 834.538 1390.51 843.743 1390.1 846.113C1389.82 847.648 1389.68 850.088 1389.68 853.435V854.9C1389.68 856.992 1389.89 859.014 1390.31 860.966C1390.72 862.919 1392.05 864.941 1394.28 867.033C1396.51 869.125 1399.65 870.24 1403.69 870.38C1413.6 870.38 1421.48 861.873 1427.33 844.858C1428.59 841.651 1429.98 837.118 1431.52 831.261C1433.05 825.403 1433.89 821.219 1434.03 818.709C1434.03 814.107 1433.12 810.481 1431.31 807.831C1429.49 805.181 1427.68 802.95 1425.87 801.137C1424.06 799.324 1423.15 797.371 1423.15 795.279Z" fill="white"/>
<path d="M1467.72 843.749C1465.06 843.749 1462.94 842.862 1461.36 841.087C1459.78 839.312 1458.99 837.143 1458.99 834.579C1458.99 827.579 1461.61 821.515 1466.83 816.388C1472.06 811.26 1478.57 808.697 1486.35 808.697C1495.33 808.697 1502.82 811.458 1508.84 816.979C1514.85 822.501 1517.91 829.649 1518.01 838.425C1518.01 842.664 1517.02 846.707 1515.05 850.552C1513.08 854.398 1510.71 857.75 1507.95 860.61C1505.19 863.469 1501.24 867.117 1496.12 871.554C1492.57 874.611 1487.64 879.147 1481.33 885.161L1472.6 893.444L1483.84 893.591C1499.32 893.591 1507.55 893.345 1508.54 892.852C1509.23 892.655 1510.41 888.267 1512.09 879.689V879.245H1518.01V879.689C1517.91 879.985 1517.27 884.471 1516.08 893.148C1514.9 901.825 1514.16 906.36 1513.86 906.755V907.198H1458.99V904.388V902.613C1458.99 901.923 1459.29 901.184 1459.88 900.395C1460.47 899.606 1461.95 897.881 1464.32 895.218C1467.18 892.063 1469.64 889.302 1471.71 886.936C1472.6 885.95 1474.28 884.126 1476.74 881.464C1479.21 878.801 1480.88 876.977 1481.77 875.991C1482.66 875.005 1484.09 873.378 1486.06 871.111C1488.03 868.843 1489.41 867.167 1490.2 866.082C1490.99 864.997 1492.12 863.518 1493.6 861.645C1495.08 859.772 1496.12 858.194 1496.71 856.912C1497.3 855.63 1498.04 854.201 1498.93 852.623C1499.81 851.045 1500.45 849.468 1500.85 847.89C1501.24 846.313 1501.59 844.834 1501.88 843.453C1502.18 842.073 1502.33 840.446 1502.33 838.573C1502.33 832.361 1500.65 826.987 1497.3 822.451C1493.95 817.916 1489.16 815.648 1482.95 815.648C1479.7 815.648 1476.84 816.486 1474.37 818.162C1471.91 819.839 1470.18 821.465 1469.2 823.043C1468.21 824.621 1467.72 825.557 1467.72 825.853C1467.72 825.952 1467.97 826.001 1468.46 826.001C1470.23 826.001 1472.06 826.691 1473.93 828.072C1475.8 829.452 1476.74 831.72 1476.74 834.875C1476.74 837.34 1475.95 839.411 1474.37 841.087C1472.8 842.763 1470.58 843.65 1467.72 843.749Z" fill="white"/>
<path d="M1552.35 868.497C1552.35 868.497 1552.35 866.754 1552.35 863.268C1552.35 859.781 1553.46 856.783 1555.7 854.272C1557.93 851.762 1560.93 850.507 1564.69 850.507C1568.6 850.507 1572.08 852.25 1575.15 855.737C1578.22 859.223 1579.82 865.36 1579.96 874.146C1579.96 879.027 1579.34 883.769 1578.08 888.371C1576.82 892.973 1575.36 896.948 1573.69 900.295C1572.01 903.642 1570.2 906.501 1568.25 908.872C1566.3 911.243 1564.62 913.125 1563.23 914.52C1561.83 915.915 1560.93 916.542 1560.51 916.403C1559.95 916.403 1559.04 915.775 1557.79 914.52C1556.53 913.265 1555.91 912.358 1555.91 911.801C1555.91 911.243 1556.67 910.127 1558.21 908.453C1559.74 906.78 1561.48 904.688 1563.44 902.178C1565.39 899.667 1567.2 896.181 1568.88 891.718C1570.55 887.255 1571.66 882.165 1572.22 876.447V873.936L1572.01 874.146C1571.73 874.285 1571.39 874.425 1570.97 874.564C1570.55 874.704 1570.13 874.913 1569.71 875.192C1569.29 875.471 1568.67 875.61 1567.83 875.61C1566.99 875.61 1566.16 875.68 1565.32 875.819C1561.55 875.819 1558.49 874.634 1556.11 872.263L1552.35 868.497Z" fill="white"/>
<path d="M1645.36 863.268C1645.36 859.921 1646.54 856.992 1648.91 854.482C1651.28 851.971 1654.28 850.716 1657.91 850.716C1661.26 850.716 1664.18 851.832 1666.7 854.063C1669.21 856.295 1670.53 859.293 1670.67 863.059C1670.67 866.545 1669.48 869.544 1667.11 872.054C1664.74 874.564 1661.74 875.819 1658.12 875.819C1654.49 875.819 1651.49 874.634 1649.12 872.263C1646.75 869.892 1645.5 866.894 1645.36 863.268Z" fill="white"/>
<path d="M1738.39 863.268C1738.39 859.921 1739.57 856.992 1741.94 854.482C1744.31 851.971 1747.31 850.716 1750.94 850.716C1754.29 850.716 1757.21 851.832 1759.72 854.063C1762.24 856.295 1763.56 859.293 1763.7 863.059C1763.7 866.545 1762.51 869.544 1760.14 872.054C1757.77 874.564 1754.77 875.819 1751.15 875.819C1747.52 875.819 1744.52 874.634 1742.15 872.263C1739.78 869.892 1738.53 866.894 1738.39 863.268Z" fill="white"/>
<path d="M1831.42 863.268C1831.42 859.921 1832.6 856.992 1834.97 854.482C1837.34 851.971 1840.34 850.716 1843.97 850.716C1847.31 850.716 1850.24 851.832 1852.75 854.063C1855.26 856.295 1856.59 859.293 1856.73 863.059C1856.73 866.545 1855.54 869.544 1853.17 872.054C1850.8 874.564 1847.8 875.819 1844.18 875.819C1840.55 875.819 1837.55 874.634 1835.18 872.263C1832.81 869.892 1831.55 866.894 1831.42 863.268Z" fill="white"/>
<path d="M1924.42 868.497C1924.42 868.497 1924.42 866.754 1924.42 863.268C1924.42 859.781 1925.54 856.783 1927.77 854.272C1930 851.762 1933 850.507 1936.76 850.507C1940.67 850.507 1944.16 852.25 1947.22 855.737C1950.29 859.223 1951.9 865.36 1952.04 874.146C1952.04 879.027 1951.41 883.769 1950.15 888.371C1948.9 892.973 1947.43 896.948 1945.76 900.295C1944.09 903.642 1942.27 906.501 1940.32 908.872C1938.37 911.243 1936.69 913.125 1935.3 914.52C1933.91 915.915 1933 916.542 1932.58 916.403C1932.02 916.403 1931.12 915.775 1929.86 914.52C1928.61 913.265 1927.98 912.358 1927.98 911.801C1927.98 911.243 1928.75 910.127 1930.28 908.453C1931.81 906.78 1933.56 904.688 1935.51 902.178C1937.46 899.667 1939.27 896.181 1940.95 891.718C1942.62 887.255 1943.74 882.165 1944.3 876.447V873.936L1944.09 874.146C1943.81 874.285 1943.46 874.425 1943.04 874.564C1942.62 874.704 1942.2 874.913 1941.78 875.192C1941.37 875.471 1940.74 875.61 1939.9 875.61C1939.07 875.61 1938.23 875.68 1937.39 875.819C1933.63 875.819 1930.56 874.634 1928.19 872.263L1924.42 868.497Z" fill="white"/>
<path d="M2122.46 795.279C2122.46 792.351 2123.78 789.631 2126.43 787.121C2129.08 784.61 2132.01 783.286 2135.22 783.146C2137.73 783.146 2140.03 784.401 2142.12 786.912C2144.21 789.422 2145.33 793.397 2145.47 798.836C2145.47 802.88 2144.14 810.899 2141.49 822.893C2139.4 830.703 2137.52 837.118 2135.85 842.139C2134.17 847.159 2131.73 852.808 2128.52 859.083C2125.32 865.359 2121.48 870.101 2117.02 873.309C2112.56 876.516 2107.53 878.12 2101.96 878.12C2095.82 878.12 2090.38 877.004 2085.64 874.773C2080.9 872.542 2077.48 869.543 2075.39 865.778C2075.25 865.917 2075.04 866.196 2074.76 866.614C2069.04 874.285 2062.07 878.12 2053.84 878.12C2050.22 878.12 2046.73 877.702 2043.38 876.865C2040.03 876.028 2036.76 874.703 2033.55 872.89C2030.34 871.077 2027.76 868.358 2025.81 864.732C2023.86 861.106 2022.88 856.713 2022.88 851.552C2022.88 844.022 2025.25 833.841 2029.99 821.01C2034.74 808.18 2037.18 800.021 2037.32 796.534C2037.32 796.395 2037.32 796.256 2037.32 796.116C2037.32 794.861 2037.32 794.024 2037.32 793.606C2037.32 793.187 2037.04 792.699 2036.48 792.141C2035.92 791.584 2035.15 791.305 2034.18 791.305H2033.34C2030.13 791.305 2027.2 792.63 2024.55 795.279C2021.9 797.929 2019.81 800.788 2018.28 803.856C2016.74 806.924 2015.56 809.853 2014.72 812.642C2013.89 815.432 2013.33 816.966 2013.05 817.245C2012.77 817.524 2011.65 817.663 2009.7 817.663H2006.77C2005.94 816.826 2005.52 816.199 2005.52 815.78C2005.52 814.944 2006.08 812.991 2007.19 809.923C2008.31 806.855 2009.91 803.298 2012 799.254C2014.09 795.21 2017.16 791.584 2021.21 788.376C2025.25 785.168 2029.78 783.564 2034.8 783.564C2040.8 783.564 2045.4 785.308 2048.61 788.794C2051.82 792.281 2053.42 796.325 2053.42 800.928C2053.42 803.438 2051.12 810.969 2046.52 823.52C2041.92 836.072 2039.62 845.765 2039.62 852.598C2039.62 859.014 2041.08 863.546 2044.01 866.196C2046.94 868.846 2050.63 870.24 2055.1 870.38C2061.09 870.38 2066.39 866.126 2071 857.619L2072.04 855.736V850.925C2072.04 850.507 2072.04 849.879 2072.04 849.042C2072.04 848.205 2072.11 847.648 2072.25 847.369C2072.39 847.09 2072.46 846.602 2072.46 845.904C2072.46 845.207 2072.53 844.579 2072.67 844.022C2072.81 843.464 2073.02 842.557 2073.3 841.302C2073.58 840.047 2073.78 838.861 2073.92 837.746C2074.06 836.63 2074.48 834.956 2075.18 832.725C2075.88 830.494 2076.43 828.262 2076.85 826.031C2077.27 823.799 2078.04 820.801 2079.15 817.035C2083.2 801.137 2085.5 792.56 2086.06 791.305C2087.87 787.539 2090.87 785.656 2095.05 785.656C2097.7 785.656 2099.52 786.354 2100.49 787.748C2101.47 789.143 2102.03 790.468 2102.17 791.723C2102.17 793.536 2100.14 802.462 2096.1 818.5C2092.05 834.538 2089.82 843.743 2089.4 846.113C2089.13 847.648 2088.99 850.088 2088.99 853.435V854.9C2088.99 856.992 2089.2 859.014 2089.61 860.966C2090.03 862.919 2091.36 864.941 2093.59 867.033C2095.82 869.125 2098.96 870.24 2103 870.38C2112.9 870.38 2120.78 861.873 2126.64 844.858C2127.9 841.651 2129.29 837.118 2130.82 831.261C2132.36 825.403 2133.2 821.219 2133.34 818.709C2133.34 814.107 2132.43 810.481 2130.62 807.831C2128.8 805.181 2126.99 802.95 2125.18 801.137C2123.36 799.324 2122.46 797.371 2122.46 795.279Z" fill="white"/>
<path d="M2154.02 864.751C2154.11 864.159 2154.26 863.371 2154.46 862.385C2154.66 861.399 2155.25 859.525 2156.23 856.764C2157.22 854.004 2158.21 851.686 2159.19 849.813C2160.18 847.94 2161.81 846.116 2164.07 844.341C2166.34 842.566 2168.61 841.728 2170.88 841.826C2174.43 841.826 2177.38 842.714 2179.75 844.489C2182.12 846.263 2183.6 847.94 2184.19 849.517C2184.78 851.095 2185.07 852.13 2185.07 852.623C2185.07 852.82 2185.12 852.919 2185.22 852.919L2186.85 851.292C2192.86 844.982 2199.72 841.826 2207.41 841.826C2212.73 841.826 2217.02 843.158 2220.27 845.82C2223.53 848.482 2225.2 852.377 2225.3 857.504C2225.4 862.631 2223.53 870.371 2219.68 880.724C2215.84 891.077 2213.96 897.338 2214.06 899.507C2214.06 902.071 2214.9 903.353 2216.58 903.353C2217.17 903.353 2217.61 903.304 2217.91 903.205C2220.77 902.712 2223.33 900.839 2225.6 897.585C2227.87 894.331 2229.59 890.387 2230.78 885.753C2230.97 884.964 2231.96 884.57 2233.73 884.57C2235.71 884.57 2236.69 884.964 2236.69 885.753C2236.69 885.851 2236.49 886.591 2236.1 887.971C2235.31 890.831 2234.23 893.641 2232.85 896.402C2231.47 899.162 2229.2 901.923 2226.04 904.684C2222.89 907.445 2219.49 908.776 2215.84 908.677C2211.2 908.677 2207.85 907.346 2205.78 904.684C2203.71 902.022 2202.67 899.261 2202.67 896.402C2202.67 894.528 2204.45 888.612 2208 878.654C2211.55 868.695 2213.37 861.201 2213.47 856.173C2213.47 850.355 2211.3 847.447 2206.96 847.447H2206.22C2197.74 847.447 2190.6 852.426 2184.78 862.385L2183.74 864.159L2178.86 883.978C2175.61 896.895 2173.74 903.846 2173.24 904.832C2171.96 907.494 2169.84 908.825 2166.88 908.825C2165.6 908.825 2164.57 908.529 2163.78 907.938C2162.99 907.346 2162.45 906.755 2162.15 906.163C2161.85 905.571 2161.76 905.078 2161.85 904.684C2161.85 903.402 2163.73 895.366 2167.47 880.576C2171.22 865.786 2173.19 857.75 2173.39 856.469C2173.49 855.976 2173.54 854.842 2173.54 853.067C2173.54 849.221 2172.36 847.299 2169.99 847.299C2166.24 847.299 2163.14 852.229 2160.67 862.089C2160.08 864.061 2159.78 865.096 2159.78 865.195C2159.59 865.786 2158.65 866.082 2156.97 866.082H2154.9C2154.31 865.49 2154.02 865.047 2154.02 864.751Z" fill="white"/>
<path d="M2262.69 719.133L2263.53 718.924C2264.22 718.924 2264.92 718.924 2265.62 718.924H2268.13L2273.99 723.945C2287.1 735.799 2296.65 750.582 2302.65 768.294C2308.64 786.006 2311.64 804.415 2311.64 823.521C2311.64 833.005 2310.94 842.139 2309.55 850.926C2308.15 859.712 2306.55 867.173 2304.74 873.309C2302.92 879.446 2300.34 885.582 2297 891.718C2293.65 897.855 2291 902.527 2289.05 905.734C2287.1 908.942 2284.24 912.498 2280.47 916.403C2276.71 920.308 2274.47 922.609 2273.78 923.307C2273.08 924.004 2271.48 925.329 2268.97 927.281C2268.55 927.7 2268.27 927.979 2268.13 928.118H2265.62C2264.5 928.118 2263.74 928.118 2263.32 928.118C2262.9 928.118 2262.55 927.909 2262.27 927.491C2261.99 927.072 2261.78 926.445 2261.64 925.608C2261.78 925.468 2262.55 924.562 2263.94 922.888C2285.56 900.435 2296.37 867.312 2296.37 823.521C2296.37 779.73 2285.56 746.608 2263.94 724.154C2262.55 722.48 2261.78 721.574 2261.64 721.435C2261.64 720.319 2261.99 719.552 2262.69 719.133Z" fill="white"/>
<path d="M2311.87 1166.57L2299.69 1298.57L2420.09 1243.12L2311.87 1166.57ZM2344.66 1265.22L2496.99 1596.02L2517.85 1586.42L2365.52 1255.62L2344.66 1265.22Z" fill="white"/>
<path d="M772.417 1166.57L784.601 1298.57L664.197 1243.12L772.417 1166.57ZM739.628 1265.22L587.297 1596.02L566.442 1586.42L718.773 1255.62L739.628 1265.22Z" fill="white"/>
<path d="M1822.05 1166.57L1780.22 1292.36L1910.07 1265.69L1822.05 1166.57ZM1831.59 1270.09L1898.03 1593.53L1920.52 1588.91L1854.08 1265.47L1831.59 1270.09Z" fill="white"/>
<path d="M1295.79 1166.57L1337.62 1292.36L1207.77 1265.69L1295.79 1166.57ZM1286.25 1270.09L1219.81 1593.53L1197.32 1588.91L1263.76 1265.47L1286.25 1270.09Z" fill="white"/>
<path d="M519.786 1776.89C519.786 1795.92 512.227 1814.17 498.772 1827.63C485.316 1841.08 467.066 1848.64 448.037 1848.64C429.008 1848.64 410.759 1841.08 397.303 1827.63C383.848 1814.17 376.289 1795.92 376.289 1776.89C376.289 1757.86 383.848 1739.61 397.303 1726.16C410.759 1712.7 429.008 1705.14 448.037 1705.14C467.066 1705.14 485.316 1712.7 498.772 1726.16C512.227 1739.61 519.786 1757.86 519.786 1776.89Z" fill="white"/>
<path fill-rule="evenodd" clip-rule="evenodd" d="M256.708 1824.73C256.708 1773.98 276.865 1725.32 312.747 1689.43C348.628 1653.55 397.294 1633.4 448.038 1633.4C498.782 1633.4 547.448 1653.55 583.329 1689.43C619.21 1725.32 639.368 1773.98 639.368 1824.73C639.368 1875.47 619.21 1924.14 583.329 1960.02C547.448 1995.9 498.782 2016.06 448.038 2016.06C397.294 2016.06 348.628 1995.9 312.747 1960.02C276.865 1924.14 256.708 1875.47 256.708 1824.73ZM448.038 1657.31C416.511 1657.31 385.625 1666.22 358.935 1683C332.246 1699.78 310.837 1723.76 297.173 1752.17C283.509 1780.58 278.146 1812.27 281.7 1843.6C285.254 1874.93 297.582 1904.61 317.264 1929.24C334.244 1901.88 371.625 1872.56 448.038 1872.56C524.45 1872.56 561.808 1901.86 578.812 1929.24C598.494 1904.61 610.822 1874.93 614.376 1843.6C617.93 1812.27 612.567 1780.58 598.903 1752.17C585.239 1723.76 563.83 1699.78 537.14 1683C510.451 1666.22 479.565 1657.31 448.038 1657.31Z" fill="white"/>
<g clip-path="url(#clip0_168_699)">
<path d="M452.791 2110.84C452.791 2107.55 454.281 2104.49 457.259 2101.67C460.238 2098.85 463.53 2097.36 467.135 2097.2C469.957 2097.2 472.544 2098.61 474.895 2101.43C477.247 2104.25 478.501 2108.72 478.658 2114.84C478.658 2119.38 477.168 2128.4 474.19 2141.88C471.838 2150.66 469.722 2157.87 467.841 2163.51C465.96 2169.16 463.216 2175.5 459.611 2182.56C456.005 2189.61 451.694 2194.94 446.678 2198.55C441.661 2202.15 436.018 2203.96 429.747 2203.96C422.849 2203.96 416.736 2202.7 411.406 2200.19C406.076 2197.69 402.235 2194.32 399.883 2190.08C399.727 2190.24 399.491 2190.55 399.178 2191.02C392.751 2199.65 384.912 2203.96 375.663 2203.96C371.587 2203.96 367.668 2203.49 363.906 2202.55C360.144 2201.61 356.46 2200.12 352.854 2198.08C349.248 2196.04 346.348 2192.98 344.154 2188.91C341.959 2184.83 340.861 2179.89 340.861 2174.09C340.861 2165.63 343.526 2154.18 348.856 2139.76C354.186 2125.34 356.93 2116.17 357.087 2112.25C357.087 2112.09 357.087 2111.94 357.087 2111.78C357.087 2110.37 357.087 2109.43 357.087 2108.96C357.087 2108.49 356.773 2107.94 356.146 2107.31C355.519 2106.68 354.657 2106.37 353.559 2106.37H352.619C349.013 2106.37 345.721 2107.86 342.743 2110.84C339.764 2113.82 337.413 2117.03 335.688 2120.48C333.964 2123.93 332.631 2127.22 331.691 2130.36C330.75 2133.49 330.123 2135.22 329.81 2135.53C329.496 2135.84 328.242 2136 326.047 2136H322.755C321.815 2135.06 321.344 2134.35 321.344 2133.88C321.344 2132.94 321.971 2130.75 323.225 2127.3C324.48 2123.85 326.282 2119.85 328.634 2115.31C330.985 2110.76 334.434 2106.68 338.98 2103.08C343.526 2099.47 348.621 2097.67 354.265 2097.67C361.006 2097.67 366.179 2099.63 369.785 2103.55C373.39 2107.47 375.193 2112.01 375.193 2117.19C375.193 2120.01 372.606 2128.47 367.433 2142.58C362.26 2156.69 359.673 2167.59 359.673 2175.27C359.673 2182.48 361.319 2187.58 364.611 2190.55C367.903 2193.53 372.058 2195.1 377.074 2195.26C383.815 2195.26 389.772 2190.48 394.945 2180.91L396.121 2178.8V2173.39C396.121 2172.92 396.121 2172.21 396.121 2171.27C396.121 2170.33 396.199 2169.7 396.356 2169.39C396.513 2169.08 396.591 2168.53 396.591 2167.74C396.591 2166.96 396.67 2166.26 396.826 2165.63C396.983 2165 397.218 2163.98 397.532 2162.57C397.845 2161.16 398.081 2159.83 398.237 2158.57C398.394 2157.32 398.864 2155.44 399.648 2152.93C400.432 2150.42 401.059 2147.91 401.529 2145.41C402 2142.9 402.862 2139.53 404.116 2135.29C408.662 2117.42 411.249 2107.78 411.876 2106.37C413.914 2102.14 417.284 2100.02 421.987 2100.02C424.966 2100.02 427.004 2100.81 428.101 2102.37C429.198 2103.94 429.825 2105.43 429.982 2106.84C429.982 2108.88 427.709 2118.91 423.163 2136.94C418.617 2154.97 416.108 2165.31 415.638 2167.98C415.325 2169.7 415.168 2172.45 415.168 2176.21V2177.86C415.168 2180.21 415.403 2182.48 415.873 2184.67C416.344 2186.87 417.833 2189.14 420.341 2191.49C422.849 2193.85 426.377 2195.1 430.923 2195.26C442.053 2195.26 450.91 2185.69 457.494 2166.57C458.905 2162.96 460.473 2157.87 462.197 2151.28C463.922 2144.7 464.862 2140 465.019 2137.18C465.019 2132 464 2127.93 461.962 2124.95C459.924 2121.97 457.886 2119.46 455.848 2117.42C453.81 2115.38 452.791 2113.19 452.791 2110.84Z" fill="white"/>
<path d="M520.182 2140.55L518.021 2141.38C516.469 2141.94 514.253 2142.49 511.371 2143.04C508.489 2143.6 505.275 2143.99 501.729 2144.21H498.57V2136.56H501.729C506.938 2136.34 511.759 2135.51 516.192 2134.07C520.626 2132.63 523.729 2131.3 525.502 2130.08C527.275 2128.86 528.827 2127.64 530.157 2126.42C530.379 2126.09 531.044 2125.92 532.152 2125.92C533.15 2125.92 534.092 2126.25 534.978 2126.92V2176.63L535.145 2226.5C535.92 2227.28 536.585 2227.78 537.14 2228C537.694 2228.22 539.024 2228.44 541.13 2228.66C543.235 2228.88 546.671 2229 551.437 2229H555.759V2236.64H553.931C551.603 2236.31 542.792 2236.14 527.497 2236.14C512.424 2236.14 503.724 2236.31 501.396 2236.64H499.401V2229H503.724C506.162 2229 508.268 2229 510.041 2229C511.814 2229 513.2 2228.94 514.197 2228.83C515.195 2228.72 516.081 2228.55 516.857 2228.33C517.633 2228.11 518.076 2228 518.187 2228C518.298 2228 518.631 2227.72 519.185 2227.17C519.739 2226.61 520.071 2226.39 520.182 2226.5V2140.55Z" fill="white"/>
</g>
<path d="M1147.65 395.6C1147.65 414.629 1140.09 432.879 1126.63 446.335C1113.18 459.79 1094.93 467.349 1075.9 467.349C1056.87 467.349 1038.62 459.79 1025.16 446.335C1011.71 432.879 1004.15 414.629 1004.15 395.6C1004.15 376.571 1011.71 358.322 1025.16 344.866C1038.62 331.411 1056.87 323.852 1075.9 323.852C1094.93 323.852 1113.18 331.411 1126.63 344.866C1140.09 358.322 1147.65 376.571 1147.65 395.6Z" fill="white"/>
<path fill-rule="evenodd" clip-rule="evenodd" d="M884.569 443.433C884.569 392.689 904.727 344.023 940.608 308.142C976.49 272.261 1025.16 252.103 1075.9 252.103C1126.64 252.103 1175.31 272.261 1211.19 308.142C1247.07 344.023 1267.23 392.689 1267.23 443.433C1267.23 494.177 1247.07 542.843 1211.19 578.724C1175.31 614.605 1126.64 634.763 1075.9 634.763C1025.16 634.763 976.49 614.605 940.608 578.724C904.727 542.843 884.569 494.177 884.569 443.433ZM1075.9 276.019C1044.37 276.021 1013.49 284.924 986.797 301.706C960.107 318.487 938.698 342.463 925.034 370.876C911.371 399.288 906.007 430.981 909.561 462.307C913.116 493.633 925.443 523.318 945.125 547.947C962.105 520.587 999.487 491.266 1075.9 491.266C1152.31 491.266 1189.67 520.563 1206.67 547.947C1226.36 523.318 1238.68 493.633 1242.24 462.307C1245.79 430.981 1240.43 399.288 1226.76 370.876C1213.1 342.463 1191.69 318.487 1165 301.706C1138.31 284.924 1107.43 276.021 1075.9 276.019Z" fill="white"/>
<g clip-path="url(#clip1_168_699)">
<path d="M1255.2 1780.73C1255.2 1799.76 1247.64 1818.01 1234.18 1831.46C1220.73 1844.92 1202.48 1852.48 1183.45 1852.48C1164.42 1852.48 1146.17 1844.92 1132.71 1831.46C1119.26 1818.01 1111.7 1799.76 1111.7 1780.73C1111.7 1761.7 1119.26 1743.45 1132.71 1729.99C1146.17 1716.54 1164.42 1708.98 1183.45 1708.98C1202.48 1708.98 1220.73 1716.54 1234.18 1729.99C1247.64 1743.45 1255.2 1761.7 1255.2 1780.73Z" fill="white"/>
<path fill-rule="evenodd" clip-rule="evenodd" d="M992.118 1828.56C992.118 1777.82 1012.28 1729.15 1048.16 1693.27C1084.04 1657.39 1132.7 1637.23 1183.45 1637.23C1234.19 1637.23 1282.86 1657.39 1318.74 1693.27C1354.62 1729.15 1374.78 1777.82 1374.78 1828.56C1374.78 1879.3 1354.62 1927.97 1318.74 1963.85C1282.86 1999.73 1234.19 2019.89 1183.45 2019.89C1132.7 2019.89 1084.04 1999.73 1048.16 1963.85C1012.28 1927.97 992.118 1879.3 992.118 1828.56ZM1183.45 1661.15C1151.92 1661.15 1121.04 1670.05 1094.35 1686.83C1067.66 1703.61 1046.25 1727.59 1032.58 1756C1018.92 1784.41 1013.56 1816.11 1017.11 1847.43C1020.66 1878.76 1032.99 1908.45 1052.67 1933.07C1069.65 1905.71 1107.04 1876.39 1183.45 1876.39C1259.86 1876.39 1297.22 1905.69 1314.22 1933.07C1333.9 1908.45 1346.23 1878.76 1349.79 1847.43C1353.34 1816.11 1347.98 1784.41 1334.31 1756C1320.65 1727.59 1299.24 1703.61 1272.55 1686.83C1245.86 1670.05 1214.98 1661.15 1183.45 1661.15Z" fill="white"/>
</g>
<g clip-path="url(#clip2_168_699)">
<path d="M1188.92 2095.31C1188.92 2091.52 1190.63 2088 1194.06 2084.75C1197.49 2081.5 1201.28 2079.79 1205.43 2079.61C1208.68 2079.61 1211.66 2081.23 1214.36 2084.48C1217.07 2087.73 1218.51 2092.87 1218.69 2099.91C1218.69 2105.14 1216.98 2115.52 1213.55 2131.04C1210.84 2141.15 1208.41 2149.45 1206.24 2155.94C1204.08 2162.44 1200.92 2169.75 1196.77 2177.87C1192.62 2185.99 1187.65 2192.13 1181.88 2196.28C1176.1 2200.43 1169.61 2202.5 1162.39 2202.5C1154.45 2202.5 1147.41 2201.06 1141.28 2198.17C1135.14 2195.29 1130.72 2191.41 1128.01 2186.53C1127.83 2186.71 1127.56 2187.07 1127.2 2187.62C1119.8 2197.54 1110.78 2202.5 1100.13 2202.5C1095.44 2202.5 1090.93 2201.96 1086.6 2200.88C1082.26 2199.8 1078.02 2198.08 1073.87 2195.74C1069.72 2193.39 1066.38 2189.87 1063.86 2185.18C1061.33 2180.49 1060.07 2174.8 1060.07 2168.13C1060.07 2158.38 1063.14 2145.21 1069.27 2128.6C1075.41 2112 1078.57 2101.45 1078.75 2096.93C1078.75 2096.75 1078.75 2096.57 1078.75 2096.39C1078.75 2094.77 1078.75 2093.69 1078.75 2093.14C1078.75 2092.6 1078.38 2091.97 1077.66 2091.25C1076.94 2090.53 1075.95 2090.17 1074.69 2090.17H1073.6C1069.45 2090.17 1065.66 2091.88 1062.23 2095.31C1058.8 2098.74 1056.1 2102.44 1054.11 2106.41C1052.13 2110.38 1050.59 2114.17 1049.51 2117.78C1048.43 2121.39 1047.71 2123.37 1047.35 2123.73C1046.98 2124.09 1045.54 2124.27 1043.01 2124.27H1039.22C1038.14 2123.19 1037.6 2122.38 1037.6 2121.84C1037.6 2120.75 1038.32 2118.23 1039.77 2114.26C1041.21 2110.29 1043.29 2105.69 1045.99 2100.45C1048.7 2095.22 1052.67 2090.53 1057.9 2086.38C1063.14 2082.23 1069 2080.15 1075.5 2080.15C1083.26 2080.15 1089.21 2082.41 1093.36 2086.92C1097.51 2091.43 1099.59 2096.66 1099.59 2102.62C1099.59 2105.87 1096.61 2115.61 1090.66 2131.85C1084.7 2148.09 1081.72 2160.64 1081.72 2169.48C1081.72 2177.78 1083.62 2183.65 1087.41 2187.07C1091.2 2190.5 1095.98 2192.31 1101.75 2192.49C1109.51 2192.49 1116.37 2186.98 1122.33 2175.98L1123.68 2173.54V2167.31C1123.68 2166.77 1123.68 2165.96 1123.68 2164.88C1123.68 2163.79 1123.77 2163.07 1123.95 2162.71C1124.13 2162.35 1124.22 2161.72 1124.22 2160.82C1124.22 2159.91 1124.31 2159.1 1124.49 2158.38C1124.67 2157.66 1124.94 2156.49 1125.3 2154.86C1125.67 2153.24 1125.94 2151.7 1126.12 2150.26C1126.3 2148.82 1126.84 2146.65 1127.74 2143.76C1128.64 2140.88 1129.37 2137.99 1129.91 2135.1C1130.45 2132.21 1131.44 2128.33 1132.88 2123.46C1138.12 2102.89 1141.1 2091.79 1141.82 2090.17C1144.16 2085.29 1148.04 2082.86 1153.46 2082.86C1156.89 2082.86 1159.23 2083.76 1160.49 2085.56C1161.76 2087.37 1162.48 2089.08 1162.66 2090.71C1162.66 2093.05 1160.04 2104.6 1154.81 2125.36C1149.58 2146.11 1146.69 2158.02 1146.15 2161.09C1145.79 2163.07 1145.61 2166.23 1145.61 2170.56V2172.46C1145.61 2175.16 1145.88 2177.78 1146.42 2180.31C1146.96 2182.83 1148.67 2185.45 1151.56 2188.16C1154.45 2190.86 1158.51 2192.31 1163.74 2192.49C1176.56 2192.49 1186.75 2181.48 1194.33 2159.46C1195.96 2155.31 1197.76 2149.45 1199.75 2141.87C1201.73 2134.29 1202.81 2128.88 1202.99 2125.63C1202.99 2119.67 1201.82 2114.98 1199.47 2111.55C1197.13 2108.12 1194.78 2105.24 1192.44 2102.89C1190.09 2100.54 1188.92 2098.02 1188.92 2095.31Z" fill="white"/>
<path d="M1246.59 2158.03C1243.15 2158.03 1240.41 2156.88 1238.36 2154.58C1236.32 2152.29 1235.3 2149.48 1235.3 2146.16C1235.3 2137.1 1238.68 2129.26 1245.45 2122.62C1252.21 2115.99 1260.63 2112.67 1270.71 2112.67C1282.32 2112.67 1292.01 2116.24 1299.8 2123.39C1307.58 2130.53 1311.54 2139.78 1311.66 2151.14C1311.66 2156.63 1310.39 2161.86 1307.84 2166.83C1305.28 2171.81 1302.22 2176.15 1298.65 2179.85C1295.08 2183.55 1289.97 2188.27 1283.34 2194.01C1278.75 2197.96 1272.37 2203.83 1264.2 2211.62L1252.91 2222.33L1267.45 2222.52C1287.49 2222.52 1298.14 2222.2 1299.41 2221.57C1300.31 2221.31 1301.84 2215.63 1304.01 2204.53V2203.96H1311.66V2204.53C1311.54 2204.92 1310.71 2210.72 1309.17 2221.95C1307.64 2233.18 1306.69 2239.05 1306.3 2239.56V2240.13H1235.3V2236.49V2234.2C1235.3 2233.3 1235.69 2232.35 1236.45 2231.33C1237.22 2230.31 1239.13 2228.07 1242.19 2224.63C1245.89 2220.55 1249.08 2216.97 1251.76 2213.91C1252.91 2212.64 1255.08 2210.28 1258.27 2206.83C1261.46 2203.39 1263.63 2201.03 1264.77 2199.75C1265.92 2198.47 1267.77 2196.37 1270.32 2193.43C1272.88 2190.5 1274.66 2188.33 1275.68 2186.93C1276.7 2185.52 1278.17 2183.61 1280.09 2181.19C1282 2178.76 1283.34 2176.72 1284.1 2175.06C1284.87 2173.4 1285.83 2171.55 1286.97 2169.51C1288.12 2167.47 1288.95 2165.43 1289.46 2163.39C1289.97 2161.35 1290.42 2159.43 1290.8 2157.65C1291.19 2155.86 1291.38 2153.75 1291.38 2151.33C1291.38 2143.29 1289.21 2136.34 1284.87 2130.47C1280.53 2124.6 1274.34 2121.67 1266.31 2121.67C1262.1 2121.67 1258.4 2122.75 1255.21 2124.92C1252.02 2127.09 1249.78 2129.19 1248.51 2131.24C1247.23 2133.28 1246.59 2134.49 1246.59 2134.87C1246.59 2135 1246.91 2135.06 1247.55 2135.06C1249.85 2135.06 1252.21 2135.96 1254.63 2137.74C1257.06 2139.53 1258.27 2142.46 1258.27 2146.55C1258.27 2149.74 1257.25 2152.42 1255.21 2154.58C1253.16 2156.75 1250.29 2157.9 1246.59 2158.03Z" fill="white"/>
</g>
<g clip-path="url(#clip3_168_699)">
<path d="M1990.61 1780.73C1990.61 1799.76 1983.05 1818.01 1969.6 1831.46C1956.14 1844.92 1937.89 1852.48 1918.87 1852.48C1899.84 1852.48 1881.59 1844.92 1868.13 1831.46C1854.68 1818.01 1847.12 1799.76 1847.12 1780.73C1847.12 1761.7 1854.68 1743.45 1868.13 1729.99C1881.59 1716.54 1899.84 1708.98 1918.87 1708.98C1937.89 1708.98 1956.14 1716.54 1969.6 1729.99C1983.05 1743.45 1990.61 1761.7 1990.61 1780.73Z" fill="white"/>
<path fill-rule="evenodd" clip-rule="evenodd" d="M1727.54 1828.56C1727.54 1777.82 1747.69 1729.15 1783.57 1693.27C1819.46 1657.39 1868.12 1637.23 1918.87 1637.23C1969.61 1637.23 2018.28 1657.39 2054.16 1693.27C2090.04 1729.15 2110.2 1777.82 2110.2 1828.56C2110.2 1879.3 2090.04 1927.97 2054.16 1963.85C2018.28 1999.73 1969.61 2019.89 1918.87 2019.89C1868.12 2019.89 1819.46 1999.73 1783.57 1963.85C1747.69 1927.97 1727.54 1879.3 1727.54 1828.56ZM1918.87 1661.15C1887.34 1661.15 1856.45 1670.05 1829.76 1686.83C1803.07 1703.61 1781.66 1727.59 1768 1756C1754.34 1784.41 1748.97 1816.11 1752.53 1847.43C1756.08 1878.76 1768.41 1908.45 1788.09 1933.07C1805.07 1905.71 1842.45 1876.39 1918.87 1876.39C1995.28 1876.39 2032.64 1905.69 2049.64 1933.07C2069.32 1908.45 2081.65 1878.76 2085.2 1847.43C2088.76 1816.11 2083.39 1784.41 2069.73 1756C2056.07 1727.59 2034.66 1703.61 2007.97 1686.83C1981.28 1670.05 1950.39 1661.15 1918.87 1661.15Z" fill="white"/>
</g>
<g clip-path="url(#clip4_168_699)">
<path d="M1924.27 2105.85C1924.27 2102.09 1925.97 2098.61 1929.37 2095.4C1932.76 2092.18 1936.51 2090.48 1940.62 2090.3C1943.83 2090.3 1946.78 2091.91 1949.46 2095.13C1952.14 2098.34 1953.57 2103.43 1953.75 2110.4C1953.75 2115.58 1952.05 2125.85 1948.66 2141.22C1945.98 2151.22 1943.57 2159.44 1941.42 2165.87C1939.28 2172.3 1936.15 2179.53 1932.04 2187.57C1927.94 2195.61 1923.02 2201.69 1917.31 2205.79C1911.59 2209.9 1905.16 2211.96 1898.01 2211.96C1890.15 2211.96 1883.19 2210.53 1877.11 2207.67C1871.04 2204.81 1866.66 2200.97 1863.98 2196.15C1863.8 2196.33 1863.54 2196.68 1863.18 2197.22C1855.86 2207.04 1846.92 2211.96 1836.38 2211.96C1831.74 2211.96 1827.27 2211.42 1822.99 2210.35C1818.7 2209.28 1814.5 2207.58 1810.39 2205.26C1806.28 2202.94 1802.98 2199.45 1800.48 2194.81C1797.98 2190.16 1796.73 2184.54 1796.73 2177.93C1796.73 2168.28 1799.76 2155.24 1805.84 2138.8C1811.91 2122.37 1815.04 2111.92 1815.22 2107.45C1815.22 2107.27 1815.22 2107.1 1815.22 2106.92C1815.22 2105.31 1815.22 2104.24 1815.22 2103.7C1815.22 2103.17 1814.86 2102.54 1814.14 2101.83C1813.43 2101.11 1812.45 2100.75 1811.2 2100.75H1810.12C1806.02 2100.75 1802.26 2102.45 1798.87 2105.85C1795.48 2109.24 1792.8 2112.9 1790.83 2116.83C1788.87 2120.76 1787.35 2124.51 1786.28 2128.09C1785.2 2131.66 1784.49 2133.62 1784.13 2133.98C1783.77 2134.34 1782.35 2134.52 1779.84 2134.52H1776.09C1775.02 2133.45 1774.49 2132.64 1774.49 2132.11C1774.49 2131.03 1775.2 2128.53 1776.63 2124.6C1778.06 2120.67 1780.11 2116.12 1782.79 2110.94C1785.47 2105.76 1789.4 2101.11 1794.58 2097C1799.76 2092.89 1805.57 2090.84 1812 2090.84C1819.68 2090.84 1825.58 2093.07 1829.68 2097.54C1833.79 2102 1835.85 2107.19 1835.85 2113.08C1835.85 2116.3 1832.9 2125.94 1827.01 2142.02C1821.11 2158.1 1818.16 2170.51 1818.16 2179.27C1818.16 2187.48 1820.04 2193.29 1823.79 2196.68C1827.54 2200.08 1832.28 2201.86 1837.99 2202.04C1845.67 2202.04 1852.46 2196.59 1858.36 2185.7L1859.7 2183.29V2177.12C1859.7 2176.59 1859.7 2175.78 1859.7 2174.71C1859.7 2173.64 1859.79 2172.92 1859.96 2172.57C1860.14 2172.21 1860.23 2171.58 1860.23 2170.69C1860.23 2169.8 1860.32 2168.99 1860.5 2168.28C1860.68 2167.57 1860.95 2166.4 1861.3 2164.8C1861.66 2163.19 1861.93 2161.67 1862.11 2160.24C1862.29 2158.81 1862.82 2156.67 1863.72 2153.81C1864.61 2150.95 1865.32 2148.09 1865.86 2145.24C1866.4 2142.38 1867.38 2138.54 1868.81 2133.71C1873.99 2113.35 1876.93 2102.36 1877.65 2100.75C1879.97 2095.93 1883.81 2093.52 1889.17 2093.52C1892.57 2093.52 1894.89 2094.41 1896.14 2096.2C1897.39 2097.99 1898.1 2099.68 1898.28 2101.29C1898.28 2103.61 1895.69 2115.05 1890.51 2135.59C1885.33 2156.13 1882.47 2167.92 1881.94 2170.96C1881.58 2172.92 1881.4 2176.05 1881.4 2180.34V2182.21C1881.4 2184.89 1881.67 2187.48 1882.2 2189.98C1882.74 2192.49 1884.44 2195.08 1887.3 2197.76C1890.15 2200.43 1894.17 2201.86 1899.35 2202.04C1912.04 2202.04 1922.13 2191.15 1929.63 2169.35C1931.24 2165.24 1933.03 2159.44 1934.99 2151.93C1936.96 2144.43 1938.03 2139.07 1938.21 2135.86C1938.21 2129.96 1937.05 2125.32 1934.72 2121.92C1932.4 2118.53 1930.08 2115.67 1927.76 2113.35C1925.44 2111.03 1924.27 2108.53 1924.27 2105.85Z" fill="white"/>
<path d="M1984.78 2161.49C1981.37 2161.49 1978.71 2160.42 1976.82 2158.27C1974.93 2156.12 1973.92 2153.34 1973.79 2149.93C1973.79 2142.99 1976.82 2136.8 1982.88 2131.37C1988.94 2125.94 1996.27 2123.22 2004.86 2123.22C2009.28 2123.22 2012.06 2123.28 2013.19 2123.41C2022.54 2124.93 2029.68 2128.27 2034.6 2133.45C2039.53 2138.63 2042.05 2144.25 2042.18 2150.31C2042.18 2156.88 2040.03 2163.26 2035.74 2169.45C2031.44 2175.63 2025.51 2180.12 2017.93 2182.9L2017.36 2183.28C2017.36 2183.4 2017.93 2183.59 2019.07 2183.84C2020.2 2184.1 2022.03 2184.67 2024.56 2185.55C2027.09 2186.43 2029.49 2187.76 2031.76 2189.53C2042.12 2196.22 2047.29 2205.06 2047.29 2216.05C2047.29 2226.03 2043.38 2234.74 2035.55 2242.19C2027.72 2249.65 2017.8 2253.37 2005.81 2253.37C1995.7 2253.37 1986.99 2250.66 1979.66 2245.22C1972.34 2239.79 1968.67 2232.91 1968.67 2224.58C1968.67 2221.04 1969.81 2218.2 1972.08 2216.05C1974.36 2213.9 1977.2 2212.77 1980.61 2212.64C1984.15 2212.64 1987.05 2213.78 1989.32 2216.05C1991.6 2218.32 1992.73 2221.17 1992.73 2224.58C1992.73 2225.96 1992.54 2227.23 1992.17 2228.36C1991.79 2229.5 1991.34 2230.51 1990.84 2231.4C1990.33 2232.28 1989.64 2233.04 1988.76 2233.67C1987.87 2234.3 1987.11 2234.81 1986.48 2235.18C1985.85 2235.56 1985.22 2235.82 1984.59 2235.94C1983.96 2236.07 1983.45 2236.26 1983.07 2236.51L1982.31 2236.7C1988.76 2242.38 1996.59 2245.22 2005.81 2245.22C2012.75 2245.22 2017.99 2241.88 2021.53 2235.18C2023.68 2231.02 2024.75 2224.64 2024.75 2216.05V2212.26C2024.75 2200.26 2020.71 2192.24 2012.63 2188.2C2010.73 2187.44 2006.88 2187 2001.07 2186.88L1993.11 2186.69L1992.54 2186.31C1992.29 2185.93 1992.17 2184.92 1992.17 2183.28C1992.17 2181 1992.67 2179.87 1993.68 2179.87C1997.22 2179.87 2000.88 2179.55 2004.67 2178.92C2008.96 2178.29 2012.88 2175.63 2016.41 2170.96C2019.95 2166.29 2021.72 2159.22 2021.72 2149.74V2148.23C2021.72 2141.03 2019.51 2136.04 2015.09 2133.26C2012.31 2131.49 2009.34 2130.61 2006.18 2130.61C2002.14 2130.61 1998.42 2131.3 1995.01 2132.69C1991.6 2134.08 1989.2 2135.54 1987.81 2137.05C1986.42 2138.57 1985.72 2139.32 1985.72 2139.32H1986.29C1986.67 2139.45 1987.18 2139.58 1987.81 2139.7C1988.44 2139.83 1989.07 2140.15 1989.7 2140.65C1990.33 2141.16 1991.09 2141.6 1991.98 2141.98C1992.86 2142.36 1993.49 2143.05 1993.87 2144.06C1994.25 2145.07 1994.75 2146.02 1995.39 2146.9C1996.02 2147.79 1996.21 2149.05 1995.95 2150.69C1995.95 2153.47 1995.07 2155.93 1993.3 2158.08C1991.53 2160.23 1988.69 2161.36 1984.78 2161.49Z" fill="white"/>
</g>
<g clip-path="url(#clip5_168_699)">
<path d="M2726.03 1773.06C2726.03 1792.09 2718.47 1810.34 2705.01 1823.79C2691.56 1837.25 2673.31 1844.81 2654.28 1844.81C2635.25 1844.81 2617 1837.25 2603.54 1823.79C2590.09 1810.34 2582.53 1792.09 2582.53 1773.06C2582.53 1754.03 2590.09 1735.78 2603.54 1722.32C2617 1708.87 2635.25 1701.31 2654.28 1701.31C2673.31 1701.31 2691.56 1708.87 2705.01 1722.32C2718.47 1735.78 2726.03 1754.03 2726.03 1773.06Z" fill="white"/>
<path fill-rule="evenodd" clip-rule="evenodd" d="M2462.95 1820.89C2462.95 1770.15 2483.11 1721.48 2518.99 1685.6C2554.87 1649.72 2603.53 1629.56 2654.28 1629.56C2705.02 1629.56 2753.69 1649.72 2789.57 1685.6C2825.45 1721.48 2845.61 1770.15 2845.61 1820.89C2845.61 1871.63 2825.45 1920.3 2789.57 1956.18C2753.69 1992.06 2705.02 2012.22 2654.28 2012.22C2603.53 2012.22 2554.87 1992.06 2518.99 1956.18C2483.11 1920.3 2462.95 1871.63 2462.95 1820.89ZM2654.28 1653.48C2622.75 1653.48 2591.86 1662.38 2565.18 1679.16C2538.49 1695.94 2517.08 1719.92 2503.41 1748.33C2489.75 1776.75 2484.39 1808.44 2487.94 1839.76C2491.49 1871.09 2503.82 1900.78 2523.5 1925.41C2540.48 1898.04 2577.87 1868.72 2654.28 1868.72C2730.69 1868.72 2768.05 1898.02 2785.05 1925.41C2804.73 1900.78 2817.06 1871.09 2820.62 1839.76C2824.17 1808.44 2818.81 1776.75 2805.14 1748.33C2791.48 1719.92 2770.07 1695.94 2743.38 1679.16C2716.69 1662.38 2685.8 1653.48 2654.28 1653.48Z" fill="white"/>
</g>
<g clip-path="url(#clip6_168_699)">
<path d="M2659.8 2098.51C2659.8 2094.69 2661.53 2091.13 2665 2087.85C2668.46 2084.57 2672.29 2082.84 2676.48 2082.66C2679.76 2082.66 2682.77 2084.3 2685.5 2087.58C2688.24 2090.86 2689.7 2096.05 2689.88 2103.16C2689.88 2108.45 2688.15 2118.93 2684.68 2134.61C2681.95 2144.81 2679.49 2153.2 2677.3 2159.76C2675.11 2166.32 2671.92 2173.71 2667.73 2181.91C2663.54 2190.11 2658.52 2196.31 2652.69 2200.5C2646.86 2204.69 2640.3 2206.79 2633 2206.79C2624.98 2206.79 2617.88 2205.33 2611.68 2202.42C2605.48 2199.5 2601.01 2195.58 2598.28 2190.66C2598.1 2190.84 2597.82 2191.21 2597.46 2191.75C2589.99 2201.78 2580.87 2206.79 2570.12 2206.79C2565.38 2206.79 2560.82 2206.24 2556.45 2205.15C2552.07 2204.06 2547.79 2202.33 2543.59 2199.96C2539.4 2197.59 2536.03 2194.03 2533.48 2189.29C2530.93 2184.55 2529.65 2178.81 2529.65 2172.07C2529.65 2162.22 2532.75 2148.92 2538.95 2132.15C2545.14 2115.38 2548.33 2104.71 2548.52 2100.15C2548.52 2099.97 2548.52 2099.79 2548.52 2099.61C2548.52 2097.97 2548.52 2096.87 2548.52 2096.33C2548.52 2095.78 2548.15 2095.14 2547.42 2094.41C2546.69 2093.68 2545.69 2093.32 2544.41 2093.32H2543.32C2539.13 2093.32 2535.3 2095.05 2531.84 2098.51C2528.37 2101.98 2525.64 2105.71 2523.63 2109.72C2521.63 2113.73 2520.08 2117.56 2518.99 2121.21C2517.89 2124.85 2517.16 2126.86 2516.8 2127.22C2516.43 2127.59 2514.98 2127.77 2512.42 2127.77H2508.6C2507.5 2126.68 2506.96 2125.86 2506.96 2125.31C2506.96 2124.22 2507.68 2121.66 2509.14 2117.65C2510.6 2113.64 2512.7 2109 2515.43 2103.71C2518.17 2098.42 2522.18 2093.68 2527.46 2089.49C2532.75 2085.3 2538.67 2083.2 2545.23 2083.2C2553.07 2083.2 2559.09 2085.48 2563.28 2090.04C2567.47 2094.59 2569.57 2099.88 2569.57 2105.9C2569.57 2109.18 2566.56 2119.02 2560.55 2135.43C2554.53 2151.83 2551.52 2164.5 2551.52 2173.43C2551.52 2181.82 2553.44 2187.74 2557.27 2191.21C2561.09 2194.67 2565.92 2196.49 2571.76 2196.67C2579.6 2196.67 2586.52 2191.11 2592.54 2180L2593.9 2177.53V2171.25C2593.9 2170.7 2593.9 2169.88 2593.9 2168.78C2593.9 2167.69 2594 2166.96 2594.18 2166.6C2594.36 2166.23 2594.45 2165.59 2594.45 2164.68C2594.45 2163.77 2594.54 2162.95 2594.73 2162.22C2594.91 2161.49 2595.18 2160.31 2595.55 2158.67C2595.91 2157.03 2596.18 2155.48 2596.37 2154.02C2596.55 2152.56 2597.09 2150.37 2598.01 2147.46C2598.92 2144.54 2599.65 2141.62 2600.19 2138.71C2600.74 2135.79 2601.74 2131.87 2603.2 2126.95C2608.49 2106.17 2611.5 2094.96 2612.22 2093.32C2614.59 2088.4 2618.51 2085.94 2623.98 2085.94C2627.45 2085.94 2629.81 2086.85 2631.09 2088.67C2632.37 2090.49 2633.1 2092.23 2633.28 2093.87C2633.28 2096.24 2630.64 2107.9 2625.35 2128.86C2620.06 2149.83 2617.15 2161.86 2616.6 2164.96C2616.23 2166.96 2616.05 2170.15 2616.05 2174.53V2176.44C2616.05 2179.17 2616.33 2181.82 2616.87 2184.37C2617.42 2186.92 2619.15 2189.57 2622.07 2192.3C2624.98 2195.03 2629.09 2196.49 2634.37 2196.67C2647.31 2196.67 2657.61 2185.55 2665.27 2163.32C2666.91 2159.12 2668.73 2153.2 2670.74 2145.54C2672.74 2137.89 2673.84 2132.42 2674.02 2129.14C2674.02 2123.12 2672.83 2118.38 2670.46 2114.92C2668.09 2111.46 2665.72 2108.54 2663.36 2106.17C2660.99 2103.8 2659.8 2101.25 2659.8 2098.51Z" fill="white"/>
<path d="M2786.3 2244.8C2783.98 2244.41 2775.66 2244.22 2761.36 2244.22C2746.41 2244.22 2737.77 2244.41 2735.45 2244.8H2733.71V2235.9H2739.71C2742.28 2235.9 2744.02 2235.9 2744.93 2235.9C2745.83 2235.9 2746.92 2235.78 2748.21 2235.52C2749.5 2235.26 2750.4 2234.94 2750.92 2234.55C2751.43 2234.16 2751.89 2233.65 2752.27 2233C2752.4 2232.75 2752.47 2229.27 2752.47 2222.57V2212.9H2702.4V2204.01L2731.59 2159.35C2751.31 2129.45 2761.29 2114.44 2761.55 2114.31C2761.81 2114.05 2763.16 2113.92 2765.61 2113.92H2769.09L2770.25 2115.08V2204.01H2788.03V2212.9H2770.25V2222.76C2770.25 2228.04 2770.25 2231.14 2770.25 2232.04C2770.25 2232.94 2770.64 2233.71 2771.41 2234.36C2772.44 2235.26 2776.11 2235.78 2782.43 2235.9H2788.03V2244.8H2786.3ZM2753.63 2204.01V2139.44L2711.29 2203.81L2732.36 2204.01H2753.63Z" fill="white"/>
</g>
<defs>
<clipPath id="clip0_168_699">
<rect width="263.271" height="139.482" fill="white" transform="translate(316.403 2097.18)"/>
</clipPath>
<clipPath id="clip1_168_699">
<rect width="382.661" height="382.661" fill="white" transform="translate(992.12 1637.23)"/>
</clipPath>
<clipPath id="clip2_168_699">
<rect width="303.067" height="160.567" fill="white" transform="translate(1031.92 2079.59)"/>
</clipPath>
<clipPath id="clip3_168_699">
<rect width="382.661" height="382.661" fill="white" transform="translate(1727.53 1637.23)"/>
</clipPath>
<clipPath id="clip4_168_699">
<rect width="300.006" height="163.091" fill="white" transform="translate(1768.86 2090.3)"/>
</clipPath>
<clipPath id="clip5_168_699">
<rect width="382.661" height="382.661" fill="white" transform="translate(2462.95 1629.56)"/>
</clipPath>
<clipPath id="clip6_168_699">
<rect width="306.129" height="162.189" fill="white" transform="translate(2501.21 2082.63)"/>
</clipPath>
</defs>
</svg>
