<svg width="3101" height="2406" viewBox="0 0 3101 2406" fill="none" xmlns="http://www.w3.org/2000/svg">
<rect x="645.237" y="127.432" width="1809.89" height="968.266" rx="25.9388" fill="#FFC9C9" stroke="black" stroke-width="19.0563"/>
<path d="M1459.46 443.492V356.552H1425.17V336.347H1518.54V356.552H1484.25V443.492H1459.46ZM1528.41 443.492V361.144H1551.21V384.409L1548 377.675C1550.45 371.858 1554.38 367.47 1559.78 364.511C1565.19 361.45 1571.77 359.919 1579.53 359.919V381.96C1578.51 381.858 1577.59 381.807 1576.77 381.807C1575.96 381.705 1575.09 381.654 1574.17 381.654C1567.64 381.654 1562.33 383.542 1558.25 387.318C1554.27 390.991 1552.28 396.757 1552.28 404.614V443.492H1528.41ZM1629.07 444.717C1622.23 444.717 1616.11 443.39 1610.7 440.737C1605.4 438.084 1601.26 434.053 1598.3 428.645C1595.35 423.135 1593.87 416.145 1593.87 407.675V361.144H1617.74V404.155C1617.74 410.992 1619.17 416.043 1622.03 419.308C1624.99 422.471 1629.12 424.053 1634.43 424.053C1638.1 424.053 1641.37 423.288 1644.22 421.757C1647.08 420.124 1649.33 417.675 1650.96 414.41C1652.59 411.043 1653.41 406.859 1653.41 401.859V361.144H1677.29V443.492H1654.63V420.839L1658.76 427.421C1656.01 433.135 1651.93 437.472 1646.52 440.431C1641.21 443.288 1635.4 444.717 1629.07 444.717ZM1727.11 444.717C1720.07 444.717 1713.28 443.9 1706.75 442.268C1700.33 440.533 1695.22 438.39 1691.45 435.839L1699.41 418.696C1703.18 421.043 1707.62 422.982 1712.72 424.512C1717.93 425.941 1723.03 426.655 1728.03 426.655C1733.54 426.655 1737.42 425.992 1739.66 424.665C1742.01 423.339 1743.18 421.502 1743.18 419.155C1743.18 417.216 1742.27 415.788 1740.43 414.869C1738.69 413.849 1736.35 413.084 1733.39 412.573C1730.43 412.063 1727.16 411.553 1723.59 411.043C1720.12 410.532 1716.6 409.869 1713.03 409.053C1709.46 408.134 1706.19 406.808 1703.23 405.073C1700.27 403.338 1697.88 400.991 1696.04 398.032C1694.3 395.073 1693.44 391.246 1693.44 386.552C1693.44 381.348 1694.92 376.756 1697.88 372.777C1700.94 368.797 1705.33 365.685 1711.04 363.44C1716.75 361.093 1723.59 359.919 1731.55 359.919C1737.16 359.919 1742.88 360.531 1748.69 361.756C1754.51 362.98 1759.36 364.766 1763.23 367.113L1755.28 384.103C1751.3 381.756 1747.27 380.175 1743.18 379.358C1739.2 378.44 1735.33 377.981 1731.55 377.981C1726.24 377.981 1722.37 378.695 1719.92 380.124C1717.47 381.552 1716.24 383.389 1716.24 385.634C1716.24 387.675 1717.11 389.205 1718.85 390.226C1720.68 391.246 1723.08 392.063 1726.04 392.675C1729 393.287 1732.21 393.848 1735.68 394.359C1739.25 394.767 1742.83 395.43 1746.4 396.348C1749.97 397.267 1753.18 398.593 1756.04 400.328C1759 401.961 1761.4 404.257 1763.23 407.216C1765.07 410.073 1765.99 413.849 1765.99 418.543C1765.99 423.645 1764.46 428.186 1761.4 432.166C1758.34 436.043 1753.9 439.104 1748.08 441.349C1742.37 443.594 1735.38 444.717 1727.11 444.717ZM1814.4 444.717C1804.7 444.717 1797.15 442.268 1791.74 437.37C1786.33 432.37 1783.63 424.971 1783.63 415.175V342.929H1807.51V414.869C1807.51 418.339 1808.43 421.043 1810.26 422.982C1812.1 424.818 1814.6 425.737 1817.76 425.737C1821.54 425.737 1824.75 424.716 1827.41 422.676L1833.84 439.513C1831.39 441.247 1828.43 442.574 1824.96 443.492C1821.59 444.309 1818.07 444.717 1814.4 444.717ZM1770.93 381.348V362.98H1828.02V381.348H1770.93ZM1885.57 444.717C1876.18 444.717 1867.91 442.88 1860.77 439.206C1853.73 435.533 1848.27 430.533 1844.39 424.206C1840.51 417.777 1838.58 410.481 1838.58 402.318C1838.58 394.053 1840.46 386.756 1844.24 380.43C1848.12 374.001 1853.37 369.001 1860 365.429C1866.64 361.756 1874.14 359.919 1882.51 359.919C1890.57 359.919 1897.81 361.654 1904.24 365.123C1910.77 368.491 1915.92 373.389 1919.7 379.818C1923.48 386.144 1925.36 393.746 1925.36 402.624C1925.36 403.542 1925.31 404.614 1925.21 405.838C1925.11 406.961 1925.01 408.032 1924.9 409.053H1858.02V395.124H1912.35L1903.17 399.257C1903.17 394.971 1902.3 391.246 1900.57 388.083C1898.83 384.92 1896.43 382.471 1893.37 380.736C1890.31 378.899 1886.74 377.981 1882.66 377.981C1878.58 377.981 1874.95 378.899 1871.79 380.736C1868.73 382.471 1866.33 384.971 1864.6 388.236C1862.86 391.399 1861.99 395.175 1861.99 399.563V403.236C1861.99 407.726 1862.96 411.706 1864.9 415.175C1866.94 418.543 1869.75 421.145 1873.32 422.982C1877 424.716 1881.28 425.584 1886.18 425.584C1890.57 425.584 1894.39 424.92 1897.66 423.594C1901.03 422.267 1904.09 420.278 1906.84 417.624L1919.55 431.4C1915.77 435.686 1911.03 439.002 1905.31 441.349C1899.6 443.594 1893.02 444.717 1885.57 444.717ZM1976.62 444.717C1968.86 444.717 1961.87 442.982 1955.65 439.513C1949.42 435.941 1944.47 430.992 1940.8 424.665C1937.23 418.339 1935.44 410.89 1935.44 402.318C1935.44 393.644 1937.23 386.144 1940.8 379.818C1944.47 373.491 1949.42 368.593 1955.65 365.123C1961.87 361.654 1968.86 359.919 1976.62 359.919C1983.56 359.919 1989.63 361.45 1994.83 364.511C2000.04 367.572 2004.07 372.215 2006.93 378.44C2009.78 384.665 2011.21 392.624 2011.21 402.318C2011.21 411.91 2009.83 419.869 2007.08 426.196C2004.32 432.421 2000.34 437.064 1995.14 440.125C1990.04 443.186 1983.86 444.717 1976.62 444.717ZM1980.75 425.125C1984.63 425.125 1988.15 424.206 1991.31 422.369C1994.48 420.533 1996.98 417.931 1998.81 414.563C2000.75 411.094 2001.72 407.012 2001.72 402.318C2001.72 397.522 2000.75 393.44 1998.81 390.073C1996.98 386.705 1994.48 384.103 1991.31 382.267C1988.15 380.43 1984.63 379.511 1980.75 379.511C1976.77 379.511 1973.2 380.43 1970.04 382.267C1966.87 384.103 1964.32 386.705 1962.38 390.073C1960.55 393.44 1959.63 397.522 1959.63 402.318C1959.63 407.012 1960.55 411.094 1962.38 414.563C1964.32 417.931 1966.87 420.533 1970.04 422.369C1973.2 424.206 1976.77 425.125 1980.75 425.125ZM2002.33 443.492V426.655L2002.79 402.165L2001.26 377.828V329.919H2025.14V443.492H2002.33ZM1385.41 532.511H1436.99V551.797H1385.41V532.511ZM1387.24 576.594H1445.56V596.492H1362.6V489.347H1443.57V509.246H1387.24V576.594ZM1485.21 596.492L1450.61 514.144H1475.26L1504.03 585.012H1491.79L1521.64 514.144H1544.6L1509.85 596.492H1485.21ZM1602.16 596.492V580.421L1600.63 576.9V548.124C1600.63 543.022 1599.05 539.042 1595.88 536.185C1592.82 533.328 1588.08 531.899 1581.65 531.899C1577.26 531.899 1572.93 532.613 1568.64 534.042C1564.46 535.369 1560.88 537.205 1557.92 539.552L1549.35 522.868C1553.84 519.705 1559.25 517.256 1565.58 515.521C1571.9 513.787 1578.33 512.919 1584.86 512.919C1597.42 512.919 1607.16 515.878 1614.1 521.797C1621.04 527.715 1624.51 536.95 1624.51 549.502V596.492H1602.16ZM1577.06 597.717C1570.63 597.717 1565.12 596.645 1560.53 594.502C1555.93 592.258 1552.41 589.247 1549.97 585.472C1547.52 581.696 1546.29 577.461 1546.29 572.767C1546.29 567.869 1547.47 563.583 1549.81 559.91C1552.26 556.236 1556.09 553.379 1561.29 551.338C1566.5 549.195 1573.28 548.124 1581.65 548.124H1603.54V562.053H1584.25C1578.64 562.053 1574.76 562.971 1572.62 564.808C1570.58 566.645 1569.56 568.941 1569.56 571.696C1569.56 574.757 1570.73 577.206 1573.08 579.043C1575.53 580.778 1578.84 581.645 1583.03 581.645C1587.01 581.645 1590.58 580.727 1593.74 578.89C1596.91 576.951 1599.2 574.145 1600.63 570.471L1604.3 581.492C1602.57 586.798 1599.41 590.829 1594.81 593.584C1590.22 596.339 1584.3 597.717 1577.06 597.717ZM1646.12 596.492V482.919H1670V596.492H1646.12ZM1726.9 597.717C1720.07 597.717 1713.94 596.39 1708.54 593.737C1703.23 591.084 1699.1 587.053 1696.14 581.645C1693.18 576.135 1691.7 569.145 1691.7 560.675V514.144H1715.58V557.155C1715.58 563.992 1717 569.043 1719.86 572.308C1722.82 575.471 1726.95 577.053 1732.26 577.053C1735.93 577.053 1739.2 576.288 1742.06 574.757C1744.91 573.124 1747.16 570.675 1748.79 567.41C1750.42 564.043 1751.24 559.859 1751.24 554.859V514.144H1775.12V596.492H1752.46V573.839L1756.6 580.421C1753.84 586.135 1749.76 590.472 1744.35 593.431C1739.05 596.288 1733.23 597.717 1726.9 597.717ZM1847.75 596.492V580.421L1846.22 576.9V548.124C1846.22 543.022 1844.64 539.042 1841.48 536.185C1838.41 533.328 1833.67 531.899 1827.24 531.899C1822.85 531.899 1818.52 532.613 1814.23 534.042C1810.05 535.369 1806.47 537.205 1803.52 539.552L1794.94 522.868C1799.43 519.705 1804.84 517.256 1811.17 515.521C1817.5 513.787 1823.92 512.919 1830.45 512.919C1843.01 512.919 1852.75 515.878 1859.69 521.797C1866.63 527.715 1870.1 536.95 1870.1 549.502V596.492H1847.75ZM1822.65 597.717C1816.22 597.717 1810.71 596.645 1806.12 594.502C1801.53 592.258 1798 589.247 1795.56 585.472C1793.11 581.696 1791.88 577.461 1791.88 572.767C1791.88 567.869 1793.06 563.583 1795.4 559.91C1797.85 556.236 1801.68 553.379 1806.88 551.338C1812.09 549.195 1818.87 548.124 1827.24 548.124H1849.13V562.053H1829.84C1824.23 562.053 1820.35 562.971 1818.21 564.808C1816.17 566.645 1815.15 568.941 1815.15 571.696C1815.15 574.757 1816.32 577.206 1818.67 579.043C1821.12 580.778 1824.43 581.645 1828.62 581.645C1832.6 581.645 1836.17 580.727 1839.33 578.89C1842.5 576.951 1844.79 574.145 1846.22 570.471L1849.89 581.492C1848.16 586.798 1845 590.829 1840.4 593.584C1835.81 596.339 1829.89 597.717 1822.65 597.717ZM1925.38 597.717C1915.69 597.717 1908.14 595.268 1902.73 590.37C1897.32 585.37 1894.62 577.971 1894.62 568.175V495.929H1918.5V567.869C1918.5 571.339 1919.41 574.043 1921.25 575.982C1923.09 577.818 1925.59 578.737 1928.75 578.737C1932.53 578.737 1935.74 577.716 1938.39 575.676L1944.82 592.513C1942.37 594.247 1939.41 595.574 1935.94 596.492C1932.58 597.309 1929.06 597.717 1925.38 597.717ZM1881.91 534.348V515.98H1939.01V534.348H1881.91ZM1994.87 597.717C1986.09 597.717 1978.29 595.88 1971.45 592.206C1964.72 588.533 1959.36 583.533 1955.38 577.206C1951.5 570.777 1949.56 563.481 1949.56 555.318C1949.56 547.053 1951.5 539.756 1955.38 533.43C1959.36 527.001 1964.72 522.001 1971.45 518.429C1978.29 514.756 1986.09 512.919 1994.87 512.919C2003.54 512.919 2011.3 514.756 2018.14 518.429C2024.97 522.001 2030.33 526.95 2034.21 533.277C2038.08 539.603 2040.02 546.95 2040.02 555.318C2040.02 563.481 2038.08 570.777 2034.21 577.206C2030.33 583.533 2024.97 588.533 2018.14 592.206C2011.3 595.88 2003.54 597.717 1994.87 597.717ZM1994.87 578.125C1998.85 578.125 2002.42 577.206 2005.58 575.369C2008.75 573.533 2011.25 570.931 2013.08 567.563C2014.92 564.094 2015.84 560.012 2015.84 555.318C2015.84 550.522 2014.92 546.44 2013.08 543.073C2011.25 539.705 2008.75 537.103 2005.58 535.267C2002.42 533.43 1998.85 532.511 1994.87 532.511C1990.89 532.511 1987.32 533.43 1984.16 535.267C1980.99 537.103 1978.44 539.705 1976.5 543.073C1974.67 546.44 1973.75 550.522 1973.75 555.318C1973.75 560.012 1974.67 564.094 1976.5 567.563C1978.44 570.931 1980.99 573.533 1984.16 575.369C1987.32 577.206 1990.89 578.125 1994.87 578.125ZM2055.98 596.492V514.144H2078.79V537.409L2075.58 530.675C2078.03 524.858 2081.95 520.47 2087.36 517.511C2092.77 514.45 2099.35 512.919 2107.11 512.919V534.96C2106.09 534.858 2105.17 534.807 2104.35 534.807C2103.54 534.705 2102.67 534.654 2101.75 534.654C2095.22 534.654 2089.91 536.542 2085.83 540.318C2081.85 543.991 2079.86 549.757 2079.86 557.614V596.492H2055.98Z" fill="black"/>
<path d="M802.261 909.709C802.54 909.709 802.959 909.848 803.516 910.127C804.074 910.406 804.841 910.615 805.818 910.755C806.794 910.894 807.631 910.964 808.328 910.964C810.141 910.964 811.814 910.057 813.349 908.244C814.883 906.431 815.998 904.409 816.696 902.178C818.09 898.412 820.461 887.743 823.808 870.171C827.155 852.599 830.363 835.863 833.431 819.965C836.499 804.066 838.033 796.047 838.033 795.907V795.28H828.201C821.647 795.28 818.16 795.14 817.742 794.861C817.184 794.443 816.905 793.746 816.905 792.769L818.369 786.912C818.648 786.215 819.206 785.866 820.043 785.866C820.88 785.866 824.157 785.796 829.875 785.657C836.569 785.657 839.916 785.587 839.916 785.448C839.916 785.169 840.544 781.682 841.799 774.988C843.054 768.294 843.891 764.249 844.309 762.855C849.469 739.843 859.65 728.338 874.852 728.338C880.012 728.617 884.265 730.151 887.612 732.94C890.96 735.729 892.633 739.425 892.633 744.027C892.633 749.048 891.169 752.674 888.24 754.905C885.311 757.137 882.383 758.322 879.454 758.462C873.317 758.462 870.249 755.533 870.249 749.675C870.249 747.026 871.016 744.725 872.55 742.772C874.085 740.82 875.758 739.355 877.571 738.379L879.454 737.333C877.222 736.496 875.13 736.078 873.178 736.078C871.504 736.078 869.901 736.775 868.367 738.17C866.832 739.564 865.786 741.517 865.229 744.027C864.252 748.072 863.137 753.511 861.882 760.344C860.626 767.178 859.511 772.966 858.534 777.707C857.558 782.449 857.07 784.959 857.07 785.238C857.07 785.517 860.905 785.657 868.576 785.657C874.852 785.657 878.478 785.727 879.454 785.866C880.43 786.005 881.197 786.424 881.755 787.121C881.894 787.679 881.755 788.864 881.337 790.677C880.918 792.49 880.57 793.606 880.291 794.025C880.012 794.722 879.384 795.071 878.408 795.071C877.432 795.071 873.666 795.14 867.111 795.28H855.397L850.585 820.801C843.891 855.388 839.219 877.005 836.569 885.652C832.804 897.506 827.922 906.292 821.925 912.01C816.765 916.473 811.675 918.704 806.654 918.704C802.192 918.704 798.147 917.379 794.521 914.729C790.895 912.08 789.082 908.314 789.082 903.433C789.082 898.273 790.546 894.507 793.475 892.137C796.404 889.766 799.333 888.58 802.261 888.58C808.398 888.58 811.466 891.509 811.466 897.366C811.466 900.016 810.699 902.317 809.165 904.27C807.631 906.222 805.957 907.687 804.144 908.663L802.261 909.709Z" fill="black"/>
<path d="M912.299 823.521C912.299 813.898 912.996 804.763 914.391 796.117C915.785 787.47 917.389 780.009 919.202 773.733C921.015 767.457 923.595 761.321 926.942 755.324C930.29 749.327 932.939 744.655 934.892 741.308C936.844 737.961 939.773 734.335 943.678 730.43C947.583 726.525 949.884 724.154 950.581 723.317C951.279 722.48 953.022 721.016 955.811 718.924H958.531H959.367C961.32 718.924 962.296 719.552 962.296 720.807C962.296 721.225 961.111 722.689 958.74 725.2C956.369 727.71 953.51 731.406 950.163 736.287C946.816 741.168 943.399 747.165 939.912 754.278C936.426 761.39 933.497 771.013 931.126 783.146C928.755 795.28 927.57 808.738 927.57 823.521C927.57 838.304 928.755 851.692 931.126 863.686C933.497 875.68 936.356 885.373 939.703 892.764C943.05 900.156 946.467 906.153 949.954 910.755C953.44 915.357 956.369 919.053 958.74 921.842C961.111 924.631 962.296 926.096 962.296 926.235C962.296 927.49 961.25 928.118 959.158 928.118H958.531H955.811L949.954 923.097C936.844 911.243 927.291 896.46 921.294 878.748C915.297 861.036 912.299 842.627 912.299 823.521Z" fill="black"/>
<path d="M1095.34 795.28C1095.34 792.351 1096.67 789.631 1099.32 787.121C1101.97 784.611 1104.89 783.286 1108.1 783.146C1110.61 783.146 1112.91 784.402 1115.01 786.912C1117.1 789.422 1118.21 793.397 1118.35 798.836C1118.35 802.88 1117.03 810.9 1114.38 822.893C1112.29 830.703 1110.4 837.119 1108.73 842.139C1107.06 847.16 1104.62 852.808 1101.41 859.084C1098.2 865.36 1094.37 870.101 1089.9 873.309C1085.44 876.517 1080.42 878.121 1074.84 878.121C1068.7 878.121 1063.27 877.005 1058.52 874.773C1053.78 872.542 1050.37 869.544 1048.27 865.778C1048.13 865.918 1047.92 866.196 1047.65 866.615C1041.93 874.285 1034.95 878.121 1026.73 878.121C1023.1 878.121 1019.61 877.702 1016.27 876.865C1012.92 876.029 1009.64 874.704 1006.43 872.891C1003.23 871.078 1000.65 868.358 998.694 864.732C996.742 861.106 995.765 856.713 995.765 851.553C995.765 844.022 998.136 833.841 1002.88 821.011C1007.62 808.18 1010.06 800.021 1010.2 796.535C1010.2 796.395 1010.2 796.256 1010.2 796.116C1010.2 794.861 1010.2 794.025 1010.2 793.606C1010.2 793.188 1009.92 792.7 1009.36 792.142C1008.81 791.584 1008.04 791.305 1007.06 791.305H1006.23C1003.02 791.305 1000.09 792.63 997.439 795.28C994.789 797.93 992.697 800.788 991.163 803.857C989.629 806.925 988.444 809.854 987.607 812.643C986.77 815.432 986.212 816.966 985.933 817.245C985.654 817.524 984.539 817.663 982.586 817.663H979.658C978.821 816.827 978.402 816.199 978.402 815.781C978.402 814.944 978.96 812.991 980.076 809.923C981.192 806.855 982.795 803.299 984.887 799.254C986.979 795.21 990.047 791.584 994.092 788.376C998.136 785.169 1002.67 783.565 1007.69 783.565C1013.69 783.565 1018.29 785.308 1021.5 788.795C1024.7 792.281 1026.31 796.326 1026.31 800.928C1026.31 803.438 1024.01 810.969 1019.4 823.521C1014.8 836.073 1012.5 845.765 1012.5 852.599C1012.5 859.014 1013.97 863.547 1016.89 866.196C1019.82 868.846 1023.52 870.241 1027.98 870.38C1033.98 870.38 1039.28 866.127 1043.88 857.62L1044.93 855.737V850.925C1044.93 850.507 1044.93 849.879 1044.93 849.043C1044.93 848.206 1045 847.648 1045.14 847.369C1045.27 847.09 1045.34 846.602 1045.34 845.905C1045.34 845.207 1045.41 844.58 1045.55 844.022C1045.69 843.464 1045.9 842.558 1046.18 841.302C1046.46 840.047 1046.67 838.862 1046.81 837.746C1046.95 836.63 1047.37 834.957 1048.06 832.725C1048.76 830.494 1049.32 828.263 1049.74 826.031C1050.16 823.8 1050.92 820.801 1052.04 817.036C1056.08 801.137 1058.38 792.56 1058.94 791.305C1060.76 787.54 1063.75 785.657 1067.94 785.657C1070.59 785.657 1072.4 786.354 1073.38 787.749C1074.35 789.143 1074.91 790.468 1075.05 791.723C1075.05 793.536 1073.03 802.462 1068.98 818.5C1064.94 834.538 1062.71 843.743 1062.29 846.114C1062.01 847.648 1061.87 850.089 1061.87 853.436V854.9C1061.87 856.992 1062.08 859.014 1062.5 860.967C1062.92 862.919 1064.24 864.941 1066.47 867.033C1068.7 869.125 1071.84 870.241 1075.89 870.38C1085.79 870.38 1093.67 861.873 1099.53 844.859C1100.78 841.651 1102.18 837.119 1103.71 831.261C1105.24 825.404 1106.08 821.22 1106.22 818.709C1106.22 814.107 1105.31 810.481 1103.5 807.831C1101.69 805.182 1099.87 802.95 1098.06 801.137C1096.25 799.324 1095.34 797.372 1095.34 795.28Z" fill="black"/>
<path d="M1155.3 821.712L1153.37 822.452C1151.99 822.945 1150.02 823.438 1147.46 823.931C1144.9 824.424 1142.04 824.769 1138.88 824.966H1136.07V818.163H1138.88C1143.51 817.965 1147.8 817.226 1151.75 815.944C1155.69 814.662 1158.45 813.479 1160.03 812.394C1161.61 811.31 1162.99 810.225 1164.17 809.141C1164.37 808.845 1164.96 808.697 1165.95 808.697C1166.83 808.697 1167.67 808.993 1168.46 809.584V853.807L1168.61 898.177C1169.3 898.867 1169.89 899.31 1170.38 899.508C1170.88 899.705 1172.06 899.902 1173.93 900.099C1175.81 900.296 1178.86 900.395 1183.1 900.395H1186.95V907.198H1185.32C1183.25 906.903 1175.41 906.755 1161.8 906.755C1148.4 906.755 1140.66 906.903 1138.58 907.198H1136.81V900.395H1140.66C1142.82 900.395 1144.7 900.395 1146.28 900.395C1147.85 900.395 1149.09 900.346 1149.97 900.247C1150.86 900.149 1151.65 900.001 1152.34 899.803C1153.03 899.606 1153.42 899.508 1153.52 899.508C1153.62 899.508 1153.92 899.261 1154.41 898.768C1154.9 898.275 1155.2 898.078 1155.3 898.177V821.712Z" fill="black"/>
<path d="M1224.54 868.498C1224.54 868.498 1224.54 866.754 1224.54 863.268C1224.54 859.781 1225.65 856.783 1227.88 854.272C1230.12 851.762 1233.11 850.507 1236.88 850.507C1240.78 850.507 1244.27 852.25 1247.34 855.737C1250.41 859.223 1252.01 865.36 1252.15 874.146C1252.15 879.027 1251.52 883.769 1250.27 888.371C1249.01 892.973 1247.55 896.948 1245.87 900.295C1244.2 903.642 1242.39 906.501 1240.44 908.872C1238.48 911.243 1236.81 913.126 1235.42 914.52C1234.02 915.915 1233.11 916.542 1232.7 916.403C1232.14 916.403 1231.23 915.775 1229.98 914.52C1228.72 913.265 1228.09 912.359 1228.09 911.801C1228.09 911.243 1228.86 910.127 1230.39 908.454C1231.93 906.78 1233.67 904.688 1235.62 902.178C1237.58 899.667 1239.39 896.181 1241.06 891.718C1242.74 887.255 1243.85 882.165 1244.41 876.447V873.937L1244.2 874.146C1243.92 874.285 1243.57 874.425 1243.16 874.564C1242.74 874.704 1242.32 874.913 1241.9 875.192C1241.48 875.471 1240.85 875.61 1240.02 875.61C1239.18 875.61 1238.34 875.68 1237.51 875.819C1233.74 875.819 1230.67 874.634 1228.3 872.263L1224.54 868.498Z" fill="black"/>
<path d="M1422.56 795.28C1422.56 792.351 1423.88 789.631 1426.53 787.121C1429.18 784.611 1432.11 783.286 1435.32 783.146C1437.83 783.146 1440.13 784.402 1442.22 786.912C1444.31 789.422 1445.43 793.397 1445.57 798.836C1445.57 802.88 1444.25 810.899 1441.6 822.893C1439.5 830.703 1437.62 837.118 1435.95 842.139C1434.27 847.16 1431.83 852.808 1428.63 859.084C1425.42 865.36 1421.58 870.101 1417.12 873.309C1412.66 876.517 1407.64 878.12 1402.06 878.12C1395.92 878.12 1390.48 877.005 1385.74 874.773C1381 872.542 1377.58 869.543 1375.49 865.778C1375.35 865.917 1375.14 866.196 1374.86 866.615C1369.14 874.285 1362.17 878.12 1353.94 878.12C1350.32 878.12 1346.83 877.702 1343.48 876.865C1340.14 876.028 1336.86 874.704 1333.65 872.891C1330.44 871.078 1327.86 868.358 1325.91 864.732C1323.96 861.106 1322.98 856.713 1322.98 851.553C1322.98 844.022 1325.35 833.841 1330.09 821.01C1334.84 808.18 1337.28 800.021 1337.42 796.535C1337.42 796.395 1337.42 796.256 1337.42 796.116C1337.42 794.861 1337.42 794.024 1337.42 793.606C1337.42 793.188 1337.14 792.7 1336.58 792.142C1336.02 791.584 1335.25 791.305 1334.28 791.305H1333.44C1330.23 791.305 1327.31 792.63 1324.66 795.28C1322.01 797.929 1319.91 800.788 1318.38 803.857C1316.85 806.925 1315.66 809.853 1314.82 812.643C1313.99 815.432 1313.43 816.966 1313.15 817.245C1312.87 817.524 1311.76 817.663 1309.8 817.663H1306.87C1306.04 816.827 1305.62 816.199 1305.62 815.781C1305.62 814.944 1306.18 812.991 1307.29 809.923C1308.41 806.855 1310.01 803.299 1312.1 799.254C1314.2 795.21 1317.26 791.584 1321.31 788.376C1325.35 785.169 1329.89 783.565 1334.91 783.565C1340.9 783.565 1345.51 785.308 1348.71 788.795C1351.92 792.281 1353.52 796.326 1353.52 800.928C1353.52 803.438 1351.22 810.969 1346.62 823.521C1342.02 836.072 1339.72 845.765 1339.72 852.599C1339.72 859.014 1341.18 863.547 1344.11 866.196C1347.04 868.846 1350.74 870.241 1355.2 870.38C1361.2 870.38 1366.49 866.127 1371.1 857.619L1372.14 855.737V850.925C1372.14 850.507 1372.14 849.879 1372.14 849.042C1372.14 848.206 1372.21 847.648 1372.35 847.369C1372.49 847.09 1372.56 846.602 1372.56 845.905C1372.56 845.207 1372.63 844.58 1372.77 844.022C1372.91 843.464 1373.12 842.557 1373.4 841.302C1373.68 840.047 1373.89 838.862 1374.03 837.746C1374.17 836.63 1374.58 834.957 1375.28 832.725C1375.98 830.494 1376.54 828.263 1376.95 826.031C1377.37 823.8 1378.14 820.801 1379.26 817.036C1383.3 801.137 1385.6 792.56 1386.16 791.305C1387.97 787.539 1390.97 785.657 1395.15 785.657C1397.8 785.657 1399.62 786.354 1400.59 787.749C1401.57 789.143 1402.13 790.468 1402.27 791.723C1402.27 793.536 1400.24 802.462 1396.2 818.5C1392.16 834.538 1389.92 843.743 1389.51 846.114C1389.23 847.648 1389.09 850.088 1389.09 853.436V854.9C1389.09 856.992 1389.3 859.014 1389.72 860.967C1390.13 862.919 1391.46 864.941 1393.69 867.033C1395.92 869.125 1399.06 870.241 1403.1 870.38C1413.01 870.38 1420.89 861.873 1426.74 844.859C1428 841.651 1429.39 837.118 1430.93 831.261C1432.46 825.404 1433.3 821.22 1433.44 818.709C1433.44 814.107 1432.53 810.481 1430.72 807.831C1428.9 805.181 1427.09 802.95 1425.28 801.137C1423.47 799.324 1422.56 797.372 1422.56 795.28Z" fill="black"/>
<path d="M1467.13 843.749C1464.47 843.749 1462.35 842.862 1460.77 841.087C1459.19 839.312 1458.4 837.143 1458.4 834.579C1458.4 827.579 1461.02 821.515 1466.24 816.388C1471.47 811.261 1477.97 808.697 1485.76 808.697C1494.74 808.697 1502.23 811.458 1508.24 816.979C1514.26 822.501 1517.32 829.649 1517.41 838.425C1517.41 842.665 1516.43 846.707 1514.46 850.553C1512.48 854.398 1510.12 857.75 1507.36 860.61C1504.6 863.469 1500.65 867.118 1495.53 871.555C1491.98 874.611 1487.05 879.147 1480.74 885.161L1472.01 893.444L1483.25 893.592C1498.73 893.592 1506.96 893.345 1507.95 892.852C1508.64 892.655 1509.82 888.267 1511.5 879.689V879.245H1517.41V879.689C1517.32 879.985 1516.68 884.471 1515.49 893.148C1514.31 901.825 1513.57 906.36 1513.27 906.755V907.198H1458.4V904.388V902.614C1458.4 901.923 1458.7 901.184 1459.29 900.395C1459.88 899.606 1461.36 897.881 1463.73 895.219C1466.59 892.063 1469.05 889.303 1471.12 886.936C1472.01 885.95 1473.69 884.126 1476.15 881.464C1478.62 878.802 1480.29 876.978 1481.18 875.992C1482.07 875.006 1483.5 873.379 1485.47 871.111C1487.44 868.843 1488.82 867.167 1489.61 866.082C1490.4 864.998 1491.53 863.519 1493.01 861.645C1494.49 859.772 1495.53 858.194 1496.12 856.912C1496.71 855.631 1497.45 854.201 1498.34 852.623C1499.22 851.046 1499.86 849.468 1500.26 847.89C1500.65 846.313 1501 844.834 1501.29 843.453C1501.59 842.073 1501.74 840.446 1501.74 838.573C1501.74 832.361 1500.06 826.987 1496.71 822.452C1493.36 817.916 1488.57 815.648 1482.36 815.648C1479.11 815.648 1476.25 816.486 1473.78 818.163C1471.32 819.839 1469.59 821.466 1468.61 823.043C1467.62 824.621 1467.13 825.558 1467.13 825.853C1467.13 825.952 1467.37 826.001 1467.87 826.001C1469.64 826.001 1471.47 826.691 1473.34 828.072C1475.21 829.452 1476.15 831.72 1476.15 834.875C1476.15 837.34 1475.36 839.411 1473.78 841.087C1472.21 842.763 1469.99 843.651 1467.13 843.749Z" fill="black"/>
<path d="M1551.76 868.498C1551.76 868.498 1551.76 866.754 1551.76 863.268C1551.76 859.781 1552.87 856.783 1555.1 854.272C1557.34 851.762 1560.33 850.507 1564.1 850.507C1568.01 850.507 1571.49 852.25 1574.56 855.737C1577.63 859.223 1579.23 865.36 1579.37 874.146C1579.37 879.027 1578.74 883.769 1577.49 888.371C1576.23 892.973 1574.77 896.948 1573.1 900.295C1571.42 903.642 1569.61 906.501 1567.66 908.872C1565.7 911.243 1564.03 913.126 1562.64 914.52C1561.24 915.915 1560.33 916.542 1559.92 916.403C1559.36 916.403 1558.45 915.775 1557.2 914.52C1555.94 913.265 1555.31 912.359 1555.31 911.801C1555.31 911.243 1556.08 910.127 1557.62 908.454C1559.15 906.78 1560.89 904.688 1562.85 902.178C1564.8 899.667 1566.61 896.181 1568.28 891.718C1569.96 887.255 1571.07 882.165 1571.63 876.447V873.937L1571.42 874.146C1571.14 874.285 1570.79 874.425 1570.38 874.564C1569.96 874.704 1569.54 874.913 1569.12 875.192C1568.7 875.471 1568.07 875.61 1567.24 875.61C1566.4 875.61 1565.56 875.68 1564.73 875.819C1560.96 875.819 1557.89 874.634 1555.52 872.263L1551.76 868.498Z" fill="black"/>
<path d="M1644.77 863.268C1644.77 859.921 1645.95 856.992 1648.32 854.482C1650.69 851.971 1653.69 850.716 1657.32 850.716C1660.67 850.716 1663.6 851.832 1666.11 854.063C1668.62 856.295 1669.94 859.293 1670.08 863.059C1670.08 866.545 1668.89 869.544 1666.52 872.054C1664.15 874.564 1661.15 875.819 1657.53 875.819C1653.9 875.819 1650.9 874.634 1648.53 872.263C1646.16 869.892 1644.91 866.894 1644.77 863.268Z" fill="black"/>
<path d="M1737.8 863.268C1737.8 859.921 1738.98 856.992 1741.35 854.482C1743.72 851.971 1746.72 850.716 1750.35 850.716C1753.7 850.716 1756.62 851.832 1759.13 854.063C1761.64 856.295 1762.97 859.293 1763.11 863.059C1763.11 866.545 1761.92 869.544 1759.55 872.054C1757.18 874.564 1754.18 875.819 1750.56 875.819C1746.93 875.819 1743.93 874.634 1741.56 872.263C1739.19 869.892 1737.94 866.894 1737.8 863.268Z" fill="black"/>
<path d="M1830.82 863.268C1830.82 859.921 1832.01 856.992 1834.38 854.482C1836.75 851.971 1839.75 850.716 1843.38 850.716C1846.72 850.716 1849.65 851.832 1852.16 854.063C1854.67 856.295 1856 859.293 1856.14 863.059C1856.14 866.545 1854.95 869.544 1852.58 872.054C1850.21 874.564 1847.21 875.819 1843.59 875.819C1839.96 875.819 1836.96 874.634 1834.59 872.263C1832.22 869.892 1830.96 866.894 1830.82 863.268Z" fill="black"/>
<path d="M1923.83 868.498C1923.83 868.498 1923.83 866.754 1923.83 863.268C1923.83 859.781 1924.95 856.783 1927.18 854.272C1929.41 851.762 1932.41 850.507 1936.17 850.507C1940.08 850.507 1943.56 852.25 1946.63 855.737C1949.7 859.223 1951.3 865.36 1951.44 874.146C1951.44 879.027 1950.82 883.769 1949.56 888.371C1948.31 892.973 1946.84 896.948 1945.17 900.295C1943.49 903.642 1941.68 906.501 1939.73 908.872C1937.78 911.243 1936.1 913.126 1934.71 914.52C1933.31 915.915 1932.41 916.542 1931.99 916.403C1931.43 916.403 1930.52 915.775 1929.27 914.52C1928.01 913.265 1927.39 912.359 1927.39 911.801C1927.39 911.243 1928.15 910.127 1929.69 908.454C1931.22 906.78 1932.96 904.688 1934.92 902.178C1936.87 899.667 1938.68 896.181 1940.36 891.718C1942.03 887.255 1943.15 882.165 1943.7 876.447V873.937L1943.49 874.146C1943.22 874.285 1942.87 874.425 1942.45 874.564C1942.03 874.704 1941.61 874.913 1941.19 875.192C1940.77 875.471 1940.15 875.61 1939.31 875.61C1938.47 875.61 1937.64 875.68 1936.8 875.819C1933.03 875.819 1929.97 874.634 1927.6 872.263L1923.83 868.498Z" fill="black"/>
<path d="M2121.87 795.28C2121.87 792.351 2123.19 789.632 2125.84 787.121C2128.49 784.611 2131.42 783.286 2134.63 783.147C2137.14 783.147 2139.44 784.402 2141.53 786.912C2143.62 789.422 2144.74 793.397 2144.88 798.836C2144.88 802.88 2143.55 810.9 2140.9 822.893C2138.81 830.703 2136.93 837.119 2135.25 842.139C2133.58 847.16 2131.14 852.808 2127.93 859.084C2124.72 865.36 2120.89 870.101 2116.43 873.309C2111.96 876.517 2106.94 878.121 2101.36 878.121C2095.23 878.121 2089.79 877.005 2085.05 874.773C2080.31 872.542 2076.89 869.544 2074.8 865.778C2074.66 865.918 2074.45 866.197 2074.17 866.615C2068.45 874.285 2061.48 878.121 2053.25 878.121C2049.62 878.121 2046.14 877.702 2042.79 876.865C2039.44 876.029 2036.17 874.704 2032.96 872.891C2029.75 871.078 2027.17 868.358 2025.22 864.732C2023.27 861.106 2022.29 856.713 2022.29 851.553C2022.29 844.022 2024.66 833.841 2029.4 821.011C2034.14 808.18 2036.58 800.022 2036.72 796.535C2036.72 796.395 2036.72 796.256 2036.72 796.117C2036.72 794.861 2036.72 794.025 2036.72 793.606C2036.72 793.188 2036.44 792.7 2035.89 792.142C2035.33 791.584 2034.56 791.305 2033.59 791.305H2032.75C2029.54 791.305 2026.61 792.63 2023.96 795.28C2021.31 797.93 2019.22 800.789 2017.69 803.857C2016.15 806.925 2014.97 809.854 2014.13 812.643C2013.29 815.432 2012.74 816.966 2012.46 817.245C2012.18 817.524 2011.06 817.664 2009.11 817.664H2006.18C2005.34 816.827 2004.93 816.199 2004.93 815.781C2004.93 814.944 2005.48 812.992 2006.6 809.923C2007.72 806.855 2009.32 803.299 2011.41 799.254C2013.5 795.21 2016.57 791.584 2020.62 788.376C2024.66 785.169 2029.19 783.565 2034.21 783.565C2040.21 783.565 2044.81 785.308 2048.02 788.795C2051.23 792.281 2052.83 796.326 2052.83 800.928C2052.83 803.438 2050.53 810.969 2045.93 823.521C2041.33 836.073 2039.02 845.765 2039.02 852.599C2039.02 859.014 2040.49 863.547 2043.42 866.197C2046.35 868.846 2050.04 870.241 2054.5 870.38C2060.5 870.38 2065.8 866.127 2070.4 857.62L2071.45 855.737V850.925C2071.45 850.507 2071.45 849.879 2071.45 849.043C2071.45 848.206 2071.52 847.648 2071.66 847.369C2071.8 847.09 2071.87 846.602 2071.87 845.905C2071.87 845.207 2071.94 844.58 2072.08 844.022C2072.22 843.464 2072.43 842.558 2072.7 841.302C2072.98 840.047 2073.19 838.862 2073.33 837.746C2073.47 836.63 2073.89 834.957 2074.59 832.726C2075.28 830.494 2075.84 828.263 2076.26 826.031C2076.68 823.8 2077.45 820.801 2078.56 817.036C2082.61 801.137 2084.91 792.56 2085.47 791.305C2087.28 787.54 2090.28 785.657 2094.46 785.657C2097.11 785.657 2098.92 786.354 2099.9 787.749C2100.88 789.143 2101.43 790.468 2101.57 791.723C2101.57 793.536 2099.55 802.462 2095.51 818.5C2091.46 834.539 2089.23 843.743 2088.81 846.114C2088.53 847.648 2088.39 850.089 2088.39 853.436V854.9C2088.39 856.992 2088.6 859.014 2089.02 860.967C2089.44 862.919 2090.77 864.941 2093 867.033C2095.23 869.125 2098.37 870.241 2102.41 870.38C2112.31 870.38 2120.19 861.873 2126.05 844.859C2127.3 841.651 2128.7 837.119 2130.23 831.261C2131.77 825.404 2132.6 821.22 2132.74 818.71C2132.74 814.107 2131.84 810.481 2130.02 807.831C2128.21 805.182 2126.4 802.95 2124.58 801.137C2122.77 799.324 2121.87 797.372 2121.87 795.28Z" fill="black"/>
<path d="M2153.42 864.751C2153.52 864.16 2153.67 863.371 2153.87 862.385C2154.06 861.399 2154.66 859.525 2155.64 856.765C2156.63 854.004 2157.61 851.687 2158.6 849.813C2159.59 847.94 2161.21 846.116 2163.48 844.341C2165.75 842.566 2168.02 841.728 2170.28 841.827C2173.83 841.827 2176.79 842.714 2179.16 844.489C2181.52 846.264 2183 847.94 2183.6 849.517C2184.19 851.095 2184.48 852.13 2184.48 852.623C2184.48 852.82 2184.53 852.919 2184.63 852.919L2186.26 851.292C2192.27 844.982 2199.12 841.827 2206.82 841.827C2212.14 841.827 2216.43 843.158 2219.68 845.82C2222.94 848.482 2224.61 852.377 2224.71 857.504C2224.81 862.631 2222.94 870.371 2219.09 880.724C2215.25 891.077 2213.37 897.338 2213.47 899.508C2213.47 902.071 2214.31 903.353 2215.99 903.353C2216.58 903.353 2217.02 903.304 2217.32 903.205C2220.18 902.712 2222.74 900.839 2225.01 897.585C2227.28 894.331 2229 890.387 2230.18 885.753C2230.38 884.964 2231.37 884.57 2233.14 884.57C2235.11 884.57 2236.1 884.964 2236.1 885.753C2236.1 885.852 2235.9 886.591 2235.51 887.971C2234.72 890.831 2233.64 893.641 2232.25 896.402C2230.87 899.163 2228.61 901.923 2225.45 904.684C2222.3 907.445 2218.89 908.776 2215.25 908.677C2210.61 908.677 2207.26 907.346 2205.19 904.684C2203.12 902.022 2202.08 899.261 2202.08 896.402C2202.08 894.528 2203.86 888.612 2207.41 878.654C2210.96 868.695 2212.78 861.202 2212.88 856.173C2212.88 850.355 2210.71 847.447 2206.37 847.447H2205.63C2197.15 847.447 2190 852.426 2184.19 862.385L2183.15 864.16L2178.27 883.978C2175.02 896.895 2173.14 903.846 2172.65 904.832C2171.37 907.494 2169.25 908.825 2166.29 908.825C2165.01 908.825 2163.97 908.53 2163.19 907.938C2162.4 907.346 2161.85 906.755 2161.56 906.163C2161.26 905.572 2161.16 905.079 2161.26 904.684C2161.26 903.402 2163.14 895.366 2166.88 880.576C2170.63 865.786 2172.6 857.751 2172.8 856.469C2172.9 855.976 2172.95 854.842 2172.95 853.067C2172.95 849.222 2171.76 847.299 2169.4 847.299C2165.65 847.299 2162.54 852.229 2160.08 862.089C2159.49 864.061 2159.19 865.096 2159.19 865.195C2158.99 865.786 2158.06 866.082 2156.38 866.082H2154.31C2153.72 865.491 2153.42 865.047 2153.42 864.751Z" fill="black"/>
<path d="M2262.1 719.133L2262.94 718.924C2263.63 718.924 2264.33 718.924 2265.03 718.924H2267.54L2273.4 723.945C2286.5 735.799 2296.06 750.582 2302.05 768.294C2308.05 786.005 2311.05 804.415 2311.05 823.521C2311.05 833.004 2310.35 842.139 2308.96 850.925C2307.56 859.711 2305.96 867.173 2304.15 873.309C2302.33 879.445 2299.75 885.582 2296.41 891.718C2293.06 897.855 2290.41 902.527 2288.46 905.734C2286.5 908.942 2283.65 912.498 2279.88 916.403C2276.11 920.308 2273.88 922.609 2273.19 923.306C2272.49 924.004 2270.88 925.329 2268.37 927.281C2267.96 927.7 2267.68 927.978 2267.54 928.118H2265.03C2263.91 928.118 2263.14 928.118 2262.73 928.118C2262.31 928.118 2261.96 927.909 2261.68 927.49C2261.4 927.072 2261.19 926.444 2261.05 925.608C2261.19 925.468 2261.96 924.562 2263.35 922.888C2284.97 900.435 2295.78 867.312 2295.78 823.521C2295.78 779.73 2284.97 746.607 2263.35 724.154C2261.96 722.48 2261.19 721.574 2261.05 721.434C2261.05 720.319 2261.4 719.552 2262.1 719.133Z" fill="black"/>
<path d="M2311.28 1166.57L2299.1 1298.57L2419.5 1243.12L2311.28 1166.57ZM2344.07 1265.22L2496.4 1596.02L2517.26 1586.42L2364.92 1255.62L2344.07 1265.22Z" fill="black"/>
<path d="M771.824 1166.57L784.009 1298.57L663.604 1243.12L771.824 1166.57ZM739.036 1265.22L586.704 1596.02L565.85 1586.42L718.181 1255.62L739.036 1265.22Z" fill="black"/>
<path d="M1821.45 1166.57L1779.63 1292.36L1909.48 1265.69L1821.45 1166.57ZM1831 1270.09L1897.44 1593.53L1919.93 1588.91L1853.49 1265.47L1831 1270.09Z" fill="black"/>
<path d="M1295.2 1166.57L1337.03 1292.36L1207.18 1265.69L1295.2 1166.57ZM1285.66 1270.09L1219.22 1593.53L1196.73 1588.91L1263.17 1265.47L1285.66 1270.09Z" fill="black"/>
<path d="M519.193 1776.89C519.193 1795.92 511.634 1814.17 498.178 1827.63C484.723 1841.08 466.473 1848.64 447.444 1848.64C428.415 1848.64 410.166 1841.08 396.71 1827.63C383.255 1814.17 375.695 1795.92 375.695 1776.89C375.695 1757.86 383.255 1739.61 396.71 1726.16C410.166 1712.7 428.415 1705.14 447.444 1705.14C466.473 1705.14 484.723 1712.7 498.178 1726.16C511.634 1739.61 519.193 1757.86 519.193 1776.89V1776.89Z" fill="black"/>
<path fill-rule="evenodd" clip-rule="evenodd" d="M256.115 1824.73C256.115 1773.98 276.273 1725.32 312.155 1689.43C348.036 1653.55 396.702 1633.4 447.446 1633.4C498.19 1633.4 546.855 1653.55 582.737 1689.43C618.618 1725.32 638.776 1773.98 638.776 1824.73C638.776 1875.47 618.618 1924.14 582.737 1960.02C546.855 1995.9 498.19 2016.06 447.446 2016.06C396.702 2016.06 348.036 1995.9 312.155 1960.02C276.273 1924.14 256.115 1875.47 256.115 1824.73V1824.73ZM447.446 1657.31C415.919 1657.31 385.033 1666.22 358.343 1683C331.653 1699.78 310.245 1723.76 296.581 1752.17C282.917 1780.58 277.553 1812.27 281.108 1843.6C284.662 1874.93 296.989 1904.61 316.671 1929.24C333.652 1901.88 371.033 1872.56 447.446 1872.56C523.858 1872.56 561.215 1901.86 578.22 1929.24C597.902 1904.61 610.229 1874.93 613.784 1843.6C617.338 1812.27 611.974 1780.58 598.31 1752.17C584.647 1723.76 563.238 1699.78 536.548 1683C509.858 1666.22 478.973 1657.31 447.446 1657.31V1657.31Z" fill="black"/>
<g clip-path="url(#clip0_166_596)">
<path d="M452.201 2110.84C452.201 2107.55 453.69 2104.49 456.669 2101.67C459.647 2098.85 462.939 2097.36 466.545 2097.2C469.367 2097.2 471.953 2098.61 474.305 2101.43C476.656 2104.25 477.911 2108.72 478.067 2114.84C478.067 2119.38 476.578 2128.4 473.599 2141.88C471.248 2150.66 469.132 2157.87 467.251 2163.51C465.369 2169.16 462.626 2175.5 459.02 2182.56C455.415 2189.61 451.104 2194.94 446.087 2198.55C441.071 2202.15 435.427 2203.96 429.157 2203.96C422.259 2203.96 416.145 2202.7 410.815 2200.19C405.485 2197.69 401.644 2194.32 399.293 2190.08C399.136 2190.24 398.901 2190.55 398.588 2191.02C392.16 2199.65 384.322 2203.96 375.073 2203.96C370.997 2203.96 367.078 2203.49 363.316 2202.55C359.553 2201.61 355.869 2200.12 352.264 2198.08C348.658 2196.04 345.758 2192.98 343.563 2188.91C341.368 2184.83 340.271 2179.89 340.271 2174.09C340.271 2165.63 342.936 2154.18 348.266 2139.76C353.596 2125.34 356.339 2116.17 356.496 2112.25C356.496 2112.09 356.496 2111.94 356.496 2111.78C356.496 2110.37 356.496 2109.43 356.496 2108.96C356.496 2108.49 356.183 2107.94 355.556 2107.31C354.929 2106.68 354.066 2106.37 352.969 2106.37H352.028C348.423 2106.37 345.131 2107.86 342.152 2110.84C339.174 2113.82 336.822 2117.03 335.098 2120.48C333.373 2123.93 332.041 2127.22 331.1 2130.36C330.16 2133.49 329.533 2135.22 329.219 2135.53C328.906 2135.84 327.652 2136 325.457 2136H322.165C321.224 2135.06 320.754 2134.35 320.754 2133.88C320.754 2132.94 321.381 2130.75 322.635 2127.3C323.889 2123.85 325.692 2119.85 328.043 2115.31C330.395 2110.76 333.844 2106.68 338.39 2103.08C342.936 2099.47 348.031 2097.67 353.674 2097.67C360.415 2097.67 365.589 2099.63 369.194 2103.55C372.8 2107.47 374.603 2112.01 374.603 2117.19C374.603 2120.01 372.016 2128.47 366.843 2142.58C361.669 2156.69 359.083 2167.59 359.083 2175.27C359.083 2182.48 360.729 2187.57 364.021 2190.55C367.313 2193.53 371.467 2195.1 376.484 2195.26C383.225 2195.26 389.182 2190.48 394.355 2180.91L395.531 2178.8V2173.39C395.531 2172.92 395.531 2172.21 395.531 2171.27C395.531 2170.33 395.609 2169.7 395.766 2169.39C395.923 2169.08 396.001 2168.53 396.001 2167.74C396.001 2166.96 396.079 2166.26 396.236 2165.63C396.393 2165 396.628 2163.98 396.942 2162.57C397.255 2161.16 397.49 2159.83 397.647 2158.57C397.804 2157.32 398.274 2155.44 399.058 2152.93C399.842 2150.42 400.469 2147.91 400.939 2145.41C401.409 2142.9 402.272 2139.53 403.526 2135.29C408.072 2117.42 410.658 2107.78 411.286 2106.37C413.323 2102.14 416.694 2100.02 421.397 2100.02C424.375 2100.02 426.413 2100.81 427.511 2102.37C428.608 2103.94 429.235 2105.43 429.392 2106.84C429.392 2108.88 427.119 2118.91 422.573 2136.94C418.026 2154.97 415.518 2165.31 415.048 2167.98C414.734 2169.7 414.578 2172.45 414.578 2176.21V2177.86C414.578 2180.21 414.813 2182.48 415.283 2184.67C415.753 2186.87 417.243 2189.14 419.751 2191.49C422.259 2193.85 425.786 2195.1 430.332 2195.26C441.463 2195.26 450.32 2185.69 456.904 2166.57C458.315 2162.96 459.883 2157.87 461.607 2151.28C463.331 2144.7 464.272 2140 464.429 2137.18C464.429 2132 463.41 2127.93 461.372 2124.95C459.334 2121.97 457.296 2119.46 455.258 2117.42C453.22 2115.38 452.201 2113.19 452.201 2110.84Z" fill="black"/>
<path d="M519.591 2140.55L517.43 2141.38C515.878 2141.94 513.661 2142.49 510.78 2143.04C507.898 2143.6 504.684 2143.99 501.137 2144.21H497.979V2136.56H501.137C506.346 2136.34 511.168 2135.51 515.601 2134.07C520.034 2132.63 523.138 2131.3 524.911 2130.08C526.684 2128.86 528.236 2127.64 529.566 2126.42C529.787 2126.09 530.452 2125.92 531.561 2125.92C532.558 2125.92 533.5 2126.25 534.387 2126.92V2176.63L534.553 2226.5C535.329 2227.28 535.994 2227.78 536.548 2228C537.102 2228.22 538.432 2228.44 540.538 2228.66C542.644 2228.88 546.08 2228.99 550.846 2228.99H555.168V2236.64H553.339C551.012 2236.31 542.201 2236.14 526.906 2236.14C511.833 2236.14 503.132 2236.31 500.805 2236.64H498.81V2228.99H503.132C505.571 2228.99 507.676 2228.99 509.45 2228.99C511.223 2228.99 512.608 2228.94 513.606 2228.83C514.603 2228.72 515.49 2228.55 516.266 2228.33C517.042 2228.11 517.485 2228 517.596 2228C517.707 2228 518.039 2227.72 518.593 2227.17C519.148 2226.61 519.48 2226.39 519.591 2226.5V2140.55Z" fill="black"/>
</g>
<path d="M1147.05 395.6C1147.05 414.629 1139.5 432.879 1126.04 446.335C1112.58 459.79 1094.33 467.349 1075.31 467.349C1056.28 467.349 1038.03 459.79 1024.57 446.335C1011.12 432.879 1003.56 414.629 1003.56 395.6C1003.56 376.571 1011.12 358.322 1024.57 344.866C1038.03 331.411 1056.28 323.852 1075.31 323.852C1094.33 323.852 1112.58 331.411 1126.04 344.866C1139.5 358.322 1147.05 376.571 1147.05 395.6V395.6Z" fill="black"/>
<path fill-rule="evenodd" clip-rule="evenodd" d="M883.977 443.433C883.977 392.689 904.135 344.023 940.016 308.142C975.897 272.261 1024.56 252.103 1075.31 252.103C1126.05 252.103 1174.72 272.261 1210.6 308.142C1246.48 344.023 1266.64 392.689 1266.64 443.433C1266.64 494.177 1246.48 542.843 1210.6 578.724C1174.72 614.605 1126.05 634.763 1075.31 634.763C1024.56 634.763 975.897 614.605 940.016 578.724C904.135 542.843 883.977 494.177 883.977 443.433V443.433ZM1075.31 276.019C1043.78 276.021 1012.89 284.924 986.204 301.706C959.515 318.487 938.106 342.463 924.442 370.876C910.778 399.288 905.415 430.981 908.969 462.307C912.523 493.633 924.851 523.319 944.533 547.947C961.513 520.587 998.894 491.266 1075.31 491.266C1151.72 491.266 1189.08 520.563 1206.08 547.947C1225.76 523.319 1238.09 493.633 1241.64 462.307C1245.2 430.981 1239.84 399.288 1226.17 370.876C1212.51 342.463 1191.1 318.487 1164.41 301.706C1137.72 284.924 1106.83 276.021 1075.31 276.019V276.019Z" fill="black"/>
<g clip-path="url(#clip1_166_596)">
<path d="M1254.61 1780.73C1254.61 1799.76 1247.05 1818.01 1233.59 1831.46C1220.13 1844.92 1201.89 1852.48 1182.86 1852.48C1163.83 1852.48 1145.58 1844.92 1132.12 1831.46C1118.67 1818.01 1111.11 1799.76 1111.11 1780.73C1111.11 1761.7 1118.67 1743.45 1132.12 1729.99C1145.58 1716.54 1163.83 1708.98 1182.86 1708.98C1201.89 1708.98 1220.13 1716.54 1233.59 1729.99C1247.05 1743.45 1254.61 1761.7 1254.61 1780.73V1780.73Z" fill="black"/>
<path fill-rule="evenodd" clip-rule="evenodd" d="M991.527 1828.56C991.527 1777.82 1011.69 1729.15 1047.57 1693.27C1083.45 1657.39 1132.11 1637.23 1182.86 1637.23C1233.6 1637.23 1282.27 1657.39 1318.15 1693.27C1354.03 1729.15 1374.19 1777.82 1374.19 1828.56C1374.19 1879.3 1354.03 1927.97 1318.15 1963.85C1282.27 1999.73 1233.6 2019.89 1182.86 2019.89C1132.11 2019.89 1083.45 1999.73 1047.57 1963.85C1011.69 1927.97 991.527 1879.3 991.527 1828.56V1828.56ZM1182.86 1661.15C1151.33 1661.15 1120.44 1670.05 1093.76 1686.83C1067.07 1703.61 1045.66 1727.59 1031.99 1756C1018.33 1784.41 1012.97 1816.11 1016.52 1847.43C1020.07 1878.76 1032.4 1908.45 1052.08 1933.07C1069.06 1905.71 1106.45 1876.39 1182.86 1876.39C1259.27 1876.39 1296.63 1905.69 1313.63 1933.07C1333.31 1908.45 1345.64 1878.76 1349.2 1847.43C1352.75 1816.11 1347.39 1784.41 1333.72 1756C1320.06 1727.59 1298.65 1703.61 1271.96 1686.83C1245.27 1670.05 1214.38 1661.15 1182.86 1661.15V1661.15Z" fill="black"/>
</g>
<g clip-path="url(#clip2_166_596)">
<path d="M1188.33 2095.31C1188.33 2091.52 1190.04 2088 1193.47 2084.75C1196.9 2081.5 1200.69 2079.79 1204.84 2079.61C1208.09 2079.61 1211.07 2081.23 1213.77 2084.48C1216.48 2087.73 1217.92 2092.87 1218.1 2099.91C1218.1 2105.14 1216.39 2115.52 1212.96 2131.04C1210.25 2141.15 1207.82 2149.45 1205.65 2155.94C1203.49 2162.44 1200.33 2169.75 1196.18 2177.87C1192.03 2185.99 1187.06 2192.13 1181.29 2196.28C1175.51 2200.43 1169.02 2202.5 1161.8 2202.5C1153.86 2202.5 1146.82 2201.06 1140.69 2198.17C1134.55 2195.28 1130.13 2191.4 1127.42 2186.53C1127.24 2186.71 1126.97 2187.07 1126.61 2187.62C1119.21 2197.54 1110.19 2202.5 1099.54 2202.5C1094.85 2202.5 1090.34 2201.96 1086.01 2200.88C1081.67 2199.8 1077.43 2198.08 1073.28 2195.74C1069.13 2193.39 1065.79 2189.87 1063.27 2185.18C1060.74 2180.49 1059.48 2174.8 1059.48 2168.13C1059.48 2158.38 1062.55 2145.21 1068.68 2128.6C1074.82 2112 1077.97 2101.44 1078.16 2096.93C1078.16 2096.75 1078.16 2096.57 1078.16 2096.39C1078.16 2094.77 1078.16 2093.68 1078.16 2093.14C1078.16 2092.6 1077.79 2091.97 1077.07 2091.25C1076.35 2090.53 1075.36 2090.17 1074.09 2090.17H1073.01C1068.86 2090.17 1065.07 2091.88 1061.64 2095.31C1058.21 2098.74 1055.51 2102.44 1053.52 2106.41C1051.54 2110.38 1050 2114.17 1048.92 2117.78C1047.84 2121.39 1047.12 2123.37 1046.75 2123.73C1046.39 2124.09 1044.95 2124.27 1042.42 2124.27H1038.63C1037.55 2123.19 1037.01 2122.38 1037.01 2121.84C1037.01 2120.75 1037.73 2118.23 1039.18 2114.26C1040.62 2110.29 1042.69 2105.69 1045.4 2100.45C1048.11 2095.22 1052.08 2090.53 1057.31 2086.38C1062.55 2082.23 1068.41 2080.15 1074.91 2080.15C1082.67 2080.15 1088.62 2082.41 1092.77 2086.92C1096.92 2091.43 1099 2096.66 1099 2102.62C1099 2105.87 1096.02 2115.61 1090.07 2131.85C1084.11 2148.09 1081.13 2160.64 1081.13 2169.48C1081.13 2177.78 1083.03 2183.64 1086.82 2187.07C1090.61 2190.5 1095.39 2192.31 1101.16 2192.49C1108.92 2192.49 1115.78 2186.98 1121.74 2175.98L1123.09 2173.54V2167.31C1123.09 2166.77 1123.09 2165.96 1123.09 2164.88C1123.09 2163.79 1123.18 2163.07 1123.36 2162.71C1123.54 2162.35 1123.63 2161.72 1123.63 2160.82C1123.63 2159.91 1123.72 2159.1 1123.9 2158.38C1124.08 2157.66 1124.35 2156.49 1124.71 2154.86C1125.08 2153.24 1125.35 2151.7 1125.53 2150.26C1125.71 2148.82 1126.25 2146.65 1127.15 2143.76C1128.05 2140.88 1128.77 2137.99 1129.32 2135.1C1129.86 2132.21 1130.85 2128.33 1132.29 2123.46C1137.53 2102.89 1140.5 2091.79 1141.23 2090.17C1143.57 2085.29 1147.45 2082.86 1152.87 2082.86C1156.29 2082.86 1158.64 2083.76 1159.9 2085.56C1161.17 2087.37 1161.89 2089.08 1162.07 2090.71C1162.07 2093.05 1159.45 2104.6 1154.22 2125.36C1148.99 2146.11 1146.1 2158.02 1145.56 2161.09C1145.2 2163.07 1145.02 2166.23 1145.02 2170.56V2172.46C1145.02 2175.16 1145.29 2177.78 1145.83 2180.31C1146.37 2182.83 1148.08 2185.45 1150.97 2188.16C1153.86 2190.86 1157.92 2192.31 1163.15 2192.49C1175.97 2192.49 1186.16 2181.48 1193.74 2159.46C1195.36 2155.31 1197.17 2149.45 1199.15 2141.87C1201.14 2134.29 1202.22 2128.87 1202.4 2125.63C1202.4 2119.67 1201.23 2114.98 1198.88 2111.55C1196.54 2108.12 1194.19 2105.23 1191.85 2102.89C1189.5 2100.54 1188.33 2098.02 1188.33 2095.31Z" fill="black"/>
<path d="M1246 2158.03C1242.56 2158.03 1239.81 2156.88 1237.77 2154.58C1235.73 2152.29 1234.71 2149.48 1234.71 2146.16C1234.71 2137.1 1238.09 2129.26 1244.85 2122.62C1251.62 2115.99 1260.04 2112.67 1270.12 2112.67C1281.73 2112.67 1291.42 2116.24 1299.21 2123.39C1306.99 2130.53 1310.94 2139.78 1311.07 2151.14C1311.07 2156.62 1309.8 2161.86 1307.24 2166.83C1304.69 2171.81 1301.63 2176.14 1298.06 2179.84C1294.49 2183.54 1289.38 2188.27 1282.75 2194.01C1278.15 2197.96 1271.77 2203.83 1263.61 2211.61L1252.32 2222.33L1266.86 2222.52C1286.89 2222.52 1297.55 2222.2 1298.82 2221.57C1299.72 2221.31 1301.25 2215.63 1303.42 2204.53V2203.96H1311.07V2204.53C1310.94 2204.92 1310.11 2210.72 1308.58 2221.95C1307.05 2233.18 1306.1 2239.04 1305.71 2239.56V2240.13H1234.71V2236.49V2234.2C1234.71 2233.3 1235.09 2232.35 1235.86 2231.33C1236.62 2230.31 1238.54 2228.07 1241.6 2224.63C1245.3 2220.54 1248.49 2216.97 1251.17 2213.91C1252.32 2212.63 1254.49 2210.27 1257.68 2206.83C1260.87 2203.38 1263.04 2201.02 1264.18 2199.75C1265.33 2198.47 1267.18 2196.37 1269.73 2193.43C1272.29 2190.5 1274.07 2188.33 1275.09 2186.93C1276.11 2185.52 1277.58 2183.61 1279.49 2181.18C1281.41 2178.76 1282.75 2176.72 1283.51 2175.06C1284.28 2173.4 1285.24 2171.55 1286.38 2169.51C1287.53 2167.47 1288.36 2165.43 1288.87 2163.39C1289.38 2161.34 1289.83 2159.43 1290.21 2157.64C1290.59 2155.86 1290.79 2153.75 1290.79 2151.33C1290.79 2143.29 1288.62 2136.34 1284.28 2130.47C1279.94 2124.6 1273.75 2121.67 1265.71 2121.67C1261.5 2121.67 1257.8 2122.75 1254.61 2124.92C1251.42 2127.09 1249.19 2129.19 1247.92 2131.23C1246.64 2133.28 1246 2134.49 1246 2134.87C1246 2135 1246.32 2135.06 1246.96 2135.06C1249.26 2135.06 1251.62 2135.96 1254.04 2137.74C1256.46 2139.53 1257.68 2142.46 1257.68 2146.54C1257.68 2149.73 1256.66 2152.41 1254.61 2154.58C1252.57 2156.75 1249.7 2157.9 1246 2158.03Z" fill="black"/>
</g>
<g clip-path="url(#clip3_166_596)">
<path d="M1990.02 1780.73C1990.02 1799.76 1982.46 1818.01 1969.01 1831.46C1955.55 1844.92 1937.3 1852.48 1918.27 1852.48C1899.24 1852.48 1880.99 1844.92 1867.54 1831.46C1854.08 1818.01 1846.52 1799.76 1846.52 1780.73C1846.52 1761.7 1854.08 1743.45 1867.54 1729.99C1880.99 1716.54 1899.24 1708.98 1918.27 1708.98C1937.3 1708.98 1955.55 1716.54 1969.01 1729.99C1982.46 1743.45 1990.02 1761.7 1990.02 1780.73V1780.73Z" fill="black"/>
<path fill-rule="evenodd" clip-rule="evenodd" d="M1726.94 1828.56C1726.94 1777.82 1747.1 1729.15 1782.98 1693.27C1818.86 1657.39 1867.53 1637.23 1918.27 1637.23C1969.02 1637.23 2017.68 1657.39 2053.56 1693.27C2089.45 1729.15 2109.6 1777.82 2109.6 1828.56C2109.6 1879.3 2089.45 1927.97 2053.56 1963.85C2017.68 1999.73 1969.02 2019.89 1918.27 2019.89C1867.53 2019.89 1818.86 1999.73 1782.98 1963.85C1747.1 1927.97 1726.94 1879.3 1726.94 1828.56V1828.56ZM1918.27 1661.15C1886.75 1661.15 1855.86 1670.05 1829.17 1686.83C1802.48 1703.61 1781.07 1727.59 1767.41 1756C1753.75 1784.41 1748.38 1816.11 1751.94 1847.43C1755.49 1878.76 1767.82 1908.45 1787.5 1933.07C1804.48 1905.71 1841.86 1876.39 1918.27 1876.39C1994.69 1876.39 2032.04 1905.69 2049.05 1933.07C2068.73 1908.45 2081.06 1878.76 2084.61 1847.43C2088.17 1816.11 2082.8 1784.41 2069.14 1756C2055.47 1727.59 2034.07 1703.61 2007.38 1686.83C1980.69 1670.05 1949.8 1661.15 1918.27 1661.15V1661.15Z" fill="black"/>
</g>
<g clip-path="url(#clip4_166_596)">
<path d="M1923.68 2105.85C1923.68 2102.1 1925.38 2098.61 1928.77 2095.4C1932.17 2092.18 1935.92 2090.48 1940.03 2090.31C1943.24 2090.31 1946.19 2091.91 1948.87 2095.13C1951.55 2098.34 1952.98 2103.44 1953.16 2110.4C1953.16 2115.58 1951.46 2125.85 1948.07 2141.22C1945.39 2151.22 1942.97 2159.44 1940.83 2165.87C1938.69 2172.3 1935.56 2179.54 1931.45 2187.57C1927.34 2195.61 1922.43 2201.69 1916.71 2205.8C1911 2209.9 1904.57 2211.96 1897.42 2211.96C1889.56 2211.96 1882.59 2210.53 1876.52 2207.67C1870.45 2204.81 1866.07 2200.97 1863.39 2196.15C1863.21 2196.33 1862.94 2196.68 1862.59 2197.22C1855.26 2207.05 1846.33 2211.96 1835.79 2211.96C1831.15 2211.96 1826.68 2211.42 1822.39 2210.35C1818.11 2209.28 1813.91 2207.58 1809.8 2205.26C1805.69 2202.94 1802.39 2199.45 1799.88 2194.81C1797.38 2190.16 1796.13 2184.54 1796.13 2177.93C1796.13 2168.28 1799.17 2155.24 1805.24 2138.81C1811.32 2122.37 1814.44 2111.92 1814.62 2107.45C1814.62 2107.28 1814.62 2107.1 1814.62 2106.92C1814.62 2105.31 1814.62 2104.24 1814.62 2103.7C1814.62 2103.17 1814.26 2102.54 1813.55 2101.83C1812.84 2101.11 1811.85 2100.76 1810.6 2100.76H1809.53C1805.42 2100.76 1801.67 2102.45 1798.28 2105.85C1794.88 2109.24 1792.2 2112.9 1790.24 2116.83C1788.27 2120.76 1786.75 2124.51 1785.68 2128.09C1784.61 2131.66 1783.9 2133.63 1783.54 2133.98C1783.18 2134.34 1781.75 2134.52 1779.25 2134.52H1775.5C1774.43 2133.45 1773.89 2132.64 1773.89 2132.11C1773.89 2131.03 1774.61 2128.53 1776.04 2124.6C1777.47 2120.67 1779.52 2116.12 1782.2 2110.94C1784.88 2105.76 1788.81 2101.11 1793.99 2097C1799.17 2092.9 1804.98 2090.84 1811.41 2090.84C1819.09 2090.84 1824.98 2093.07 1829.09 2097.54C1833.2 2102.01 1835.26 2107.19 1835.26 2113.08C1835.26 2116.3 1832.31 2125.94 1826.41 2142.02C1820.52 2158.1 1817.57 2170.51 1817.57 2179.27C1817.57 2187.48 1819.45 2193.29 1823.2 2196.68C1826.95 2200.08 1831.68 2201.87 1837.4 2202.04C1845.08 2202.04 1851.87 2196.6 1857.76 2185.7L1859.1 2183.29V2177.12C1859.1 2176.59 1859.1 2175.78 1859.1 2174.71C1859.1 2173.64 1859.19 2172.93 1859.37 2172.57C1859.55 2172.21 1859.64 2171.59 1859.64 2170.69C1859.64 2169.8 1859.73 2169 1859.91 2168.28C1860.09 2167.57 1860.35 2166.41 1860.71 2164.8C1861.07 2163.19 1861.34 2161.67 1861.51 2160.24C1861.69 2158.81 1862.23 2156.67 1863.12 2153.81C1864.02 2150.95 1864.73 2148.09 1865.27 2145.24C1865.8 2142.38 1866.78 2138.54 1868.21 2133.71C1873.39 2113.35 1876.34 2102.36 1877.06 2100.76C1879.38 2095.93 1883.22 2093.52 1888.58 2093.52C1891.97 2093.52 1894.3 2094.41 1895.55 2096.2C1896.8 2097.99 1897.51 2099.68 1897.69 2101.29C1897.69 2103.61 1895.1 2115.05 1889.92 2135.59C1884.74 2156.13 1881.88 2167.92 1881.34 2170.96C1880.99 2172.93 1880.81 2176.05 1880.81 2180.34V2182.21C1880.81 2184.89 1881.08 2187.48 1881.61 2189.99C1882.15 2192.49 1883.84 2195.08 1886.7 2197.76C1889.56 2200.44 1893.58 2201.87 1898.76 2202.04C1911.44 2202.04 1921.54 2191.15 1929.04 2169.35C1930.65 2165.24 1932.43 2159.44 1934.4 2151.94C1936.36 2144.43 1937.44 2139.07 1937.62 2135.86C1937.62 2129.96 1936.45 2125.32 1934.13 2121.92C1931.81 2118.53 1929.49 2115.67 1927.16 2113.35C1924.84 2111.03 1923.68 2108.53 1923.68 2105.85Z" fill="black"/>
<path d="M1984.18 2161.49C1980.77 2161.49 1978.12 2160.42 1976.23 2158.27C1974.33 2156.12 1973.32 2153.34 1973.2 2149.93C1973.2 2142.99 1976.23 2136.8 1982.29 2131.37C1988.35 2125.94 1995.68 2123.22 2004.27 2123.22C2008.69 2123.22 2011.47 2123.29 2012.6 2123.41C2021.95 2124.93 2029.08 2128.27 2034.01 2133.45C2038.94 2138.63 2041.46 2144.25 2041.59 2150.31C2041.59 2156.88 2039.44 2163.26 2035.15 2169.45C2030.85 2175.64 2024.92 2180.12 2017.34 2182.9L2016.77 2183.28C2016.77 2183.4 2017.34 2183.59 2018.47 2183.85C2019.61 2184.1 2021.44 2184.67 2023.97 2185.55C2026.49 2186.43 2028.89 2187.76 2031.17 2189.53C2041.52 2196.22 2046.7 2205.06 2046.7 2216.05C2046.7 2226.03 2042.79 2234.74 2034.96 2242.19C2027.13 2249.65 2017.21 2253.37 2005.21 2253.37C1995.11 2253.37 1986.4 2250.66 1979.07 2245.23C1971.74 2239.8 1968.08 2232.91 1968.08 2224.58C1968.08 2221.04 1969.22 2218.2 1971.49 2216.05C1973.77 2213.9 1976.61 2212.77 1980.02 2212.64C1983.55 2212.64 1986.46 2213.78 1988.73 2216.05C1991.01 2218.32 1992.14 2221.17 1992.14 2224.58C1992.14 2225.97 1991.95 2227.23 1991.57 2228.37C1991.19 2229.5 1990.75 2230.51 1990.25 2231.4C1989.74 2232.28 1989.05 2233.04 1988.16 2233.67C1987.28 2234.3 1986.52 2234.81 1985.89 2235.19C1985.26 2235.56 1984.63 2235.82 1984 2235.94C1983.36 2236.07 1982.86 2236.26 1982.48 2236.51L1981.72 2236.7C1988.16 2242.38 1995.99 2245.23 2005.21 2245.23C2012.16 2245.23 2017.4 2241.88 2020.94 2235.19C2023.08 2231.02 2024.16 2224.64 2024.16 2216.05V2212.26C2024.16 2200.26 2020.12 2192.24 2012.03 2188.2C2010.14 2187.44 2006.29 2187 2000.48 2186.88L1992.52 2186.69L1991.95 2186.31C1991.7 2185.93 1991.57 2184.92 1991.57 2183.28C1991.57 2181 1992.08 2179.87 1993.09 2179.87C1996.63 2179.87 2000.29 2179.55 2004.08 2178.92C2008.37 2178.29 2012.29 2175.64 2015.82 2170.96C2019.36 2166.29 2021.13 2159.22 2021.13 2149.75V2148.23C2021.13 2141.03 2018.92 2136.04 2014.5 2133.26C2011.72 2131.5 2008.75 2130.61 2005.59 2130.61C2001.55 2130.61 1997.83 2131.31 1994.42 2132.69C1991.01 2134.08 1988.61 2135.54 1987.22 2137.05C1985.83 2138.57 1985.13 2139.33 1985.13 2139.33H1985.7C1986.08 2139.45 1986.58 2139.58 1987.22 2139.7C1987.85 2139.83 1988.48 2140.15 1989.11 2140.65C1989.74 2141.16 1990.5 2141.6 1991.38 2141.98C1992.27 2142.36 1992.9 2143.05 1993.28 2144.06C1993.66 2145.07 1994.16 2146.02 1994.79 2146.9C1995.43 2147.79 1995.61 2149.05 1995.36 2150.69C1995.36 2153.47 1994.48 2155.93 1992.71 2158.08C1990.94 2160.23 1988.1 2161.36 1984.18 2161.49Z" fill="black"/>
</g>
<g clip-path="url(#clip5_166_596)">
<path d="M2725.44 1773.06C2725.44 1792.09 2717.88 1810.34 2704.42 1823.79C2690.97 1837.25 2672.72 1844.81 2653.69 1844.81C2634.66 1844.81 2616.41 1837.25 2602.95 1823.79C2589.5 1810.34 2581.94 1792.09 2581.94 1773.06C2581.94 1754.03 2589.5 1735.78 2602.95 1722.32C2616.41 1708.87 2634.66 1701.31 2653.69 1701.31C2672.72 1701.31 2690.97 1708.87 2704.42 1722.32C2717.88 1735.78 2725.44 1754.03 2725.44 1773.06V1773.06Z" fill="black"/>
<path fill-rule="evenodd" clip-rule="evenodd" d="M2462.36 1820.89C2462.36 1770.15 2482.51 1721.48 2518.39 1685.6C2554.28 1649.72 2602.94 1629.56 2653.69 1629.56C2704.43 1629.56 2753.1 1649.72 2788.98 1685.6C2824.86 1721.48 2845.02 1770.15 2845.02 1820.89C2845.02 1871.64 2824.86 1920.3 2788.98 1956.18C2753.1 1992.06 2704.43 2012.22 2653.69 2012.22C2602.94 2012.22 2554.28 1992.06 2518.39 1956.18C2482.51 1920.3 2462.36 1871.64 2462.36 1820.89V1820.89ZM2653.69 1653.48C2622.16 1653.48 2591.27 1662.38 2564.58 1679.16C2537.89 1695.95 2516.48 1719.92 2502.82 1748.33C2489.16 1776.75 2483.79 1808.44 2487.35 1839.77C2490.9 1871.09 2503.23 1900.78 2522.91 1925.41C2539.89 1898.05 2577.27 1868.72 2653.69 1868.72C2730.1 1868.72 2767.46 1898.02 2784.46 1925.41C2804.14 1900.78 2816.47 1871.09 2820.02 1839.77C2823.58 1808.44 2818.21 1776.75 2804.55 1748.33C2790.89 1719.92 2769.48 1695.95 2742.79 1679.16C2716.1 1662.38 2685.21 1653.48 2653.69 1653.48V1653.48Z" fill="black"/>
</g>
<g clip-path="url(#clip6_166_596)">
<path d="M2659.21 2098.51C2659.21 2094.69 2660.94 2091.13 2664.4 2087.85C2667.87 2084.57 2671.7 2082.84 2675.89 2082.65C2679.17 2082.65 2682.18 2084.3 2684.91 2087.58C2687.65 2090.86 2689.1 2096.05 2689.29 2103.16C2689.29 2108.45 2687.55 2118.93 2684.09 2134.61C2681.36 2144.81 2678.9 2153.2 2676.71 2159.76C2674.52 2166.32 2671.33 2173.71 2667.14 2181.91C2662.95 2190.11 2657.93 2196.31 2652.1 2200.5C2646.27 2204.69 2639.7 2206.79 2632.41 2206.79C2624.39 2206.79 2617.28 2205.33 2611.09 2202.42C2604.89 2199.5 2600.42 2195.58 2597.69 2190.66C2597.51 2190.84 2597.23 2191.21 2596.87 2191.75C2589.39 2201.78 2580.28 2206.79 2569.52 2206.79C2564.79 2206.79 2560.23 2206.24 2555.85 2205.15C2551.48 2204.06 2547.2 2202.32 2543 2199.95C2538.81 2197.59 2535.44 2194.03 2532.89 2189.29C2530.33 2184.55 2529.06 2178.81 2529.06 2172.07C2529.06 2162.22 2532.16 2148.92 2538.35 2132.14C2544.55 2115.37 2547.74 2104.71 2547.92 2100.15C2547.92 2099.97 2547.92 2099.79 2547.92 2099.61C2547.92 2097.97 2547.92 2096.87 2547.92 2096.33C2547.92 2095.78 2547.56 2095.14 2546.83 2094.41C2546.1 2093.68 2545.1 2093.32 2543.82 2093.32H2542.73C2538.54 2093.32 2534.71 2095.05 2531.25 2098.51C2527.78 2101.98 2525.05 2105.71 2523.04 2109.72C2521.04 2113.73 2519.49 2117.56 2518.39 2121.21C2517.3 2124.85 2516.57 2126.86 2516.21 2127.22C2515.84 2127.59 2514.38 2127.77 2511.83 2127.77H2508C2506.91 2126.68 2506.36 2125.86 2506.36 2125.31C2506.36 2124.22 2507.09 2121.66 2508.55 2117.65C2510.01 2113.64 2512.11 2108.99 2514.84 2103.71C2517.57 2098.42 2521.58 2093.68 2526.87 2089.49C2532.16 2085.3 2538.08 2083.2 2544.64 2083.2C2552.48 2083.2 2558.5 2085.48 2562.69 2090.04C2566.88 2094.59 2568.98 2099.88 2568.98 2105.9C2568.98 2109.18 2565.97 2119.02 2559.95 2135.43C2553.94 2151.83 2550.93 2164.5 2550.93 2173.43C2550.93 2181.82 2552.85 2187.74 2556.67 2191.21C2560.5 2194.67 2565.33 2196.49 2571.17 2196.67C2579 2196.67 2585.93 2191.11 2591.95 2179.99L2593.31 2177.53V2171.24C2593.31 2170.7 2593.31 2169.88 2593.31 2168.78C2593.31 2167.69 2593.4 2166.96 2593.59 2166.6C2593.77 2166.23 2593.86 2165.59 2593.86 2164.68C2593.86 2163.77 2593.95 2162.95 2594.13 2162.22C2594.32 2161.49 2594.59 2160.31 2594.95 2158.67C2595.32 2157.03 2595.59 2155.48 2595.77 2154.02C2595.96 2152.56 2596.5 2150.37 2597.41 2147.46C2598.33 2144.54 2599.05 2141.62 2599.6 2138.71C2600.15 2135.79 2601.15 2131.87 2602.61 2126.95C2607.9 2106.17 2610.9 2094.96 2611.63 2093.32C2614 2088.4 2617.92 2085.94 2623.39 2085.94C2626.85 2085.94 2629.22 2086.85 2630.5 2088.67C2631.78 2090.49 2632.5 2092.22 2632.69 2093.87C2632.69 2096.23 2630.04 2107.9 2624.76 2128.86C2619.47 2149.83 2616.55 2161.86 2616.01 2164.96C2615.64 2166.96 2615.46 2170.15 2615.46 2174.53V2176.44C2615.46 2179.17 2615.73 2181.82 2616.28 2184.37C2616.83 2186.92 2618.56 2189.56 2621.48 2192.3C2624.39 2195.03 2628.49 2196.49 2633.78 2196.67C2646.72 2196.67 2657.02 2185.55 2664.68 2163.32C2666.32 2159.12 2668.14 2153.2 2670.15 2145.54C2672.15 2137.89 2673.24 2132.42 2673.43 2129.14C2673.43 2123.12 2672.24 2118.38 2669.87 2114.92C2667.5 2111.46 2665.13 2108.54 2662.76 2106.17C2660.39 2103.8 2659.21 2101.25 2659.21 2098.51Z" fill="black"/>
<path d="M2785.7 2244.8C2783.38 2244.41 2775.07 2244.22 2760.77 2244.22C2745.82 2244.22 2737.18 2244.41 2734.86 2244.8H2733.12V2235.9H2739.11C2741.69 2235.9 2743.43 2235.9 2744.33 2235.9C2745.24 2235.9 2746.33 2235.78 2747.62 2235.52C2748.91 2235.26 2749.81 2234.94 2750.33 2234.55C2750.84 2234.16 2751.29 2233.65 2751.68 2233C2751.81 2232.75 2751.87 2229.27 2751.87 2222.57V2212.9H2701.8V2204.01L2730.99 2159.35C2750.71 2129.45 2760.7 2114.44 2760.96 2114.31C2761.22 2114.05 2762.57 2113.92 2765.02 2113.92H2768.5L2769.66 2115.08V2204.01H2787.44V2212.9H2769.66V2222.76C2769.66 2228.04 2769.66 2231.14 2769.66 2232.04C2769.66 2232.94 2770.04 2233.71 2770.82 2234.36C2771.85 2235.26 2775.52 2235.78 2781.84 2235.9H2787.44V2244.8H2785.7ZM2753.03 2204.01V2139.44L2710.7 2203.81L2731.77 2204.01H2753.03Z" fill="black"/>
</g>
<defs>
<clipPath id="clip0_166_596">
<rect width="263.271" height="139.482" fill="white" transform="translate(315.812 2097.18)"/>
</clipPath>
<clipPath id="clip1_166_596">
<rect width="382.661" height="382.661" fill="white" transform="translate(991.529 1637.23)"/>
</clipPath>
<clipPath id="clip2_166_596">
<rect width="303.067" height="160.567" fill="white" transform="translate(1031.32 2079.59)"/>
</clipPath>
<clipPath id="clip3_166_596">
<rect width="382.661" height="382.661" fill="white" transform="translate(1726.94 1637.23)"/>
</clipPath>
<clipPath id="clip4_166_596">
<rect width="300.006" height="163.091" fill="white" transform="translate(1768.27 2090.3)"/>
</clipPath>
<clipPath id="clip5_166_596">
<rect width="382.661" height="382.661" fill="white" transform="translate(2462.35 1629.56)"/>
</clipPath>
<clipPath id="clip6_166_596">
<rect width="306.129" height="162.189" fill="white" transform="translate(2500.62 2082.63)"/>
</clipPath>
</defs>
</svg>
