<svg width="200" height="242" viewBox="0 0 200 242" fill="none" xmlns="http://www.w3.org/2000/svg">
<path d="M77.9164 11.0572C113.869 11.0572 132.547 33.5248 132.547 63.612C132.547 68.9357 131.755 73.9486 130.552 78.751H169.612C171.005 73.8083 171.948 68.6952 171.948 63.2713C171.948 26.6272 146.372 0.00878906 87.5907 0.00878906H0.818146V0.349752C12.5683 17.985 14.303 28.0006 14.303 63.612V178.397C14.303 214.008 12.5683 224.024 0.818146 241.659V242H65.1238V241.659C53.3737 224.024 51.639 214.008 51.639 178.397V11.0572H77.9164V11.0572Z" fill="white"/>
<path d="M170.574 203.281L151.214 166.978C148.788 162.496 146.342 158.556 143.886 154.866H101.607C104.996 159.99 108.385 165.694 111.793 172.522L148.097 242H199.609V241.659C186.124 230.601 181.974 224.375 170.564 203.281H170.574Z" fill="white"/>
</svg>
