<svg width="2468" height="385" viewBox="0 0 2468 385" fill="none" xmlns="http://www.w3.org/2000/svg">
<path d="M1895.29 128.764H1953.55V24.9082H2005.99C2075.36 24.9082 2118.57 68.1245 2135.74 128.789H2193.91C2170.21 59.0969 2105.58 7.96582 2011.84 7.96582H1874.68V8.49676C1892.68 35.5037 1895.34 50.8533 1895.34 105.398V128.764H1895.29Z" fill="white"/>
<path d="M2010.75 361.71C1991.68 361.71 1972.09 361.18 1953.55 357.462V245.338H1895.29V281.196C1895.29 335.741 1892.63 351.09 1874.63 378.097V378.628H2011.79C2106.49 378.628 2174.23 321.605 2196.28 245.363H2139.18C2125.71 312.451 2084.29 361.71 2010.72 361.71H2010.75Z" fill="white"/>
<path d="M1698.78 0L1675.49 7.40964L1629.26 128.738H1646.94L1665.96 77.8599L1685.63 128.738H1749.66L1698.78 0Z" fill="white"/>
<path d="M1795.73 245.338H1731.3L1746.45 285.444C1766.58 336.828 1768.14 351.115 1750.67 378.122V378.653H1856.57V378.122C1840.16 352.177 1831.69 336.828 1811.56 285.444L1795.71 245.338H1795.73Z" fill="white"/>
<path d="M1569.59 285.444C1550.52 336.828 1542.58 351.646 1525.64 378.122V378.653H1584.94V378.122C1567.46 351.115 1569.06 336.828 1588.12 285.444L1603.09 245.313H1584.89L1569.61 285.444H1569.59Z" fill="white"/>
<path d="M2403.01 213.324L2402.98 213.426H2403.01V213.324Z" fill="white"/>
<path d="M2235.65 128.789H2292.85V24.9082H2352.18C2397.72 24.9082 2415.19 36.5658 2454.92 66.7336H2455.45L2450.7 7.96582H2215.02V8.49676C2233.02 35.5037 2235.68 50.8533 2235.68 105.398V128.789H2235.65Z" fill="white"/>
<path d="M2466.53 319.885C2427.36 350.053 2409.88 361.711 2364.32 361.711H2319.84C2296.52 361.711 2292.83 346.892 2292.83 315.637V245.389H2235.63V281.221C2235.63 335.766 2232.97 351.115 2214.97 378.122V378.653H2462.28L2467.06 319.885H2466.53V319.885Z" fill="white"/>
<path d="M118.092 24.9082C173.168 24.9082 201.768 59.3245 201.768 105.398C201.768 113.566 200.554 121.228 198.708 128.586H258.538C260.662 121.025 262.129 113.187 262.129 104.867C262.129 48.7292 222.959 7.96582 132.911 7.96582H0.000228882V8.49676C18.0048 35.5037 20.6604 50.8533 20.6604 105.398V281.221C20.6604 335.766 18.0048 351.115 0.000228882 378.122V378.653H98.4944V378.122C80.4898 351.115 77.8348 335.766 77.8348 281.221V24.9082H118.092Z" fill="white"/>
<path d="M260.03 319.329L230.368 263.722C226.65 256.844 222.908 250.826 219.14 245.161H154.379C159.563 253.026 164.772 261.75 169.981 272.193L225.588 378.628H304.485V378.097C283.825 361.154 277.478 351.621 260.004 319.303L260.03 319.329Z" fill="white"/>
<path d="M963.632 128.662H1020.83V24.9082H1080.16C1125.7 24.9082 1143.17 36.5658 1182.9 66.7336H1183.43L1178.68 7.96582H942.998V8.49676C961.002 35.5037 963.657 50.8533 963.657 105.398V128.662H963.632Z" fill="white"/>
<path d="M1092.32 361.71H1047.84C1024.52 361.71 1020.83 346.892 1020.83 315.637V245.262H963.63V281.221C963.63 335.766 960.975 351.115 942.971 378.122V378.653H1190.28L1195.06 319.885H1194.53C1155.36 350.053 1137.89 361.71 1092.32 361.71V361.71Z" fill="white"/>
<path d="M344.869 128.612H402.069V24.9082H461.393C506.935 24.9082 524.409 36.5658 564.135 66.7336H564.666L559.913 7.96582H324.234V8.49676C342.239 35.5037 344.894 50.8533 344.894 105.398V128.612H344.869Z" fill="white"/>
<path d="M473.557 361.71H429.077C405.762 361.71 402.069 346.892 402.069 315.637V245.187H344.87V281.221C344.87 335.766 342.214 351.115 324.209 378.122V378.653H571.52L576.274 319.885H575.743C536.573 350.053 519.099 361.71 473.531 361.71H473.557Z" fill="white"/>
<path d="M854.996 8.49676C872.469 35.5037 875.655 50.8533 875.655 105.398V128.662H894.722V105.398C894.722 50.8533 897.377 35.5037 914.851 8.49676V7.96582H855.021V8.49676H854.996Z" fill="white"/>
<path d="M596.029 7.96582V8.49676C614.033 35.5037 616.688 50.8533 616.688 105.398V128.637H635.755V77.8598L676.164 128.637H752.76L655.884 7.96582H596.029V7.96582Z" fill="white"/>
<path d="M635.755 245.237H616.688V281.221C616.688 335.766 614.033 351.115 596.029 378.122V378.653H655.884V378.122C638.41 351.115 635.755 335.766 635.755 281.221V245.237Z" fill="white"/>
<path d="M875.657 281.752L846.35 245.237H768.945L875.101 378.653H894.699V245.262L875.657 245.237V281.752Z" fill="white"/>
<path d="M1392.4 19.0667C1439 19.0667 1473.95 40.2579 1504.67 82.0832H1506.27L1500.98 18.0049C1469.73 7.96577 1440.09 1.59338 1391.87 1.59338C1299.24 1.59338 1233.39 55.1267 1208.56 128.662H1269.93C1286.44 64.0026 1328.85 19.0414 1392.42 19.0414L1392.4 19.0667Z" fill="white"/>
<path d="M1464.11 245.439L1445.86 245.313V245.844C1463.33 272.851 1466.52 287.669 1466.52 342.745V352.683C1448.51 362.748 1427.35 367.527 1399.28 367.527C1330.9 367.527 1282.73 317.989 1267.38 245.262H1203.22C1221.91 325.676 1287.28 385 1391.34 385C1457.01 385 1495.65 366.464 1520.56 352.152V245.287H1464.11C1464.11 245.287 1464.11 245.389 1464.11 245.414V245.439Z" fill="white"/>
</svg>
