<svg width="386" height="2469" viewBox="0 0 386 2469" fill="none" xmlns="http://www.w3.org/2000/svg">
<path d="M128.793 572.744V514.481H24.938L24.938 462.035C24.938 392.672 68.1543 349.456 128.819 332.286V274.125C59.1267 297.819 7.99561 362.454 7.99561 456.194L7.99561 593.353H8.52654C35.5334 575.348 50.883 572.693 105.428 572.693H128.793V572.744Z" fill="white"/>
<path d="M361.74 457.28C361.74 476.347 361.209 495.945 357.492 514.48H245.368V572.742H281.226C335.77 572.742 351.119 575.397 378.126 593.402H378.658V456.243C378.658 361.542 321.634 293.798 245.393 271.747V328.846C312.48 342.324 361.74 383.744 361.74 457.305V457.28Z" fill="white"/>
<path d="M0.0297852 769.251L7.43943 792.541L128.768 838.766V821.09L77.8897 802.074L128.768 782.4V718.372L0.0297852 769.251Z" fill="white"/>
<path d="M245.368 672.298V736.73L285.474 721.583C336.858 701.454 351.145 699.887 378.152 717.36H378.683V611.457H378.152C352.207 627.868 336.858 636.339 285.474 656.468L245.368 672.323V672.298Z" fill="white"/>
<path d="M285.474 898.443C336.858 917.51 351.676 925.45 378.152 942.392H378.682V883.093H378.152C351.145 900.567 336.858 898.974 285.474 879.907L245.342 864.937V883.144L285.474 898.418V898.443Z" fill="white"/>
<path d="M213.354 65.024L213.455 65.0493V65.024H213.354Z" fill="white"/>
<path d="M128.819 232.376V175.176H24.938L24.938 115.851C24.938 70.3088 36.5956 52.8355 66.7634 13.1091V12.5781L7.99561 17.3318L7.99561 253.01H8.52654C35.5334 235.006 50.883 232.35 105.428 232.35H128.819V232.376Z" fill="white"/>
<path d="M319.915 1.50124C350.083 40.6714 361.74 58.1453 361.74 103.713V148.193C361.74 171.508 346.922 175.201 315.667 175.201H245.418V232.4H281.251C335.796 232.4 351.145 235.055 378.152 253.06H378.683V5.74996L319.915 0.970307V1.50124V1.50124Z" fill="white"/>
<path d="M24.938 2349.94C24.938 2294.86 59.3543 2266.26 105.428 2266.26C113.596 2266.26 121.258 2267.48 128.616 2269.32V2209.49C121.055 2207.37 113.216 2205.9 104.897 2205.9C48.759 2205.9 7.99561 2245.07 7.99561 2335.12L7.99561 2468.03H8.52654C35.5334 2450.03 50.883 2447.37 105.428 2447.37H281.251C335.796 2447.37 351.145 2450.03 378.152 2468.03H378.683V2369.54H378.152C351.145 2387.54 335.796 2390.2 281.251 2390.2H24.938L24.938 2349.94Z" fill="white"/>
<path d="M319.359 2208L263.752 2237.66C256.874 2241.38 250.856 2245.12 245.191 2248.89V2313.65C253.056 2308.47 261.78 2303.26 272.223 2298.05L378.658 2242.44V2163.54H378.127C361.184 2184.2 351.651 2190.55 319.333 2208.03L319.359 2208Z" fill="white"/>
<path d="M128.692 1504.4V1447.2H24.938L24.938 1387.87C24.938 1342.33 36.5956 1324.86 66.7634 1285.13V1284.6L7.99561 1289.35L7.99561 1525.03H8.52654C35.5334 1507.03 50.883 1504.37 105.428 1504.37H128.692V1504.4Z" fill="white"/>
<path d="M361.74 1375.71V1420.19C361.74 1443.51 346.922 1447.2 315.667 1447.2H245.292V1504.4H281.251C335.796 1504.4 351.145 1507.05 378.152 1525.06H378.683V1277.75L319.915 1272.97V1273.5C350.083 1312.67 361.74 1330.14 361.74 1375.71V1375.71Z" fill="white"/>
<path d="M128.641 2123.16V2065.96H24.938L24.938 2006.64C24.938 1961.09 36.5956 1943.62 66.7634 1903.89V1903.36L7.99561 1908.12L7.99561 2143.8H8.52654C35.5334 2125.79 50.883 2123.14 105.428 2123.14H128.641V2123.16Z" fill="white"/>
<path d="M361.74 1994.47V2038.95C361.74 2062.27 346.922 2065.96 315.667 2065.96H245.216V2123.16H281.251C335.796 2123.16 351.145 2125.82 378.151 2143.82H378.682V1896.51L319.915 1891.76V1892.29C350.082 1931.46 361.74 1948.93 361.74 1994.5V1994.47Z" fill="white"/>
<path d="M8.52654 1613.03C35.5334 1595.56 50.883 1592.37 105.428 1592.37H128.692V1573.31H105.428C50.883 1573.31 35.5334 1570.65 8.52654 1553.18H7.99561L7.99561 1613.01H8.52654V1613.03Z" fill="white"/>
<path d="M7.99561 1872H8.52654C35.5334 1854 50.883 1851.34 105.428 1851.34H128.667V1832.27H77.8896L128.667 1791.87V1715.27L7.99561 1812.15L7.99561 1872V1872Z" fill="white"/>
<path d="M245.267 1832.27V1851.34H281.251C335.796 1851.34 351.145 1854 378.152 1872H378.683V1812.15H378.152C351.145 1829.62 335.796 1832.27 281.251 1832.27H245.267Z" fill="white"/>
<path d="M281.782 1592.37L245.267 1621.68V1699.09L378.683 1592.93V1573.33H245.292L245.267 1592.37H281.782Z" fill="white"/>
<path d="M19.0966 1075.63C19.0966 1029.03 40.2879 994.081 82.1131 963.357V961.764L18.0348 967.049C7.99568 998.304 1.62329 1027.94 1.62329 1076.16C1.62329 1168.79 55.1566 1234.64 128.692 1259.47V1198.1C64.0325 1181.59 19.0713 1139.18 19.0713 1075.61L19.0966 1075.63Z" fill="white"/>
<path d="M245.469 1003.92L245.343 1022.17H245.874C272.881 1004.7 287.699 1001.51 342.775 1001.51H352.713C362.778 1019.52 367.557 1040.68 367.557 1068.75C367.557 1137.13 318.018 1185.3 245.292 1200.65V1264.81C325.706 1246.12 385.03 1180.75 385.03 1076.69C385.03 1011.02 366.494 972.383 352.182 947.475H245.317V1003.92C245.317 1003.92 245.419 1003.92 245.444 1003.92H245.469Z" fill="white"/>
</svg>
