<svg width="384" height="384" viewBox="0 0 384 384" fill="none" xmlns="http://www.w3.org/2000/svg">
<rect x="0.000244141" width="384" height="384" rx="100" fill="black"/>
<path d="M175.917 82.0572C211.869 82.0572 230.547 104.525 230.547 134.612C230.547 139.936 229.755 144.949 228.552 149.751H267.612C269.006 144.808 269.948 139.695 269.948 134.271C269.948 97.6272 244.372 71.0088 185.591 71.0088H98.8184V71.3498C110.569 88.985 112.303 99.0006 112.303 134.612V249.397C112.303 285.008 110.569 295.024 98.8184 312.659V313H163.124V312.659C151.374 295.024 149.639 285.008 149.639 249.397V82.0572H175.917Z" fill="white"/>
<path d="M268.575 274.281L249.214 237.978C246.788 233.496 244.342 229.556 241.886 225.866H199.607C202.996 230.99 206.385 236.694 209.794 243.522L246.097 313H297.609V312.659C284.124 301.601 279.974 295.375 268.565 274.281H268.575Z" fill="white"/>
</svg>
