<svg width="2479" height="518" viewBox="0 0 2479 518" fill="none" xmlns="http://www.w3.org/2000/svg">
<path d="M1901.29 128.764H1959.55V24.9082H2011.99C2081.36 24.9082 2124.57 68.1245 2141.74 128.789H2199.9C2176.21 59.0969 2111.58 7.96582 2017.84 7.96582H1880.68V8.49676C1898.68 35.5037 1901.34 50.8533 1901.34 105.398V128.764H1901.29Z" fill="white"/>
<path d="M2016.75 361.71C1997.68 361.71 1978.09 361.179 1959.55 357.462V245.338H1901.29V281.196C1901.29 335.741 1898.63 351.09 1880.63 378.097V378.628H2017.79C2112.49 378.628 2180.23 321.605 2202.28 245.363H2145.18C2131.71 312.451 2090.29 361.71 2016.72 361.71H2016.75Z" fill="white"/>
<path d="M1704.78 0L1681.49 7.40964L1635.26 128.738H1652.94L1671.96 77.8599L1691.63 128.738H1755.66L1704.78 0Z" fill="white"/>
<path d="M1801.73 245.338H1737.3L1752.45 285.444C1772.58 336.828 1774.14 351.115 1756.67 378.122V378.653H1862.57V378.122C1846.16 352.177 1837.69 336.828 1817.56 285.444L1801.71 245.338H1801.73Z" fill="white"/>
<path d="M1575.59 285.444C1556.52 336.828 1548.58 351.646 1531.64 378.122V378.653H1590.94V378.122C1573.46 351.115 1575.06 336.828 1594.12 285.444L1609.09 245.312H1590.89L1575.61 285.444H1575.59Z" fill="white"/>
<path d="M2409.01 213.324L2408.98 213.425H2409.01V213.324Z" fill="white"/>
<path d="M2241.65 128.789H2298.85V24.9082H2358.18C2403.72 24.9082 2421.19 36.5658 2460.92 66.7336H2461.45L2456.7 7.96582H2221.02V8.49676C2239.02 35.5037 2241.68 50.8533 2241.68 105.398V128.789H2241.65Z" fill="white"/>
<path d="M2472.53 319.885C2433.36 350.053 2415.88 361.711 2370.32 361.711H2325.84C2302.52 361.711 2298.83 346.892 2298.83 315.637V245.389H2241.63V281.221C2241.63 335.766 2238.97 351.115 2220.97 378.122V378.653H2468.28L2473.06 319.885H2472.53V319.885Z" fill="white"/>
<path d="M124.092 24.9082C179.168 24.9082 207.768 59.3245 207.768 105.398C207.768 113.566 206.554 121.228 204.708 128.586H264.538C266.662 121.025 268.129 113.187 268.129 104.867C268.129 48.7292 228.959 7.96582 138.91 7.96582H6V8.49676C24.0046 35.5037 26.6602 50.8533 26.6602 105.398V281.221C26.6602 335.766 24.0046 351.115 6 378.122V378.653H104.494V378.122C86.4895 351.115 83.8346 335.766 83.8346 281.221V24.9082H124.092Z" fill="white"/>
<path d="M266.029 319.329L236.367 263.722C232.65 256.844 228.908 250.826 225.14 245.162H160.379C165.563 253.026 170.772 261.75 175.981 272.194L231.588 378.628H310.485V378.097C289.825 361.154 283.478 351.621 266.004 319.304L266.029 319.329Z" fill="white"/>
<path d="M969.632 128.662H1026.83V24.9082H1086.16C1131.7 24.9082 1149.17 36.5658 1188.9 66.7336H1189.43L1184.68 7.96582H948.997V8.49676C967.002 35.5037 969.657 50.8533 969.657 105.398V128.662H969.632Z" fill="white"/>
<path d="M1098.32 361.711H1053.84C1030.52 361.711 1026.83 346.892 1026.83 315.637V245.262H969.63V281.221C969.63 335.766 966.975 351.115 948.97 378.122V378.653H1196.28L1201.06 319.885H1200.53C1161.36 350.053 1143.88 361.711 1098.32 361.711V361.711Z" fill="white"/>
<path d="M350.869 128.612H408.068V24.9082H467.392C512.935 24.9082 530.409 36.5658 570.135 66.7336H570.666L565.912 7.96582H330.234V8.49676C348.238 35.5037 350.894 50.8533 350.894 105.398V128.612H350.869Z" fill="white"/>
<path d="M479.556 361.71H435.076C411.761 361.71 408.069 346.892 408.069 315.637V245.187H350.869V281.221C350.869 335.766 348.214 351.115 330.209 378.122V378.653H577.52L582.274 319.885H581.743C542.573 350.053 525.099 361.71 479.531 361.71H479.556Z" fill="white"/>
<path d="M860.996 8.49676C878.469 35.5037 881.655 50.8533 881.655 105.398V128.662H900.722V105.398C900.722 50.8533 903.377 35.5037 920.851 8.49676V7.96582H861.021V8.49676H860.996Z" fill="white"/>
<path d="M602.029 7.96582V8.49676C620.033 35.5037 622.688 50.8533 622.688 105.398V128.637H641.755V77.8598L682.164 128.637H758.76L661.884 7.96582H602.029V7.96582Z" fill="white"/>
<path d="M641.755 245.237H622.688V281.221C622.688 335.766 620.033 351.115 602.029 378.122V378.653H661.884V378.122C644.41 351.115 641.755 335.766 641.755 281.221V245.237Z" fill="white"/>
<path d="M881.657 281.752L852.349 245.237H774.944L881.101 378.653H900.698V245.262L881.657 245.237V281.752Z" fill="white"/>
<path d="M1398.4 19.0666C1445 19.0666 1479.95 40.2578 1510.67 82.0831H1512.27L1506.98 18.0047C1475.73 7.96565 1446.09 1.59326 1397.87 1.59326C1305.24 1.59326 1239.39 55.1266 1214.56 128.662H1275.93C1292.44 64.0025 1334.85 19.0413 1398.42 19.0413L1398.4 19.0666Z" fill="white"/>
<path d="M1470.11 245.439L1451.86 245.313V245.844C1469.33 272.851 1472.52 287.669 1472.52 342.745V352.683C1454.51 362.748 1433.35 367.527 1405.28 367.527C1336.9 367.527 1288.73 317.989 1273.38 245.262H1209.22C1227.91 325.676 1293.28 385 1397.34 385C1463.01 385 1501.65 366.465 1526.55 352.152V245.288H1470.11C1470.11 245.288 1470.11 245.389 1470.11 245.414V245.439Z" fill="white"/>
<path d="M19.3435 503H11.6949V433.468H78.3464V440.322H19.3435V465.751H71.8898V472.605H19.3435V503ZM177.101 503V433.468H222.992C227.628 433.468 231.734 434.329 235.31 436.051C238.886 437.706 241.634 440.024 243.554 443.004C245.541 445.917 246.534 449.229 246.534 452.937C246.534 456.976 245.441 460.519 243.256 463.565C241.071 466.545 238.422 468.631 235.31 469.823C238.025 470.022 240.276 471.048 242.064 472.903C243.918 474.691 244.845 477.339 244.845 480.849V503H237.197V482.24C237.197 479.194 236.502 477.108 235.111 475.982C233.787 474.856 231.403 474.293 227.959 474.293H184.75V503H177.101ZM221.9 467.439C227.131 467.439 231.237 466.214 234.217 463.764C237.197 461.248 238.687 457.937 238.687 453.831C238.687 449.46 237.23 446.116 234.316 443.798C231.403 441.481 227.264 440.322 221.9 440.322H184.75V467.439H221.9ZM390.188 503.993C381.844 503.993 374.261 502.603 367.441 499.821C360.686 496.974 355.322 492.868 351.349 487.504C347.442 482.14 345.488 475.717 345.488 468.234C345.488 460.751 347.442 454.328 351.349 448.964C355.322 443.6 360.686 439.527 367.441 436.746C374.261 433.898 381.844 432.475 390.188 432.475C398.465 432.475 405.981 433.898 412.736 436.746C419.557 439.527 424.921 443.633 428.828 449.063C432.801 454.427 434.787 460.817 434.787 468.234C434.787 475.651 432.801 482.074 428.828 487.504C424.921 492.868 419.557 496.974 412.736 499.821C405.981 502.603 398.465 503.993 390.188 503.993ZM391.181 497.139C397.803 497.139 403.796 496.047 409.16 493.861C414.59 491.61 418.894 488.299 422.073 483.928C425.318 479.558 426.94 474.326 426.94 468.234C426.94 462.142 425.318 456.91 422.073 452.54C418.894 448.169 414.59 444.891 409.16 442.706C403.796 440.454 397.803 439.328 391.181 439.328H389.194C382.572 439.328 376.546 440.454 371.116 442.706C365.686 444.891 361.348 448.169 358.104 452.54C354.925 456.91 353.336 462.142 353.336 468.234C353.336 474.326 354.925 479.558 358.104 483.928C361.348 488.299 365.686 491.61 371.116 493.861C376.546 496.047 382.572 497.139 389.194 497.139H391.181ZM601.803 493.961V433.468H609.451V503H599.717L543.694 442.507V503H536.045V433.468H545.78L601.803 493.961ZM748.088 503H740.44V440.322H706.17V433.468H782.358V440.322H748.088V503ZM886.729 470.519V496.146H948.712V503H879.08V433.468H947.718V440.322H886.729V463.665H941.758V470.519H886.729ZM1115.48 493.961V433.468H1123.13V503H1113.4L1057.37 442.507V503H1049.72V433.468H1059.46L1115.48 493.961ZM1229.58 503V433.468H1270.91C1278.65 433.468 1285.38 434.859 1291.07 437.64C1296.77 440.355 1301.14 444.328 1304.18 449.56C1307.23 454.791 1308.75 461.016 1308.75 468.234C1308.75 475.452 1307.23 481.677 1304.18 486.908C1301.14 492.14 1296.77 496.146 1291.07 498.927C1285.38 501.642 1278.65 503 1270.91 503H1229.58ZM1269.02 496.146C1279.02 496.146 1286.83 493.795 1292.46 489.094C1298.09 484.326 1300.9 477.372 1300.9 468.234C1300.9 459.095 1298.09 452.175 1292.46 447.474C1286.83 442.706 1279.02 440.322 1269.02 440.322H1237.23V496.146H1269.02ZM1555.58 503.993C1531.35 503.993 1519.03 496.345 1518.63 481.048H1526.58C1526.98 485.749 1529.33 489.623 1533.63 492.67C1537.94 495.649 1544.89 497.139 1554.49 497.139H1556.48C1565.62 497.139 1572.14 495.881 1576.05 493.365C1580.02 490.782 1582.01 487.703 1582.01 484.127C1582.01 481.015 1580.78 478.531 1578.33 476.677C1575.88 474.823 1571.51 473.532 1565.22 472.803L1548.23 470.717C1541.88 469.923 1536.88 468.83 1533.23 467.439C1529.59 466.049 1526.94 464.161 1525.29 461.777C1523.7 459.393 1522.9 456.281 1522.9 452.44C1522.9 448.798 1524.06 445.487 1526.38 442.507C1528.7 439.461 1532.27 437.044 1537.11 435.256C1542.01 433.402 1548.17 432.475 1555.58 432.475C1566.84 432.475 1575.55 434.428 1581.71 438.335C1587.87 442.176 1591.24 447.341 1591.84 453.831H1583.79C1583.06 449.593 1580.35 446.116 1575.65 443.401C1571.01 440.686 1564.62 439.328 1556.48 439.328H1554.49C1546.68 439.328 1540.75 440.554 1536.71 443.004C1532.74 445.388 1530.75 448.401 1530.75 452.043C1530.75 454.162 1531.25 455.917 1532.24 457.307C1533.23 458.698 1535.02 459.89 1537.6 460.883C1540.19 461.811 1543.9 462.572 1548.73 463.168L1565.22 465.155C1573.56 466.148 1579.75 468.135 1583.79 471.115C1587.83 474.095 1589.85 478.233 1589.85 483.531C1589.85 490.087 1586.97 495.153 1581.21 498.729C1575.45 502.238 1566.91 503.993 1555.58 503.993ZM1731.97 503.993C1723.62 503.993 1716.04 502.603 1709.22 499.821C1702.46 496.974 1697.1 492.868 1693.13 487.504C1689.22 482.14 1687.27 475.717 1687.27 468.234C1687.27 460.751 1689.22 454.328 1693.13 448.964C1697.1 443.6 1702.46 439.527 1709.22 436.746C1716.04 433.898 1723.62 432.475 1731.97 432.475C1740.24 432.475 1747.76 433.898 1754.51 436.746C1761.34 439.527 1766.7 443.633 1770.61 449.063C1774.58 454.427 1776.57 460.817 1776.57 468.234C1776.57 475.651 1774.58 482.074 1770.61 487.504C1766.7 492.868 1761.34 496.974 1754.51 499.821C1747.76 502.603 1740.24 503.993 1731.97 503.993ZM1732.96 497.139C1739.58 497.139 1745.57 496.047 1750.94 493.861C1756.37 491.61 1760.67 488.299 1763.85 483.928C1767.1 479.558 1768.72 474.326 1768.72 468.234C1768.72 462.142 1767.1 456.91 1763.85 452.54C1760.67 448.169 1756.37 444.891 1750.94 442.706C1745.57 440.454 1739.58 439.328 1732.96 439.328H1730.97C1724.35 439.328 1718.32 440.454 1712.89 442.706C1707.46 444.891 1703.13 448.169 1699.88 452.54C1696.7 456.91 1695.11 462.142 1695.11 468.234C1695.11 474.326 1696.7 479.558 1699.88 483.928C1703.13 488.299 1707.46 491.61 1712.89 493.861C1718.32 496.047 1724.35 497.139 1730.97 497.139H1732.96ZM1911.8 503.993C1900.27 503.993 1891.56 501.212 1885.67 495.649C1879.78 490.087 1876.83 482.405 1876.83 472.605V433.468H1884.48V471.611C1884.48 480.021 1886.8 486.379 1891.43 490.683C1896.07 494.987 1902.52 497.139 1910.8 497.139H1912.79C1921 497.139 1927.42 494.987 1932.06 490.683C1936.76 486.379 1939.11 480.021 1939.11 471.611V433.468H1946.76V472.605C1946.76 482.405 1943.81 490.087 1937.92 495.649C1932.03 501.212 1923.32 503.993 1911.8 503.993ZM2052.25 503V433.468H2098.14C2102.78 433.468 2106.88 434.329 2110.46 436.051C2114.04 437.706 2116.78 440.024 2118.7 443.004C2120.69 445.917 2121.68 449.229 2121.68 452.937C2121.68 456.976 2120.59 460.519 2118.41 463.565C2116.22 466.545 2113.57 468.631 2110.46 469.823C2113.17 470.022 2115.43 471.048 2117.21 472.903C2119.07 474.691 2120 477.339 2120 480.849V503H2112.35V482.24C2112.35 479.194 2111.65 477.108 2110.26 475.982C2108.94 474.856 2106.55 474.293 2103.11 474.293H2059.9V503H2052.25ZM2097.05 467.439C2102.28 467.439 2106.39 466.214 2109.37 463.764C2112.35 461.248 2113.84 457.937 2113.84 453.831C2113.84 449.46 2112.38 446.116 2109.47 443.798C2106.55 441.481 2102.41 440.322 2097.05 440.322H2059.9V467.439H2097.05ZM2264.25 503.993C2255.24 503.993 2247.43 502.47 2240.8 499.424C2234.25 496.378 2229.25 492.173 2225.8 486.809C2222.36 481.379 2220.64 475.187 2220.64 468.234C2220.64 461.281 2222.36 455.122 2225.8 449.758C2229.25 444.328 2234.25 440.09 2240.8 437.044C2247.43 433.998 2255.24 432.475 2264.25 432.475C2272.59 432.475 2279.51 433.7 2285.01 436.15C2290.5 438.534 2294.57 441.448 2297.22 444.891C2299.94 448.268 2301.63 451.579 2302.29 454.824H2293.35C2292.75 452.374 2291.33 449.99 2289.08 447.672C2286.89 445.288 2283.78 443.302 2279.74 441.712C2275.77 440.123 2270.93 439.328 2265.24 439.328H2263.25C2256.3 439.328 2250.17 440.587 2244.88 443.103C2239.64 445.553 2235.6 448.997 2232.76 453.434C2229.91 457.804 2228.49 462.738 2228.49 468.234C2228.49 473.73 2229.91 478.697 2232.76 483.134C2235.6 487.504 2239.64 490.948 2244.88 493.464C2250.17 495.914 2256.3 497.139 2263.25 497.139H2265.24C2270.87 497.139 2275.67 496.345 2279.64 494.755C2283.61 493.166 2286.69 491.213 2288.88 488.895C2291.13 486.511 2292.62 484.094 2293.35 481.644H2302.29C2301.63 484.889 2299.94 488.233 2297.22 491.676C2294.57 495.053 2290.5 497.967 2285.01 500.417C2279.51 502.801 2272.59 503.993 2264.25 503.993ZM2410.79 470.519V496.146H2472.78V503H2403.14V433.468H2471.78V440.322H2410.79V463.665H2465.82V470.519H2410.79Z" fill="white"/>
</svg>
